<svg width="244" height="176" viewBox="0 0 244 176" fill="none" xmlns="http://www.w3.org/2000/svg">
<g clip-path="url(#clip0_61_8596)">
<path opacity="0.26" d="M9.21002 101.57L14.39 93.94C14.39 93.94 37.69 67.44 38.4 37.4C39.12 7.35 49.47 3.37 74.27 1.61C95.24 0.13 119.47 -4.27 139.03 12.89C147.61 20.42 157.75 24.28 168.02 23.88L190.64 23C201.43 22.58 212.07 26.85 220.88 35.19C233.94 47.54 248.05 70.23 242.49 108.65C241.55 115.17 240.96 122.02 240.89 128.67L240.72 145.01C240.57 159.36 231.91 170.9 221.03 171.14L51.25 175.02C33.8 175.42 16.98 166.08 4.92002 149.3C1.70002 144.81 -0.0599797 138.87 2.02889e-05 132.73C0.12002 121.19 3.39002 110.13 9.21002 101.57Z" fill="url(#paint0_linear_61_8596)"/>
<path d="M15.9199 100.81L20.7999 93.8C20.7999 93.8 42.7199 69.44 43.3799 41.82C44.0399 14.19 53.7799 10.54 77.1199 8.94C96.8499 7.59 119.64 3.56 138.05 19.35C146.13 26.28 155.67 29.83 165.32 29.47L186.6 28.67C196.75 28.29 206.76 32.23 215.06 39.9C227.35 51.27 240.79 72.14 235.57 107.48C234.68 113.48 234.3 119.78 234.24 125.89L234.08 140.91C233.94 154.11 225.63 164.71 215.39 164.93L55.5699 168.39C39.1499 168.75 23.2799 160.14 11.9299 144.7C8.8999 140.58 7.2299 135.11 7.2799 129.47C7.3899 118.86 10.4499 108.69 15.9199 100.82V100.81Z" fill="url(#paint1_linear_61_8596)"/>
<path d="M213.17 165.53V48.48C213.17 46.9115 211.898 45.64 210.33 45.64L49.5399 45.64C47.9715 45.64 46.6999 46.9115 46.6999 48.48V165.53C46.6999 167.098 47.9715 168.37 49.5399 168.37H210.33C211.898 168.37 213.17 167.098 213.17 165.53Z" fill="#1D567E"/>
<path d="M205.47 57.5V156.5C205.47 158.8 203.6 160.67 201.3 160.67H58.5699C56.2699 160.67 54.3999 158.8 54.3999 156.5V57.5C54.3999 57.11 54.4499 56.72 54.5599 56.36C54.9299 55.05 55.9199 54.01 57.1999 53.56C57.6299 53.41 58.0899 53.33 58.5699 53.33H201.3C201.78 53.33 202.25 53.41 202.68 53.56C203.95 54 204.95 55.05 205.32 56.36C205.42 56.72 205.48 57.11 205.48 57.5H205.47Z" fill="white"/>
<path d="M205.47 57.34V67.35H54.3899V57.34C54.3899 56.94 54.4399 56.55 54.5499 56.18C54.9199 54.85 55.9099 53.79 57.1899 53.34H202.68C203.95 53.79 204.95 54.86 205.32 56.18C205.42 56.55 205.48 56.94 205.48 57.34H205.47Z" fill="#B7D8F0"/>
<path d="M191.2 60.58V61.04C191.2 61.93 190.48 62.64 189.6 62.64H82.8798C81.8698 62.64 81.0498 61.82 81.0498 60.81C81.0498 59.8 81.8698 58.98 82.8798 58.98H189.6C190.49 58.98 191.2 59.7 191.2 60.58Z" fill="white"/>
<path d="M65.8299 60.81V62.17C65.8299 62.56 65.4099 62.8 65.0699 62.61L63.8999 61.93L62.7299 61.25C62.3899 61.06 62.3899 60.57 62.7299 60.37L63.8999 59.69L65.0699 59.01C65.4099 58.82 65.8299 59.06 65.8299 59.45V60.81Z" fill="#002B5C"/>
<path d="M71.95 60.81V62.17C71.95 62.56 72.37 62.8 72.71 62.61L73.88 61.93L75.05 61.25C75.39 61.06 75.39 60.57 75.05 60.37L73.88 59.69L72.71 59.01C72.37 58.82 71.95 59.06 71.95 59.45V60.81Z" fill="#002B5C"/>
<path d="M61.27 93.91C61.51 95.36 61.97 96.75 62.6 98.02L59.9 101.52C60.32 102.18 60.79 102.82 61.29 103.43L65.46 101.95C66.49 102.96 67.66 103.82 68.95 104.49L68.83 108.91C69.56 109.2 70.3 109.44 71.07 109.64L73.57 105.99C74.27 106.09 75 106.15 75.73 106.15C76.46 106.15 77.18 106.09 77.89 105.99L80.39 109.64C81.16 109.44 81.91 109.2 82.63 108.91L82.51 104.49C83.8 103.82 84.97 102.96 86 101.95L90.16 103.43C90.66 102.83 91.12 102.19 91.55 101.52L88.86 98.02C89.5 96.74 89.95 95.36 90.19 93.91L94.43 92.66C94.45 92.27 94.47 91.88 94.47 91.48C94.47 91.08 94.46 90.69 94.43 90.3L90.19 89.05C89.95 87.6 89.49 86.22 88.86 84.94L91.55 81.44C91.13 80.77 90.66 80.14 90.16 79.53L86 81.01C84.97 80 83.8 79.14 82.51 78.47L82.63 74.05C81.9 73.76 81.16 73.52 80.39 73.32L77.89 76.97C77.18 76.87 76.46 76.81 75.73 76.81C75 76.81 74.27 76.86 73.57 76.97L71.07 73.32C70.3 73.52 69.55 73.76 68.83 74.05L68.95 78.47C67.66 79.14 66.49 80 65.46 81.01L61.29 79.53C60.79 80.14 60.33 80.77 59.9 81.44L62.6 84.94C61.96 86.22 61.51 87.6 61.27 89.05L57.03 90.3C57.01 90.69 56.99 91.09 56.99 91.48C56.99 91.87 57 92.27 57.03 92.66L61.27 93.91ZM69.33 91.48C69.33 87.95 72.21 85.07 75.74 85.07C79.27 85.07 82.15 87.95 82.15 91.48C82.15 95.01 79.27 97.89 75.74 97.89C72.21 97.89 69.33 95.01 69.33 91.48Z" fill="#B7D8F0"/>
<path d="M47.3001 139.05C47.6401 141.08 48.2701 143 49.1601 144.78L45.4001 149.67C45.9901 150.6 46.6401 151.49 47.3401 152.33L53.1501 150.26C54.5801 151.67 56.2201 152.87 58.0201 153.81L57.8501 159.98C58.8601 160.38 59.9101 160.72 60.9801 161L64.4701 155.91C65.4501 156.05 66.4601 156.13 67.4801 156.13C68.5001 156.13 69.5101 156.05 70.4901 155.91L73.9801 161C75.0501 160.73 76.1001 160.39 77.1101 159.98L76.9401 153.81C78.7401 152.87 80.3801 151.67 81.8101 150.26L87.6201 152.33C88.3201 151.49 88.9701 150.6 89.5601 149.67L85.8001 144.78C86.6901 143 87.3201 141.07 87.6601 139.05L93.5701 137.31C93.6001 136.76 93.6201 136.21 93.6201 135.66C93.6201 135.11 93.6001 134.56 93.5701 134.01L87.6601 132.27C87.3201 130.24 86.6901 128.31 85.8001 126.54L89.5601 121.65C88.9701 120.72 88.3201 119.83 87.6201 118.99L81.8101 121.06C80.3801 119.65 78.7301 118.45 76.9401 117.51L77.1101 111.34C76.1001 110.94 75.0501 110.6 73.9801 110.32L70.4901 115.41C69.5101 115.27 68.5001 115.19 67.4801 115.19C66.4601 115.19 65.4501 115.27 64.4701 115.41L60.9801 110.32C59.9101 110.6 58.8601 110.94 57.8501 111.34L58.0201 117.51C56.2201 118.45 54.5801 119.65 53.1501 121.06L47.3401 118.99C46.6401 119.83 45.9901 120.72 45.4001 121.65L49.1601 126.54C48.2701 128.32 47.6401 130.24 47.3001 132.27L41.3901 134.01C41.3601 134.55 41.3401 135.1 41.3401 135.66C41.3401 136.22 41.3601 136.76 41.3901 137.31L47.3001 139.05ZM55.6801 135.66C55.6801 129.15 60.9801 123.85 67.4901 123.85C74.0001 123.85 79.3001 129.15 79.3001 135.66C79.3001 142.17 74.0001 147.47 67.4901 147.47C60.9801 147.47 55.6801 142.17 55.6801 135.66Z" fill="#B7D8F0"/>
<path d="M143.66 122.69C144 124.5 144.47 126.26 145.07 127.96L139.09 133.75C140.36 136.62 141.94 139.33 143.77 141.84L151.78 139.55C152.97 140.93 154.25 142.22 155.63 143.4L153.34 151.4C155.85 153.24 158.56 154.81 161.43 156.08L167.22 150.1C168.92 150.7 170.68 151.17 172.49 151.51L174.51 159.58C176.05 159.74 177.61 159.83 179.18 159.83C180.75 159.83 182.32 159.75 183.85 159.58L185.87 151.51C187.67 151.17 189.44 150.7 191.14 150.1L196.93 156.08C199.8 154.8 202.51 153.23 205.02 151.4L202.73 143.4C204.11 142.21 205.39 140.93 206.58 139.55L214.59 141.84C216.42 139.33 218 136.63 219.27 133.75L213.29 127.96C213.89 126.26 214.36 124.5 214.7 122.69L222.77 120.67C222.93 119.13 223.02 117.57 223.02 116C223.02 114.43 222.93 112.86 222.77 111.33L214.7 109.31C214.36 107.5 213.89 105.74 213.29 104.04L219.27 98.25C218 95.38 216.42 92.67 214.59 90.16L206.58 92.45C205.39 91.07 204.11 89.78 202.73 88.6L205.02 80.59C202.51 78.76 199.8 77.18 196.93 75.91L191.14 81.89C189.44 81.29 187.68 80.82 185.87 80.48L183.85 72.4C182.31 72.24 180.76 72.15 179.18 72.15C177.6 72.15 176.04 72.24 174.51 72.4L172.49 80.48C170.68 80.82 168.92 81.29 167.22 81.89L161.43 75.91C158.56 77.18 155.85 78.76 153.34 80.59L155.63 88.6C154.25 89.79 152.96 91.07 151.78 92.45L143.77 90.16C141.94 92.67 140.36 95.38 139.09 98.25L145.08 104.04C144.48 105.74 144.01 107.5 143.67 109.31L135.59 111.33C135.43 112.87 135.34 114.43 135.34 116C135.34 117.57 135.43 119.14 135.59 120.67L143.67 122.69H143.66ZM155.8 116C155.8 103.09 166.27 92.62 179.18 92.62C192.09 92.62 202.56 103.09 202.56 116C202.56 128.91 192.09 139.38 179.18 139.38C166.27 139.38 155.8 128.91 155.8 116Z" fill="#B7D8F0"/>
<path d="M129.37 6.1C129.37 6.1 112.31 4.39 107.77 29.52C103.22 54.65 100.16 70.4 101.19 83.77C102.22 97.14 146.06 93.58 152.87 86.87C159.67 80.16 152.25 35.31 150.57 23.39C148.89 11.47 136.16 4.92 129.38 6.1H129.37Z" fill="#18315B"/>
<path d="M100.99 94.6C105.961 94.6 109.99 90.5706 109.99 85.6C109.99 80.6294 105.961 76.6 100.99 76.6C96.0194 76.6 91.99 80.6294 91.99 85.6C91.99 90.5706 96.0194 94.6 100.99 94.6Z" fill="#E8492D"/>
<path d="M79.9 135.6C83.8764 135.6 87.1 132.376 87.1 128.4C87.1 124.424 83.8764 121.2 79.9 121.2C75.9235 121.2 72.7 124.424 72.7 128.4C72.7 132.376 75.9235 135.6 79.9 135.6Z" fill="#E8492D"/>
<path d="M86.36 131.59L73.45 125.21C85.9 94.49 92.93 81.61 92.93 81.61L109.07 89.58C109.07 89.58 101.99 105.74 86.36 131.58V131.59Z" fill="#E8492D"/>
<path d="M158.17 94.6C163.14 94.6 167.17 90.5706 167.17 85.6C167.17 80.6294 163.14 76.6 158.17 76.6C153.199 76.6 149.17 80.6294 149.17 85.6C149.17 90.5706 153.199 94.6 158.17 94.6Z" fill="#E8492D"/>
<path d="M182.38 133.92C186.356 133.92 189.58 130.696 189.58 126.72C189.58 122.744 186.356 119.52 182.38 119.52C178.403 119.52 175.18 122.744 175.18 126.72C175.18 130.696 178.403 133.92 182.38 133.92Z" fill="#E8492D"/>
<path d="M176.17 130.38L188.58 123.06C173.89 93.35 165.92 81.03 165.92 81.03L150.41 90.18C150.41 90.18 158.67 105.77 176.17 130.38Z" fill="#E8492D"/>
<path d="M102.4 126.63C102.48 128.15 102.54 129.7 102.6 131.24C102.96 141.78 102.79 152.58 101.47 160.67H158.32C157 152.58 157.05 141.78 157.41 131.24C157.52 127.94 157.7 124.69 157.9 121.51C158.65 110.08 159.89 99.68 160.72 91.8C161.56 83.8 161.97 78.39 160.99 77.16C160.15 76.09 158.76 74.95 157.07 73.79C154.49 72.02 151.17 70.19 147.9 68.46C147.28 68.13 146.66 67.81 146.05 67.49C142.27 65.52 138.76 63.75 136.77 62.42C134.29 63.5 132.32 64.09 130.19 64.08C130.13 64.08 130.07 64.08 130.01 64.08C129.95 64.08 129.88 64.08 129.83 64.08C127.7 64.09 125.73 63.5 123.26 62.42C121.14 63.83 117.23 65.79 113.1 67.96C112.36 68.35 111.62 68.74 110.87 69.14C108.8 70.25 106.74 71.39 104.89 72.52C104.11 73 103.36 73.48 102.67 73.95C100.9 75.15 99.4599 76.33 98.5999 77.42C96.6299 79.9 100.64 99.14 102.18 122.66C102.26 123.96 102.34 125.28 102.41 126.61L102.4 126.63Z" fill="#FA5F2D"/>
<path d="M141.97 160.67C134.71 158.61 128.55 155.07 124.1 151.93C116.82 146.8 112.41 141.59 112.37 141.54C112.16 141.29 112.19 140.91 112.44 140.7C112.69 140.49 113.07 140.52 113.28 140.77C113.32 140.82 117.65 145.92 124.81 150.97C130.1 154.7 137.84 159 146.97 160.58L141.97 160.67Z" fill="#D33E2F"/>
<path d="M145.68 155.15C135.07 153.06 125.68 144.94 125.25 144.57C125 144.35 124.98 143.97 125.19 143.72C125.41 143.47 125.79 143.45 126.04 143.66C126.15 143.76 137.2 153.31 148.47 154.34C148.8 154.37 149.04 154.66 149.01 154.99C148.98 155.32 148.69 155.56 148.36 155.53C147.46 155.45 146.57 155.32 145.68 155.14V155.15Z" fill="#D33E2F"/>
<path d="M127.46 91.75C127.18 91.75 126.93 91.55 126.87 91.26C126.81 90.93 127.02 90.62 127.35 90.56C142.54 87.68 147.12 77.9 147.17 77.8C147.31 77.5 147.66 77.36 147.96 77.5C148.26 77.64 148.4 77.99 148.26 78.29C148.07 78.71 143.37 88.73 127.57 91.73C127.53 91.73 127.49 91.74 127.46 91.74V91.75Z" fill="#D33E2F"/>
<path d="M146.05 67.51C142.44 73.6 136.19 79.84 128.16 78.45C120.77 77.17 116.24 72.43 113.1 67.98C117.24 65.82 121.14 63.85 123.26 62.44C125.74 63.52 127.71 64.11 129.83 64.1C129.89 64.1 129.95 64.1 130.01 64.1C130.07 64.1 130.13 64.1 130.19 64.1C132.31 64.11 134.29 63.52 136.77 62.44C138.77 63.77 142.27 65.54 146.05 67.51Z" fill="#FFA681"/>
<path d="M139.84 62.95C139.57 62.95 139.36 63.16 139.36 63.42C139.36 63.81 139.2 72.9 131.04 73.6C123.47 74.26 120.34 67.01 119.37 64C119.31 63.82 119.15 63.71 118.96 63.71H118.87C118.58 63.71 118.37 63.99 118.46 64.27C119.49 67.37 122.79 74.86 130.51 74.59C130.71 74.59 130.91 74.57 131.12 74.55C140.15 73.77 140.31 63.53 140.31 63.42C140.31 63.16 140.1 62.94 139.84 62.94V62.95Z" fill="white"/>
<path d="M114.95 35.26C114.95 35.26 111.23 31.02 109.19 33.99C107.15 36.95 110.04 46.12 114.98 44.01L114.95 35.26Z" fill="#FFA681"/>
<path d="M113.81 40.94C113.63 40.94 113.46 40.82 113.41 40.63C112.67 37.9 109.86 36.78 109.84 36.77C109.63 36.69 109.52 36.45 109.6 36.23C109.68 36.02 109.92 35.91 110.14 35.99C110.27 36.04 113.36 37.27 114.22 40.41C114.28 40.63 114.15 40.86 113.93 40.92C113.89 40.93 113.85 40.94 113.82 40.93L113.81 40.94Z" fill="#E26D53"/>
<path d="M110.98 39.55C110.9 39.55 110.83 39.53 110.76 39.48C110.57 39.35 110.51 39.1 110.64 38.9C110.66 38.87 111.17 38.11 112.21 37.65C112.42 37.56 112.67 37.65 112.76 37.86C112.85 38.07 112.76 38.32 112.55 38.41C111.74 38.76 111.34 39.34 111.34 39.35C111.26 39.47 111.12 39.54 110.99 39.54L110.98 39.55Z" fill="#E26D53"/>
<path d="M144.55 35.26C144.55 35.26 148.27 31.02 150.31 33.99C152.35 36.95 149.46 46.12 144.52 44.01L144.55 35.26Z" fill="#FFA681"/>
<path d="M145.69 40.94C145.87 40.94 146.04 40.82 146.09 40.63C146.83 37.9 149.64 36.78 149.66 36.77C149.87 36.69 149.98 36.45 149.9 36.23C149.82 36.02 149.58 35.91 149.36 35.99C149.23 36.04 146.14 37.27 145.28 40.41C145.22 40.63 145.35 40.86 145.57 40.92C145.61 40.93 145.65 40.94 145.68 40.93L145.69 40.94Z" fill="#E26D53"/>
<path d="M148.53 39.55C148.61 39.55 148.68 39.53 148.75 39.48C148.94 39.35 149 39.1 148.87 38.9C148.85 38.87 148.34 38.11 147.3 37.65C147.09 37.56 146.84 37.65 146.75 37.86C146.66 38.07 146.75 38.32 146.96 38.41C147.77 38.76 148.17 39.34 148.17 39.35C148.25 39.47 148.39 39.54 148.52 39.54L148.53 39.55Z" fill="#E26D53"/>
<path d="M136.82 53.03V62.44C136.82 62.44 134.01 67.23 130.22 67.56C126.43 67.89 123.06 63.43 123.06 63.43V53.69L136.83 53.03H136.82Z" fill="#FFA681"/>
<path d="M136.82 53.03V57.21C134.27 60.04 129.75 61.04 123.06 60.05V53.7L136.82 53.04V53.03Z" fill="#E26D53"/>
<path d="M146.74 28.86C146.57 32.52 146.22 37.09 145.52 40.75C145.35 41.66 145.15 42.52 144.93 43.29C142.95 50.23 137.99 62.12 124.12 57.17C117.99 54.98 115.15 48.16 113.89 41.22C113.03 36.51 112.9 31.74 112.96 28.34C113.03 24.87 114.92 21.69 117.95 19.98C126.14 15.34 134.78 17.07 140.46 19.26C144.41 20.78 146.93 24.65 146.73 28.87L146.74 28.86Z" fill="#FFA681"/>
<path d="M122.4 37.69C123.04 37.69 123.56 36.8752 123.56 35.87C123.56 34.8648 123.04 34.05 122.4 34.05C121.759 34.05 121.24 34.8648 121.24 35.87C121.24 36.8752 121.759 37.69 122.4 37.69Z" fill="#18315B"/>
<path d="M136.68 37.69C137.32 37.69 137.84 36.8752 137.84 35.87C137.84 34.8648 137.32 34.05 136.68 34.05C136.039 34.05 135.52 34.8648 135.52 35.87C135.52 36.8752 136.039 37.69 136.68 37.69Z" fill="#18315B"/>
<path d="M120.11 30.45C121.07 30.18 123.01 29.71 125.06 29.71C125.6 29.71 126.01 30.19 125.92 30.72C125.84 31.16 125.47 31.46 125.04 31.44C123.65 31.38 119.99 31.57 118.27 32.27C118.23 31.97 118.41 31.64 118.66 31.35C119.04 30.91 119.56 30.62 120.12 30.46L120.11 30.45Z" fill="#18315B"/>
<path d="M138.79 30.49C137.83 30.22 135.89 29.75 133.84 29.75C133.3 29.75 132.89 30.23 132.98 30.76C133.06 31.2 133.43 31.5 133.86 31.48C135.25 31.42 138.91 31.61 140.63 32.31C140.67 32.01 140.49 31.68 140.24 31.39C139.86 30.95 139.34 30.66 138.78 30.5L138.79 30.49Z" fill="#18315B"/>
<path d="M129.82 44.17C129.48 44.17 129.13 44.11 128.85 43.94C128.59 43.78 128.26 43.47 128.2 42.85C128.03 41.21 128.45 36.05 128.47 35.84C128.49 35.59 128.71 35.41 128.95 35.43C129.2 35.45 129.38 35.67 129.36 35.91C129.36 35.96 128.93 41.2 129.09 42.76C129.12 43.03 129.23 43.13 129.31 43.18C129.73 43.43 130.7 43.18 131.1 43.01C131.33 42.92 131.59 43.03 131.68 43.26C131.77 43.49 131.66 43.75 131.44 43.84C131.32 43.89 130.58 44.18 129.82 44.18V44.17Z" fill="#E26D53"/>
<path d="M124.14 46.99C124.48 48.69 125.6 51.82 129.39 51.82C133.18 51.82 134.25 48.96 134.61 46.99H124.14Z" fill="white"/>
<path d="M129.33 54.43C128.24 54.43 127.27 53.84 127.23 53.82C127.02 53.69 126.95 53.41 127.08 53.2C127.21 52.99 127.48 52.93 127.69 53.05C127.69 53.05 128.48 53.53 129.32 53.53C130.22 53.53 131.03 53.05 131.04 53.05C131.25 52.92 131.53 52.99 131.65 53.2C131.78 53.41 131.71 53.69 131.5 53.81C131.46 53.83 130.48 54.42 129.32 54.42L129.33 54.43Z" fill="#E26D53"/>
<path d="M148.54 28.13C148.39 28.54 148 28.8 147.46 28.95C147.5 29.94 147.39 31.12 147.3 32.26C146.75 38.72 145.23 41.12 144.52 40.94C143.58 40.7 145.12 33.42 145.36 29.12C144.08 29.04 142.27 28.83 142.27 28.83L140.77 22.56L140.24 28.75C137.99 29.53 132.75 28.28 132.75 28.28L130.99 22.1L129.9 28.05C126.53 29.69 122.31 28.6 122.31 28.6L121.34 22.18L119.1 28.6C119.1 28.6 115.73 29.59 113.6 29.71C113.35 32.54 114.66 38.41 114.39 40.67C114.03 43.69 112.51 40.94 111.67 34.05C111.45 32.25 111.67 29.88 111.83 28.42C111.83 28.42 111.83 28.42 111.83 28.41C111.91 27.68 111.97 27.17 111.98 27.07C111.98 27.06 111.98 27.05 111.98 27.05C112.31 25.07 113.11 22.07 113.81 19.6C114.82 16.03 117.17 13.01 120.35 11.31C129.28 6.52 138.71 9.07 141.95 11C148.82 15.1 148.54 28.14 148.54 28.14V28.13Z" fill="#18315B"/>
<path d="M111.99 27.06C111.98 27.17 111.91 27.67 111.84 28.4C111.84 28.05 111.9 27.59 111.99 27.06Z" fill="#18315B"/>
<path d="M126.95 113.62C127.12 114.51 127.35 115.37 127.64 116.2L124.7 119.04C125.32 120.45 126.1 121.78 127 123.01L130.93 121.89C131.51 122.57 132.14 123.2 132.82 123.78L131.7 127.71C132.93 128.61 134.26 129.38 135.67 130.01L138.51 127.07C139.34 127.36 140.21 127.59 141.09 127.76L142.08 131.72C142.83 131.8 143.6 131.84 144.37 131.84C145.14 131.84 145.91 131.8 146.66 131.72L147.65 127.76C148.54 127.59 149.4 127.36 150.23 127.07L153.07 130.01C154.48 129.38 155.81 128.61 157.04 127.71L155.92 123.78C156.6 123.2 157.23 122.57 157.81 121.89L161.74 123.01C162.64 121.78 163.41 120.45 164.04 119.04L161.1 116.2C161.39 115.37 161.62 114.5 161.79 113.62L165.75 112.63C165.83 111.88 165.87 111.11 165.87 110.34C165.87 109.57 165.83 108.8 165.75 108.05L161.79 107.06C161.62 106.17 161.39 105.31 161.1 104.48L164.04 101.64C163.42 100.23 162.64 98.9 161.74 97.67L157.81 98.79C157.23 98.11 156.6 97.48 155.92 96.9L157.04 92.97C155.81 92.07 154.48 91.3 153.07 90.67L150.23 93.61C149.4 93.32 148.53 93.09 147.65 92.92L146.66 88.96C145.91 88.88 145.14 88.84 144.37 88.84C143.6 88.84 142.83 88.88 142.08 88.96L141.09 92.92C140.2 93.09 139.34 93.32 138.51 93.61L135.67 90.67C134.26 91.29 132.93 92.07 131.7 92.97L132.82 96.9C132.14 97.48 131.51 98.11 130.93 98.79L127 97.67C126.1 98.9 125.33 100.23 124.7 101.64L127.64 104.48C127.35 105.31 127.12 106.18 126.95 107.06L122.99 108.05C122.91 108.8 122.87 109.57 122.87 110.34C122.87 111.11 122.91 111.88 122.99 112.63L126.95 113.62ZM135.2 110.34C135.2 105.27 139.31 101.17 144.37 101.17C149.43 101.17 153.55 105.28 153.55 110.34C153.55 115.4 149.44 119.52 144.37 119.52C139.3 119.52 135.2 115.41 135.2 110.34Z" fill="#D1E6EC"/>
<path d="M144.37 122.87C151.29 122.87 156.9 117.26 156.9 110.34C156.9 103.42 151.29 97.81 144.37 97.81C137.45 97.81 131.84 103.42 131.84 110.34C131.84 117.26 137.45 122.87 144.37 122.87Z" stroke="white" stroke-width="1.1" stroke-miterlimit="10"/>
<path d="M100.55 123.82C100.65 124.36 100.79 124.89 100.97 125.4L99.1798 127.14C99.5598 128 100.03 128.81 100.58 129.57L102.98 128.88C103.34 129.29 103.72 129.68 104.13 130.04L103.44 132.44C104.19 132.99 105 133.46 105.87 133.84L107.61 132.05C108.12 132.23 108.65 132.37 109.19 132.47L109.8 134.89C110.26 134.94 110.73 134.96 111.2 134.96C111.67 134.96 112.14 134.93 112.6 134.89L113.21 132.47C113.75 132.37 114.28 132.23 114.79 132.05L116.53 133.84C117.39 133.46 118.2 132.99 118.96 132.44L118.27 130.04C118.68 129.68 119.07 129.3 119.42 128.88L121.82 129.57C122.37 128.82 122.84 128.01 123.22 127.14L121.43 125.4C121.61 124.89 121.75 124.36 121.85 123.82L124.27 123.21C124.32 122.75 124.34 122.28 124.34 121.81C124.34 121.34 124.31 120.87 124.27 120.41L121.85 119.8C121.75 119.26 121.61 118.73 121.43 118.22L123.22 116.48C122.84 115.62 122.37 114.81 121.82 114.05L119.42 114.74C119.06 114.33 118.68 113.94 118.27 113.59L118.96 111.19C118.21 110.64 117.4 110.17 116.53 109.79L114.79 111.58C114.28 111.4 113.75 111.26 113.21 111.16L112.6 108.74C112.14 108.69 111.67 108.67 111.2 108.67C110.73 108.67 110.26 108.7 109.8 108.74L109.19 111.16C108.65 111.26 108.12 111.4 107.61 111.58L105.87 109.79C105.01 110.17 104.2 110.64 103.44 111.19L104.13 113.59C103.72 113.95 103.33 114.33 102.98 114.74L100.58 114.05C100.03 114.8 99.5598 115.61 99.1798 116.48L100.97 118.22C100.79 118.73 100.65 119.26 100.55 119.8L98.1298 120.41C98.0798 120.87 98.0598 121.34 98.0598 121.81C98.0598 122.28 98.0898 122.75 98.1298 123.21L100.55 123.82ZM106.29 121.81C106.29 119.1 108.49 116.9 111.2 116.9C113.91 116.9 116.11 119.1 116.11 121.81C116.11 124.52 113.91 126.72 111.2 126.72C108.49 126.72 106.29 124.52 106.29 121.81Z" fill="#D1E6EC"/>
<path d="M111.21 129.64C115.534 129.64 119.04 126.134 119.04 121.81C119.04 117.486 115.534 113.98 111.21 113.98C106.885 113.98 103.38 117.486 103.38 121.81C103.38 126.134 106.885 129.64 111.21 129.64Z" stroke="white" stroke-width="1.1" stroke-miterlimit="10"/>
<path d="M124.18 138.77C126.881 138.77 129.07 136.581 129.07 133.88C129.07 131.179 126.881 128.99 124.18 128.99C121.479 128.99 119.29 131.179 119.29 133.88C119.29 136.581 121.479 138.77 124.18 138.77Z" fill="#FBAB7F"/>
<path d="M123.54 129.03C123.54 129.03 129.84 127.98 135.97 127.39C137.68 127.23 145.4 127.81 145.4 127.81C145.4 127.81 146.09 130.41 143.17 130.51C140.24 130.61 139.02 130.69 139.02 130.69L135.79 130.93C135.79 130.93 134.79 134.94 132.25 136.61C132.25 136.61 124.62 139.59 122.14 135.2C120.02 131.45 123.54 129.03 123.54 129.03Z" fill="#FBAB7F"/>
<path d="M135.45 141.48C135.39 141.95 135.53 142.4 135.8 142.75C135.94 142.92 136.1 143.07 136.3 143.18C136.4 143.24 136.5 143.28 136.61 143.32C136.66 143.34 136.72 143.35 136.78 143.37L136.87 143.39H136.88C136.79 143.37 137.01 143.44 138.45 143.67C138.82 143.71 140.24 143.86 141.71 143.87C143.17 143.9 144.69 143.72 145.15 143.61C146.55 143.38 146.81 143.25 146.86 143.24C147.31 143.1 147.67 142.8 147.83 142.42C148 142.05 147.98 141.66 147.78 141.3C147.58 140.95 147.27 140.69 146.96 140.54C146.66 140.4 146.33 140.33 146.02 140.43C145.94 140.45 145.76 140.53 144.73 140.69C144.3 140.75 143.03 140.8 141.76 140.68C140.49 140.58 139.26 140.35 138.96 140.28C137.67 140.07 137.55 140.01 137.45 139.99L137.28 139.97H137.19C137.13 139.97 137.07 139.97 137.02 139.97C136.91 139.97 136.79 140 136.69 140.03C136.47 140.09 136.28 140.19 136.1 140.33C135.75 140.6 135.51 141 135.45 141.48Z" fill="#FBAB7F"/>
<path d="M136.87 143.4L138.47 143.51C139.57 143.53 140.66 143.59 141.76 143.58C142.86 143.62 143.97 143.58 145.12 143.5C145.69 143.46 146.26 143.37 146.85 143.25C146.29 143.48 145.72 143.66 145.16 143.78C144.01 144.09 142.86 144.16 141.74 144.18C140.62 144.14 139.51 144.04 138.42 143.79C138.15 143.74 137.88 143.68 137.61 143.61L137.2 143.5L136.99 143.44C136.91 143.42 136.84 143.4 136.86 143.39L136.87 143.4Z" fill="#E26D53"/>
<path d="M135.73 138.64C135.67 139.11 135.81 139.56 136.08 139.91C136.22 140.08 136.38 140.23 136.58 140.34C136.68 140.4 136.78 140.44 136.89 140.48C136.96 140.5 137.04 140.52 137.11 140.54C137.11 140.54 137.14 140.54 137.28 140.58C137.52 140.64 137.93 140.74 138.65 140.87C139.22 140.97 141.4 141.29 143.62 141.31C145.85 141.36 148.1 141.06 148.77 140.93C150.1 140.71 150.33 140.64 150.38 140.64C151.22 140.45 151.72 139.64 151.5 138.87C151.27 138.09 150.51 137.61 149.78 137.78C149.69 137.78 149.46 137.85 148.35 138.02C147.63 138.11 145.59 138.28 143.61 138.13C141.63 138.02 139.75 137.63 139.29 137.52C138.65 137.39 138.31 137.3 138.12 137.26C137.83 137.18 137.77 137.16 137.77 137.16C137.49 137.12 137.41 137.13 137.29 137.14C137.18 137.14 137.06 137.17 136.96 137.2C136.74 137.26 136.55 137.36 136.37 137.5C136.02 137.77 135.78 138.17 135.72 138.65L135.73 138.64Z" fill="#FBAB7F"/>
<path d="M137.11 140.55C137.11 140.55 137.31 140.57 137.42 140.58L137.84 140.63L138.67 140.72C140.36 140.89 142.02 141.02 143.7 141.02C145.38 141.07 147.06 140.98 148.75 140.82C149.29 140.78 149.83 140.7 150.38 140.65C149.86 140.81 149.33 140.99 148.79 141.1C147.11 141.49 145.39 141.62 143.68 141.63C141.98 141.57 140.28 141.41 138.61 141C138.34 140.94 138.07 140.86 137.8 140.78L137.39 140.65C137.28 140.61 137.04 140.54 137.09 140.54L137.11 140.55Z" fill="#E26D53"/>
<path d="M136.18 135.5C136.04 136.44 136.79 137.31 137.62 137.41C137.52 137.39 137.79 137.45 139.19 137.66C139.86 137.74 142.4 138.03 145 138.04C147.6 138.1 150.25 137.8 151.05 137.66C152.37 137.46 152.6 137.4 152.66 137.4C153.51 137.22 154.02 136.43 153.82 135.65C153.61 134.87 152.86 134.37 152.13 134.52C152.04 134.53 151.8 134.57 150.68 134.73C149.81 134.84 147.36 135 144.96 134.85C142.56 134.74 140.25 134.37 139.68 134.27C138.34 134.06 138.27 134.03 138.16 134.01C137.1 133.88 136.32 134.56 136.18 135.5Z" fill="#FBAB7F"/>
<path d="M137.63 137.42L139.22 137.5C141.19 137.63 143.14 137.75 145.11 137.74C147.08 137.79 149.06 137.71 151.05 137.54L152.67 137.4C152.15 137.55 151.62 137.71 151.08 137.82C149.09 138.22 147.08 138.34 145.09 138.34C143.1 138.29 141.13 138.14 139.17 137.77C138.66 137.67 138.06 137.54 137.62 137.4L137.63 137.42Z" fill="#E26D53"/>
<path d="M136.58 132.35C136.52 132.82 136.66 133.27 136.93 133.62C137.07 133.79 137.23 133.94 137.43 134.05C137.53 134.11 137.63 134.15 137.74 134.19C137.81 134.21 137.89 134.23 137.96 134.25C137.96 134.25 137.99 134.25 138.13 134.29C138.37 134.35 138.78 134.45 139.5 134.58C140.13 134.69 142.52 135.04 144.96 135.06C147.4 135.1 149.85 134.79 150.59 134.68C151.9 134.48 152.13 134.44 152.19 134.43C153.02 134.26 153.55 133.49 153.37 132.7C153.19 131.91 152.43 131.39 151.68 131.54C151.59 131.56 151.35 131.59 150.22 131.75C149.41 131.83 147.14 132.01 144.94 131.86C142.74 131.74 140.65 131.34 140.15 131.21C139.51 131.08 139.17 130.99 138.98 130.95C138.69 130.87 138.63 130.85 138.63 130.85C138.35 130.81 138.27 130.82 138.15 130.83C138.04 130.83 137.92 130.86 137.82 130.89C137.6 130.95 137.41 131.05 137.23 131.19C136.88 131.46 136.64 131.86 136.58 132.34V132.35Z" fill="#FBAB7F"/>
<path d="M137.96 134.26C137.96 134.26 138.16 134.28 138.28 134.29L138.7 134.34L139.53 134.43C141.38 134.63 143.21 134.77 145.05 134.77C146.89 134.82 148.73 134.72 150.57 134.57L152.18 134.44C151.66 134.6 151.13 134.73 150.6 134.86C148.77 135.24 146.9 135.38 145.03 135.38C143.17 135.33 141.3 135.15 139.47 134.71C139.2 134.65 138.93 134.57 138.66 134.49L138.25 134.36C138.14 134.32 137.9 134.25 137.95 134.25L137.96 134.26Z" fill="#E26D53"/>
<path d="M124.79 129.02C122.11 128.69 119.67 130.59 119.34 133.27C119.06 135.5 120.34 137.57 122.33 138.39C122.73 138.55 125.09 139.55 129.77 141.29C133.65 142.73 136.95 143.5 136.95 143.5C137.89 143.62 138.75 142.95 138.87 142C138.99 141.06 140.01 132.76 140.01 132.76C140.13 131.82 139.46 130.96 138.51 130.84L124.79 129.02Z" fill="#FBAB7F"/>
<path d="M117.36 139.24C117.36 139.24 120.91 139.63 121.66 133.56C122.41 127.49 118.88 126.93 118.88 126.93L114.43 127.81L113.26 137.27L117.36 139.25V139.24Z" fill="#D33E2F"/>
<path d="M124.79 128.97L123.58 138.78L78.98 135.49L80.75 121.2L124.79 128.97Z" fill="#FBAB7F"/>
<path d="M79.8699 135.55C83.8464 135.55 87.0699 132.326 87.0699 128.35C87.0699 124.374 83.8464 121.15 79.8699 121.15C75.8935 121.15 72.6699 124.374 72.6699 128.35C72.6699 132.326 75.8935 135.55 79.8699 135.55Z" fill="#E8492D"/>
<path d="M124.18 138.87C126.936 138.87 129.17 136.636 129.17 133.88C129.17 131.124 126.936 128.89 124.18 128.89C121.424 128.89 119.19 131.124 119.19 133.88C119.19 136.636 121.424 138.87 124.18 138.87Z" fill="#FBAB7F"/>
<path d="M118.89 126.93C114.73 134.01 117.36 139.24 117.36 139.24L78.98 135.49L80.75 121.2L118.88 126.93H118.89Z" fill="#E8492D"/>
<path d="M83.6099 121.84L96.7899 124.08" stroke="#D33E2F" stroke-linecap="round" stroke-linejoin="round"/>
<path d="M149.75 133.18C152.451 133.18 154.64 130.991 154.64 128.29C154.64 125.589 152.451 123.4 149.75 123.4C147.049 123.4 144.86 125.589 144.86 128.29C144.86 130.991 147.049 133.18 149.75 133.18Z" fill="#FBAB7F"/>
<path d="M150.63 124.51C150.63 124.51 144.73 123.46 138.08 122.67C136.38 122.47 128.67 122.97 128.67 122.97C128.67 122.97 127.94 125.56 130.86 125.69C133.78 125.82 135 125.92 135 125.92L138.22 126.2C138.22 126.2 139.16 130.21 141.67 131.91C141.67 131.91 149.48 134.96 152.01 130.61C154.17 126.89 150.63 124.51 150.63 124.51Z" fill="#E26D53"/>
<path d="M138.15 134.38C138.25 135.32 137.57 136.17 136.63 136.28C136.63 136.28 136.44 136.29 135.01 136.41C134.66 136.41 133.32 136.45 131.95 136.41C130.58 136.39 129.19 136.27 128.76 136.21C127.43 136.09 127.18 136.03 127.13 136.03C126.25 135.91 125.7 135.08 125.92 134.31C126.15 133.53 126.84 133.04 127.55 133.14C127.64 133.15 127.86 133.2 128.98 133.28C129.44 133.3 130.72 133.31 131.99 133.24C133.25 133.17 134.48 133.04 134.78 133C136.12 132.89 136.26 132.86 136.26 132.86C137.2 132.76 138.05 133.44 138.16 134.38H138.15Z" fill="#E26D53"/>
<path d="M136.64 136.28L135.01 136.24C133.97 136.16 132.95 136.16 131.91 136.11L128.78 136.09L127.14 136.03C127.68 136.18 128.22 136.29 128.76 136.38C129.81 136.61 130.87 136.68 131.92 136.73C132.96 136.73 134 136.69 135.03 136.54C135.57 136.48 136.09 136.4 136.64 136.29V136.28Z" fill="#E26D53"/>
<path d="M138 132.95C138.1 133.89 137.44 134.74 136.51 134.84C136.51 134.84 136.47 134.84 136.25 134.87C136.02 134.89 135.62 134.94 134.9 135.01C134.34 135.04 132.21 135.19 130.04 135.12C127.87 135.08 125.67 134.81 125 134.67C123.68 134.48 123.45 134.4 123.4 134.4C122.56 134.23 122.05 133.42 122.26 132.65C122.48 131.87 123.23 131.39 123.96 131.54C124.05 131.54 124.28 131.62 125.4 131.77C126.12 131.87 128.16 132.01 130.16 131.95C132.16 131.91 134.09 131.69 134.57 131.62C135.23 131.55 135.6 131.5 135.8 131.48C136.02 131.45 136.06 131.44 136.06 131.44C137.03 131.33 137.89 132.01 137.99 132.95H138Z" fill="#E26D53"/>
<path d="M136.51 134.84H134.89C133.25 134.86 131.61 134.88 129.98 134.82C128.34 134.81 126.69 134.7 125.03 134.55L123.41 134.4C123.93 134.56 124.46 134.73 124.99 134.84C126.64 135.22 128.31 135.36 129.97 135.43C131.63 135.44 133.28 135.38 134.92 135.14C135.45 135.06 136.01 134.96 136.52 134.84H136.51Z" fill="#E26D53"/>
<path d="M137.71 130.37C137.84 131.31 137.08 132.17 136.25 132.26C136.35 132.24 136.08 132.31 134.66 132.48C134.01 132.54 131.52 132.76 128.97 132.6C126.42 132.49 123.85 131.9 123.09 131.63C121.78 131.24 121.56 131.11 121.5 131.11C120.67 130.77 120.31 129.88 120.69 129.17C121.07 128.45 121.88 128.11 122.54 128.38C122.63 128.4 122.83 128.5 123.88 128.8C124.65 129.04 126.94 129.43 129.22 129.44C131.5 129.48 133.71 129.19 134.25 129.1C135.57 128.92 135.64 128.88 135.75 128.87C135.89 128.85 135.93 128.85 135.99 128.85C136.05 128.85 136.11 128.85 136.16 128.85C136.27 128.86 136.38 128.88 136.49 128.91C136.7 128.97 136.9 129.08 137.07 129.22C137.41 129.5 137.65 129.9 137.7 130.37H137.71Z" fill="#E26D53"/>
<path d="M136.25 132.26L134.64 132.32C132.72 132.4 130.81 132.43 128.9 132.3C126.98 132.21 125.05 131.96 123.13 131.51C122.59 131.41 122.06 131.23 121.51 131.11C122.02 131.35 122.52 131.62 123.05 131.79C124.95 132.47 126.92 132.77 128.87 132.91C130.82 132.99 132.76 132.92 134.68 132.61C135.2 132.52 135.81 132.4 136.25 132.27V132.26Z" fill="#E26D53"/>
<path d="M137.41 127.61C137.46 128.08 137.32 128.53 137.04 128.87C136.9 129.04 136.73 129.19 136.54 129.3C136.44 129.35 136.34 129.4 136.23 129.43C136.18 129.45 136.12 129.46 136.06 129.47L135.97 129.49H135.96C135.96 129.49 135.92 129.5 135.74 129.53C135.5 129.57 135.08 129.64 134.34 129.72C133.7 129.78 131.26 129.94 128.8 129.66C126.34 129.42 123.93 128.68 123.21 128.43C121.94 127.97 121.72 127.89 121.67 127.86C120.88 127.51 120.52 126.64 120.88 125.92C121.24 125.2 122.08 124.85 122.75 125.15C122.83 125.18 123.06 125.26 124.11 125.63C124.87 125.85 127.04 126.4 129.2 126.5C131.36 126.65 133.45 126.41 133.96 126.32C134.6 126.25 134.94 126.18 135.12 126.15C135.37 126.1 135.42 126.09 135.42 126.09L135.59 126.07H135.68C135.74 126.07 135.8 126.07 135.85 126.07C135.96 126.08 136.07 126.1 136.18 126.13C136.39 126.19 136.59 126.3 136.76 126.44C137.1 126.71 137.34 127.12 137.39 127.59L137.41 127.61Z" fill="#E26D53"/>
<path d="M135.96 129.5C135.96 129.5 135.9 129.5 135.81 129.5L135.59 129.52L135.16 129.54L134.32 129.57C132.44 129.63 130.59 129.58 128.75 129.37C126.9 129.2 125.06 128.83 123.25 128.33L121.67 127.88C122.16 128.14 122.66 128.38 123.16 128.6C124.93 129.32 126.8 129.74 128.68 129.97C130.57 130.14 132.46 130.15 134.35 129.85C134.63 129.81 134.9 129.75 135.18 129.7L135.6 129.6L135.82 129.54C135.9 129.52 135.97 129.5 135.96 129.5Z" fill="#E26D53"/>
<path d="M149.22 124.45C151.9 124.15 154.31 126.09 154.6 128.76C154.89 131.43 152.96 133.85 150.29 134.14C150.29 134.14 148.96 134.57 144.6 135.42C140.55 136.21 136.66 136.38 136.66 136.38C135.72 136.48 134.87 135.8 134.77 134.86L134.01 127.97C133.91 127.03 134.59 126.18 135.53 126.07L149.24 124.44L149.22 124.45Z" fill="#E26D53"/>
<path d="M149.75 133.18C152.451 133.18 154.64 130.991 154.64 128.29C154.64 125.589 152.451 123.4 149.75 123.4C147.049 123.4 144.86 125.589 144.86 128.29C144.86 130.991 147.049 133.18 149.75 133.18Z" fill="#FBAB7F"/>
<path d="M150.63 123.51C150.63 123.51 144.73 122.46 138.08 121.67C136.38 121.47 128.67 121.97 128.67 121.97C128.67 121.97 127.94 124.56 130.86 124.69C133.78 124.82 135 124.92 135 124.92L138.22 125.2C138.22 125.2 139.16 129.21 141.67 130.91C141.67 130.91 149.48 133.96 152.01 129.61C154.17 125.89 150.63 123.51 150.63 123.51Z" fill="#FBAB7F"/>
<path d="M138.15 133.38C138.25 134.32 137.57 135.17 136.63 135.28C136.63 135.28 136.44 135.29 135.01 135.41C134.66 135.41 133.32 135.45 131.95 135.41C130.58 135.39 129.19 135.27 128.76 135.21C127.43 135.09 127.18 135.03 127.13 135.03C126.25 134.91 125.7 134.08 125.92 133.31C126.15 132.53 126.84 132.04 127.55 132.14C127.64 132.15 127.86 132.2 128.98 132.28C129.43 132.3 130.72 132.31 131.99 132.24C133.25 132.17 134.48 132.04 134.78 132C136.12 131.9 136.26 131.86 136.26 131.86C137.2 131.76 138.05 132.44 138.16 133.38H138.15Z" fill="#FBAB7F"/>
<path d="M136.64 135.28L135.01 135.24C133.97 135.16 132.95 135.16 131.91 135.11L128.78 135.09L127.14 135.03C127.68 135.18 128.22 135.29 128.76 135.38C129.81 135.61 130.87 135.68 131.92 135.73C132.96 135.73 134 135.69 135.03 135.54C135.57 135.48 136.09 135.4 136.64 135.29V135.28Z" fill="#E26D53"/>
<path d="M138 131.95C138.1 132.89 137.43 133.74 136.51 133.84C136.51 133.84 136.47 133.84 136.25 133.87C136.02 133.89 135.62 133.94 134.9 134.01C134.34 134.04 132.21 134.18 130.04 134.12C127.87 134.08 125.67 133.81 125 133.67C123.68 133.48 123.45 133.4 123.4 133.4C122.56 133.23 122.05 132.42 122.26 131.65C122.48 130.87 123.23 130.39 123.96 130.54C124.05 130.54 124.28 130.62 125.4 130.77C126.12 130.87 128.16 131.01 130.16 130.95C132.16 130.91 134.09 130.69 134.57 130.62C135.23 130.55 135.6 130.5 135.8 130.48C136.02 130.45 136.06 130.44 136.06 130.44C137.03 130.33 137.89 131.01 137.99 131.95H138Z" fill="#FBAB7F"/>
<path d="M136.51 133.84H134.89C133.25 133.86 131.61 133.88 129.98 133.82C128.34 133.81 126.69 133.7 125.03 133.55L123.41 133.4C123.93 133.57 124.46 133.73 124.99 133.84C126.64 134.22 128.31 134.36 129.97 134.43C131.63 134.44 133.28 134.38 134.92 134.14C135.45 134.06 136.01 133.96 136.52 133.84H136.51Z" fill="#E26D53"/>
<path d="M137.71 129.37C137.84 130.31 137.08 131.17 136.25 131.26C136.35 131.24 136.08 131.31 134.66 131.48C134.01 131.54 131.52 131.76 128.97 131.6C126.42 131.49 123.85 130.9 123.09 130.63C121.78 130.24 121.56 130.11 121.5 130.11C120.67 129.77 120.31 128.88 120.69 128.17C121.07 127.45 121.88 127.11 122.54 127.38C122.63 127.4 122.83 127.5 123.88 127.8C124.65 128.04 126.94 128.44 129.22 128.44C131.5 128.48 133.71 128.19 134.25 128.1C135.57 127.92 135.64 127.88 135.75 127.87C135.89 127.85 135.93 127.85 135.99 127.85C136.05 127.85 136.11 127.85 136.16 127.85C136.27 127.86 136.38 127.88 136.49 127.91C136.7 127.97 136.9 128.08 137.07 128.22C137.41 128.49 137.65 128.9 137.7 129.37H137.71Z" fill="#FBAB7F"/>
<path d="M136.25 131.26L134.64 131.32C132.72 131.4 130.81 131.43 128.9 131.3C126.98 131.21 125.05 130.96 123.13 130.51C122.59 130.41 122.06 130.23 121.51 130.11C122.01 130.35 122.52 130.62 123.05 130.79C124.95 131.47 126.92 131.77 128.87 131.91C130.82 132 132.76 131.92 134.68 131.61C135.2 131.52 135.81 131.4 136.25 131.27V131.26Z" fill="#E26D53"/>
<path d="M137.41 126.61C137.46 127.08 137.32 127.53 137.04 127.87C136.9 128.04 136.73 128.19 136.54 128.3C136.44 128.35 136.34 128.4 136.23 128.43C136.18 128.45 136.12 128.46 136.06 128.47L135.97 128.49H135.96C135.96 128.49 135.92 128.5 135.74 128.53C135.5 128.57 135.08 128.64 134.34 128.72C133.7 128.78 131.26 128.94 128.8 128.66C126.34 128.42 123.93 127.68 123.21 127.43C121.94 126.97 121.72 126.89 121.67 126.86C120.87 126.51 120.52 125.64 120.88 124.92C121.24 124.2 122.08 123.85 122.75 124.15C122.83 124.18 123.06 124.26 124.11 124.63C124.87 124.85 127.04 125.4 129.2 125.5C131.36 125.65 133.45 125.41 133.96 125.32C134.6 125.25 134.94 125.18 135.12 125.15C135.37 125.1 135.42 125.09 135.42 125.09L135.59 125.07H135.68C135.74 125.07 135.8 125.07 135.85 125.07C135.96 125.08 136.07 125.1 136.18 125.13C136.39 125.19 136.59 125.3 136.76 125.44C137.1 125.71 137.34 126.12 137.39 126.59L137.41 126.61Z" fill="#FBAB7F"/>
<path d="M135.96 128.5C135.96 128.5 135.9 128.5 135.81 128.5H135.59L135.16 128.54L134.32 128.57C132.44 128.63 130.59 128.58 128.75 128.37C126.9 128.2 125.06 127.83 123.25 127.33L121.67 126.88C122.16 127.14 122.66 127.38 123.16 127.6C124.93 128.32 126.8 128.74 128.68 128.97C130.57 129.14 132.46 129.15 134.35 128.85C134.62 128.81 134.9 128.75 135.18 128.7L135.6 128.6L135.82 128.54C135.9 128.52 135.97 128.5 135.96 128.49V128.5Z" fill="#E26D53"/>
<path d="M149.22 123.45C151.9 123.15 154.31 125.09 154.6 127.76C154.89 130.43 152.96 132.85 150.29 133.14C150.29 133.14 148.96 133.57 144.6 134.42C140.55 135.21 136.66 135.38 136.66 135.38C135.72 135.48 134.87 134.8 134.77 133.86L134.01 126.97C133.91 126.03 134.59 125.18 135.53 125.07L149.24 123.44L149.22 123.45Z" fill="#FBAB7F"/>
<path d="M156.08 134.09C156.08 134.09 150.26 134.31 149.97 128.2C149.68 122.09 155.5 121.7 155.5 121.7L159.87 122.92L160.31 132.44L156.07 134.1L156.08 134.09Z" fill="#D33E2F"/>
<path d="M149.46 123.28L149.92 133.15L182.74 133.85L182.08 119.47L149.46 123.28Z" fill="#FBAB7F"/>
<path d="M182.41 133.86C186.386 133.86 189.61 130.636 189.61 126.66C189.61 122.684 186.386 119.46 182.41 119.46C178.434 119.46 175.21 122.684 175.21 126.66C175.21 130.636 178.434 133.86 182.41 133.86Z" fill="#EA5143"/>
<path d="M149.69 133.2C152.446 133.2 154.68 130.966 154.68 128.21C154.68 125.454 152.446 123.22 149.69 123.22C146.934 123.22 144.7 125.454 144.7 128.21C144.7 130.966 146.934 133.2 149.69 133.2Z" fill="#FBAB7F"/>
<path d="M155.51 121.7C155.51 121.7 159.9 123.21 160.1 127.7C160.33 132.72 156.08 134.09 156.08 134.09L182.74 133.86L182.07 119.47L155.5 121.7H155.51Z" fill="#EA5143"/>
<path d="M179.18 119.89L165.87 121.1" stroke="#D33E2F" stroke-linecap="round" stroke-linejoin="round"/>
</g>
<defs>
<linearGradient id="paint0_linear_61_8596" x1="126.352" y1="153.199" x2="128.455" y2="-17.7635" gradientUnits="userSpaceOnUse">
<stop stop-color="#1F254B"/>
<stop offset="1" stop-color="#72C6CE"/>
</linearGradient>
<linearGradient id="paint1_linear_61_8596" x1="126.632" y1="148.454" x2="128.46" y2="-8.95606" gradientUnits="userSpaceOnUse">
<stop stop-color="#4678BE"/>
<stop offset="1" stop-color="#66E4FF"/>
</linearGradient>
<clipPath id="clip0_61_8596">
<rect width="243.73" height="175.02" fill="white"/>
</clipPath>
</defs>
</svg>
