<svg width="249" height="177" viewBox="0 0 249 177" fill="none" xmlns="http://www.w3.org/2000/svg">
<path opacity="0.26" d="M239.098 103.444L233.918 95.8138C233.918 95.8138 210.618 69.3138 209.908 39.2738C209.198 9.23381 198.848 5.24381 174.048 3.49381C153.078 2.01381 128.848 -2.38619 109.288 14.7738C100.708 22.3038 90.5681 26.1638 80.2981 25.7638L57.6781 24.8838C46.8881 24.4638 36.2481 28.7338 27.4381 37.0738C14.3681 49.4038 0.258121 72.0938 5.81812 110.514C6.75812 117.034 7.34812 123.884 7.41812 130.534L7.58812 146.874C7.73812 161.224 16.3981 172.764 27.2781 173.004L197.058 176.884C214.508 177.284 231.328 167.944 243.388 151.164C246.608 146.694 248.368 140.744 248.298 134.604C248.178 123.064 244.908 112.004 239.088 103.444H239.098Z" fill="url(#paint0_linear_61_8726)"/>
<path d="M232.388 102.684L227.508 95.6738C227.508 95.6738 205.588 71.3138 204.928 43.6938C204.268 16.0638 194.528 12.4138 171.188 10.8138C151.458 9.46381 128.668 5.43381 110.258 21.2238C102.178 28.1538 92.6381 31.7038 82.9881 31.3438L61.7081 30.5438C51.5581 30.1638 41.5481 34.1038 33.2481 41.7738C20.9581 53.1438 7.51807 74.0138 12.7381 109.354C13.6281 115.354 14.0081 121.654 14.0681 127.764L14.2281 142.784C14.3681 155.984 22.6781 166.584 32.9181 166.804L192.738 170.264C209.158 170.624 225.028 162.014 236.378 146.574C239.408 142.454 241.078 136.984 241.028 131.344C240.918 120.734 237.858 110.564 232.388 102.694V102.684Z" fill="url(#paint1_linear_61_8726)"/>
<path d="M216.258 163.974V49.4138C216.258 47.8453 214.987 46.5738 213.418 46.5738L56.0181 46.5738C54.4496 46.5738 53.1781 47.8453 53.1781 49.4138V163.974C53.1781 165.542 54.4496 166.814 56.0181 166.814H213.418C214.987 166.814 216.258 165.542 216.258 163.974Z" fill="#1D567E"/>
<path d="M60.708 58.8938V154.494C60.708 157.134 62.848 159.274 65.488 159.274H203.938C206.578 159.274 208.718 157.134 208.718 154.494V58.8938C208.718 56.4638 206.908 54.4538 204.558 54.1538C204.358 54.1238 204.148 54.1138 203.938 54.1138H65.498C65.288 54.1138 65.078 54.1238 64.878 54.1538C62.528 54.4538 60.718 56.4638 60.718 58.8938H60.708Z" fill="white"/>
<path d="M166.408 84.8538H199.378C200.888 84.8538 202.108 83.6338 202.108 82.1238C202.108 80.6138 200.888 79.3938 199.378 79.3938H166.408C164.898 79.3938 163.678 80.6138 163.678 82.1238C163.678 83.6338 164.898 84.8538 166.408 84.8538Z" fill="#D1E6EC"/>
<path d="M166.408 96.1438H199.378C200.888 96.1438 202.108 94.9238 202.108 93.4138C202.108 91.9038 200.888 90.6838 199.378 90.6838H166.408C164.898 90.6838 163.678 91.9038 163.678 93.4138C163.678 94.9238 164.898 96.1438 166.408 96.1438Z" fill="#D1E6EC"/>
<path d="M166.408 107.444H199.378C200.888 107.444 202.108 106.224 202.108 104.714C202.108 103.204 200.888 101.984 199.378 101.984H166.408C164.898 101.984 163.678 103.204 163.678 104.714C163.678 106.224 164.898 107.444 166.408 107.444Z" fill="#D1E6EC"/>
<path d="M166.408 118.734H199.378C200.888 118.734 202.108 117.514 202.108 116.004C202.108 114.494 200.888 113.274 199.378 113.274H166.408C164.898 113.274 163.678 114.494 163.678 116.004C163.678 117.514 164.898 118.734 166.408 118.734Z" fill="#D1E6EC"/>
<path d="M69.6179 112.824H102.578C104.088 112.824 105.308 111.604 105.308 110.094C105.308 108.584 104.088 107.364 102.578 107.364H69.6179C68.1079 107.364 66.8879 108.584 66.8879 110.094C66.8879 111.604 68.1079 112.824 69.6179 112.824Z" fill="#D1E6EC"/>
<path d="M69.6179 124.124H102.578C104.088 124.124 105.308 122.904 105.308 121.394C105.308 119.884 104.088 118.664 102.578 118.664H69.6179C68.1079 118.664 66.8879 119.884 66.8879 121.394C66.8879 122.904 68.1079 124.124 69.6179 124.124Z" fill="#D1E6EC"/>
<path d="M69.6179 135.414H102.578C104.088 135.414 105.308 134.194 105.308 132.684C105.308 131.174 104.088 129.954 102.578 129.954H69.6179C68.1079 129.954 66.8879 131.174 66.8879 132.684C66.8879 134.194 68.1079 135.414 69.6179 135.414Z" fill="#D1E6EC"/>
<path d="M102.588 141.244H69.6179C68.1102 141.244 66.8879 142.466 66.8879 143.974V143.984C66.8879 145.492 68.1102 146.714 69.6179 146.714H102.588C104.096 146.714 105.318 145.492 105.318 143.984V143.974C105.318 142.466 104.096 141.244 102.588 141.244Z" fill="#D1E6EC"/>
<path d="M60.708 58.8938V70.2138H208.708V58.7438C208.708 58.2838 208.648 57.8438 208.528 57.4138C208.098 55.8838 206.968 54.6738 205.498 54.1538H64.878C62.528 54.4538 60.718 56.4638 60.718 58.8938H60.708Z" fill="#D1E6EC"/>
<path d="M89.6481 60.6238H175.988C177.038 60.6238 177.988 61.3638 178.138 62.4038C178.328 63.6938 177.328 64.8238 176.068 64.8238H89.6481C88.4881 64.8238 87.5481 63.8838 87.5481 62.7238C87.5481 61.5638 88.4881 60.6238 89.6481 60.6238Z" fill="white"/>
<path d="M195.608 62.7238V64.2838C195.608 64.7338 196.088 65.0038 196.478 64.7838L197.828 64.0038L199.178 63.2238C199.568 63.0038 199.568 62.4438 199.178 62.2238L197.828 61.4438L196.478 60.6638C196.088 60.4438 195.608 60.7238 195.608 61.1638V62.7238Z" fill="#002B5C"/>
<path d="M188.598 62.7238V64.2838C188.598 64.7338 188.118 65.0038 187.728 64.7838L186.378 64.0038L185.028 63.2238C184.638 63.0038 184.638 62.4438 185.028 62.2238L186.378 61.4438L187.728 60.6638C188.118 60.4438 188.598 60.7238 188.598 61.1638V62.7238Z" fill="#002B5C"/>
<path d="M31.428 97.3238C34.4655 97.3238 36.928 94.8614 36.928 91.8238C36.928 88.7862 34.4655 86.3238 31.428 86.3238C28.3904 86.3238 25.928 88.7862 25.928 91.8238C25.928 94.8614 28.3904 97.3238 31.428 97.3238Z" fill="#FBAB7F"/>
<path d="M36.3982 89.2638C37.7882 91.9638 36.7282 95.2838 34.0282 96.6738C31.6882 97.8838 28.8882 97.2438 27.2782 95.3038C27.0282 95.0038 24.9082 93.0138 21.9782 89.1938C19.0482 85.3738 17.0582 81.7138 17.0582 81.7138C16.5682 80.7638 16.9382 79.5938 17.8882 79.1038L28.2182 73.7738C29.1682 73.2838 30.3382 73.6538 30.8282 74.6038L36.3982 89.2538V89.2638Z" fill="#FBAB7F"/>
<path d="M16.148 77.7638C15.438 78.5638 15.498 79.7838 16.298 80.5038C16.298 80.5038 16.298 80.5038 16.548 80.7338C16.618 80.7838 19.538 83.0538 19.728 83.1938C19.978 83.4138 19.988 83.4338 19.998 83.4338C20.678 84.0438 21.718 83.9838 22.328 83.3038C22.938 82.6238 22.878 81.5838 22.198 80.9738C22.178 80.9538 22.158 80.9338 21.928 80.7238C21.688 80.4738 19.198 77.8938 19.138 77.8338C18.888 77.6138 18.888 77.6038 18.888 77.6038C18.088 76.8838 16.868 76.9538 16.148 77.7538V77.7638Z" fill="#FBAB7F"/>
<path d="M19.4981 78.1538L20.5981 79.1138L21.6981 80.0738L21.9581 80.3238L22.4481 80.7838C23.2081 81.4638 23.278 82.7638 22.568 83.5338C21.8881 84.3138 20.588 84.3938 19.8281 83.7138L19.318 83.2738L19.0381 83.0438L17.968 82.0538L16.898 81.0638C16.988 81.2338 14.578 79.3238 16.148 77.7738C17.518 76.0438 19.6881 78.2438 19.5081 78.1738L19.4981 78.1538ZM16.9581 80.9738L19.4281 82.5938C19.5181 82.6238 19.5981 82.7038 19.6781 82.7838C19.7181 82.8238 19.758 82.8638 19.808 82.9038C19.898 82.9638 19.988 83.0338 20.0781 83.0938C20.738 83.5538 21.428 83.7538 22.058 83.0638C22.678 82.3638 22.3981 81.6938 21.8681 81.0938C21.7981 81.0138 21.728 80.9338 21.648 80.8438C21.608 80.8038 21.5581 80.7638 21.5081 80.7238C21.4181 80.6538 21.3281 80.5838 21.2981 80.4938L19.4281 78.2138C19.6381 78.2538 17.508 76.0838 16.138 77.7438C14.628 79.2838 17.0181 81.1738 16.9581 80.9638V80.9738Z" fill="#E26D53"/>
<path d="M18.7582 74.3238C17.9282 75.0038 17.8182 76.2238 18.4982 77.0538C18.4982 77.0538 18.4982 77.0538 18.7182 77.3138C18.7982 77.4038 22.2382 81.1538 22.4582 81.3938C22.6682 81.6538 22.6882 81.6638 22.6882 81.6738C23.2682 82.3738 24.3082 82.4738 25.0082 81.8938C25.7082 81.3138 25.8082 80.2738 25.2282 79.5738C25.2182 79.5538 25.1982 79.5338 24.9982 79.2938C24.7182 78.9138 21.7782 74.9338 21.7082 74.8438C21.4982 74.5838 21.4882 74.5838 21.4882 74.5838C20.8082 73.7538 19.5882 73.6438 18.7582 74.3238Z" fill="#FBAB7F"/>
<path d="M22.1381 75.3538L23.4381 76.8938L24.7281 78.4338L25.2481 79.0938L25.5181 79.4338C26.1681 80.2238 26.0381 81.5238 25.2281 82.1638C24.4381 82.8338 23.1381 82.7238 22.4881 81.9238L22.2081 81.5938L21.6581 80.9638L20.3981 79.3938L19.1381 77.8338C19.0281 77.8038 16.9981 75.6438 18.7681 74.3238C20.3981 72.8438 22.1481 75.2438 22.1481 75.3538H22.1381ZM19.2081 77.7638L22.1081 80.5838C22.2981 80.7038 22.4381 81.0138 22.6681 81.2038C23.2881 81.8538 23.9881 82.2638 24.7781 81.6238C25.5581 80.9638 25.2781 80.1938 24.7681 79.4738C24.6281 79.2138 24.3481 79.0138 24.2681 78.8038L22.0581 75.4138C22.0881 75.2738 20.3781 72.8938 18.7581 74.3138C17.0481 75.6338 19.0681 77.7738 19.2081 77.7638Z" fill="#E26D53"/>
<path d="M22.2778 72.5138C21.4278 73.1638 21.2578 74.3738 21.9078 75.2338C21.9078 75.2338 21.9078 75.2338 22.1178 75.5038C22.1978 75.5938 25.4478 79.4238 25.6478 79.6638C25.8478 79.9238 25.8578 79.9438 25.8678 79.9538C26.4178 80.6738 27.4478 80.8138 28.1778 80.2638C28.8978 79.7138 29.0378 78.6738 28.4878 77.9538C28.4778 77.9338 28.4578 77.9138 28.2678 77.6638C28.0078 77.2838 25.2578 73.2438 25.1978 73.1538C24.9978 72.8938 24.9878 72.8838 24.9878 72.8838C24.3378 72.0338 23.1178 71.8638 22.2678 72.5138H22.2778Z" fill="#FBAB7F"/>
<path d="M25.6079 73.6638L26.8279 75.2238L28.0479 76.7838L28.5279 77.4538L28.7879 77.8038C29.4079 78.6238 29.2279 79.9038 28.3879 80.5238C27.5679 81.1638 26.2779 81.0038 25.6579 80.1838L25.3879 79.8438L24.8679 79.2038L23.6779 77.6138L22.4879 76.0238C22.3879 76.0038 20.4379 73.7538 22.2579 72.5038C23.9379 71.0838 25.5979 73.5538 25.5879 73.6538L25.6079 73.6638ZM22.5879 75.9638L25.3479 78.8438C25.5379 78.9638 25.6579 79.2838 25.8779 79.4738C26.4679 80.1438 27.1579 80.5838 27.9779 79.9738C28.7779 79.3438 28.5379 78.5638 28.0479 77.8238C27.9179 77.5538 27.6479 77.3538 27.5779 77.1438L25.5279 73.7238C25.5779 73.6038 23.9479 71.1438 22.2779 72.5138C20.5179 73.7638 22.4579 75.9838 22.5879 75.9638Z" fill="#E26D53"/>
<path d="M26.0581 70.5638C25.1381 71.1138 24.8381 72.3038 25.3881 73.2238C25.3881 73.2238 25.3881 73.2238 25.5681 73.5138C25.6281 73.5938 28.0081 77.0638 28.1581 77.2838C28.3281 77.5738 28.3381 77.5838 28.3481 77.5938C28.8181 78.3738 29.8281 78.6238 30.6081 78.1638C31.3881 77.6938 31.6381 76.6838 31.1781 75.9038C31.1681 75.8838 31.1481 75.8538 30.9881 75.5938C30.8081 75.2438 28.9381 71.6138 28.8881 71.5238C28.7181 71.2338 28.7181 71.2338 28.7181 71.2338C28.1681 70.3138 26.9781 70.0138 26.0581 70.5638Z" fill="#FBAB7F"/>
<path d="M29.1781 71.9938L30.0481 73.4038L30.9181 74.8238L31.4681 75.8038C31.9981 76.6838 31.6681 77.9438 30.7681 78.4638C29.8881 79.0138 28.6181 78.7038 28.0981 77.8238L27.4981 76.8738L26.6681 75.4338L25.8281 73.9938C25.8081 74.0938 24.0981 71.5938 26.0481 70.5638C27.8681 69.3238 29.2781 72.0238 29.1681 71.9938H29.1781ZM25.9181 73.9438L28.0081 76.5638C28.0881 76.6238 28.1481 76.7338 28.2081 76.8538C28.2381 76.9138 28.2681 76.9738 28.3081 77.0338C28.3781 77.1238 28.4481 77.2238 28.5181 77.3138C29.0081 77.9438 29.6081 78.3438 30.4181 77.8738C31.2181 77.3838 31.1481 76.6638 30.8181 75.9338C30.7681 75.8338 30.7281 75.7238 30.6781 75.6238C30.6481 75.5638 30.6081 75.5038 30.5681 75.4538C30.4981 75.3438 30.4181 75.2438 30.4081 75.1338L29.0881 72.0538C29.2281 72.0738 27.8581 69.4038 26.0481 70.5738C24.1581 71.6038 25.8581 74.0838 25.9181 73.9538V73.9438Z" fill="#E26D53"/>
<path d="M36.4481 90.0638C36.4481 90.0638 36.2281 87.0238 34.8581 81.3838C34.6181 80.3838 33.0281 77.2038 31.7581 75.5438C30.5781 74.0038 24.7981 73.5938 24.7981 73.5938C24.7981 73.5938 23.4581 75.4638 24.5581 76.9238C25.1281 77.6838 28.6181 79.1338 28.6181 79.1338L28.3081 81.7938C28.3081 81.7938 26.9981 82.9238 26.2781 85.5038C26.2781 85.5038 24.9481 91.1338 31.1081 92.9338C35.7581 94.2938 36.4481 90.0438 36.4481 90.0438V90.0638Z" fill="#E26D53"/>
<path d="M36.788 90.4538C36.788 90.4538 37.088 86.9538 35.718 81.3138C35.478 80.3138 33.748 77.7538 32.488 76.0938C31.308 74.5538 25.218 74.0238 25.218 74.0238C25.218 74.0238 24.178 75.1838 25.268 76.6538C25.838 77.4138 29.538 78.5738 29.538 78.5738L29.168 81.7238C29.168 81.7238 27.398 83.7138 26.688 86.2938C26.688 86.2938 25.738 92.9538 31.338 93.8638C36.128 94.6438 36.788 90.4438 36.788 90.4438V90.4538Z" fill="#FBAB7F"/>
<path d="M31.428 97.3238C34.4655 97.3238 36.928 94.8614 36.928 91.8238C36.928 88.7862 34.4655 86.3238 31.428 86.3238C28.3904 86.3238 25.928 88.7862 25.928 91.8238C25.928 94.8614 28.3904 97.3238 31.428 97.3238Z" fill="#FBAB7F"/>
<path d="M36.3982 89.2638C37.7882 91.9638 36.7282 95.2838 34.0282 96.6738C31.6882 97.8838 28.8882 97.2438 27.2782 95.3038C27.0282 95.0038 24.9082 93.0138 21.9782 89.1938C19.0482 85.3738 17.0582 81.7138 17.0582 81.7138C16.5682 80.7638 16.9382 79.5938 17.8882 79.1038L28.2182 73.7738C29.1682 73.2838 30.3382 73.6538 30.8282 74.6038L36.3982 89.2538V89.2638Z" fill="#FBAB7F"/>
<path d="M17.4782 48.4938C21.4104 48.4938 24.5982 45.3061 24.5982 41.3738C24.5982 37.4415 21.4104 34.2538 17.4782 34.2538C13.5459 34.2538 10.3582 37.4415 10.3582 41.3738C10.3582 45.3061 13.5459 48.4938 17.4782 48.4938Z" fill="#EA5143"/>
<path d="M32.2481 26.2538C33.1181 26.6938 33.8381 27.3238 34.5181 28.0038C34.7381 28.2238 34.9081 28.5038 35.1081 28.7538L2.0881 56.9138C1.7881 56.5438 1.4681 56.1938 1.1981 55.8038C0.688099 55.0538 0.198099 54.2838 0.0280989 53.3638C-0.0619011 52.8738 0.0580989 52.4738 0.478099 52.1338L31.0581 26.1138C31.4581 26.1638 31.8581 26.2038 32.2581 26.2538H32.2481Z" fill="#FA5F2D"/>
<path d="M13.8482 84.2938C14.2382 84.3938 15.1882 85.0038 15.5682 85.1338L18.7682 82.8938C20.0282 82.0038 21.2982 81.1238 22.5582 80.2338C23.9882 79.2438 28.6582 75.9638 29.4082 75.4338C29.6982 75.8538 30.0082 76.2638 30.2882 76.6838C30.7482 77.3738 31.1982 78.0838 31.6682 78.7638C32.4282 79.8838 33.2082 80.9938 33.9782 82.1138C33.9982 82.1438 34.0282 82.1638 34.0582 82.1838C32.1582 83.5338 30.2682 84.8838 28.3682 86.2238C26.2182 87.7438 24.0782 89.2738 21.9282 90.7838C21.1882 91.3038 20.4582 91.8538 19.6782 92.3038C18.6582 92.8938 17.7082 92.6138 17.0382 91.6438C16.2982 90.5738 15.5282 89.5138 14.7782 88.4538C14.2582 87.7238 13.7282 87.0038 13.2382 86.2438C12.8082 85.5638 12.9182 84.9038 13.4882 84.3838C13.5782 84.3038 13.7482 84.2438 13.8482 84.2638V84.2938Z" fill="#FA5F2D"/>
<path d="M47.458 59.2838C49.118 61.2338 50.778 63.1938 52.418 65.1538C53.288 66.1838 54.218 67.1638 54.818 68.4038C55.758 70.3238 56.348 72.3038 55.988 74.4738C55.208 75.1538 54.428 75.8338 53.638 76.5038C51.768 78.1038 49.888 79.7038 48.008 81.3038C47.848 81.4338 47.678 81.5538 47.518 81.6838C46.898 81.5038 46.258 81.3838 45.668 81.1238C44.978 80.8238 44.318 80.4538 43.688 80.0538C43.128 79.6938 42.568 79.2938 42.088 78.8238C40.998 77.7538 39.948 76.6438 38.888 75.5338C38.648 75.2838 38.448 75.0138 38.228 74.7538L37.928 74.4738C37.488 73.9638 37.048 73.4638 36.618 72.9538C36.028 72.2438 35.448 71.5138 34.858 70.8038C34.478 70.3438 34.098 69.9038 33.718 69.4438C33.288 68.9238 32.868 68.4038 32.438 67.8938C32.248 67.6638 32.038 67.4438 31.838 67.2138C31.718 67.0638 31.618 66.8938 31.508 66.7338L31.488 66.7138L44.398 55.7338C45.408 56.9138 46.428 58.1038 47.438 59.2838H47.458Z" fill="#FA5F2D"/>
<path d="M31.528 66.7238C31.638 66.8838 31.738 67.0538 31.858 67.2038C32.048 67.4338 32.258 67.6538 32.458 67.8838C35.568 71.6238 38.618 75.4138 42.108 78.8238C43.118 79.8138 44.388 80.5738 45.678 81.1238C46.268 81.3738 46.908 81.5038 47.528 81.6838C46.688 82.3838 45.848 83.0838 45.008 83.7738C44.598 84.1138 44.188 84.4538 43.768 84.7938C43.508 85.0038 42.288 84.6538 41.988 84.5838C40.438 84.2138 39.238 83.4238 37.978 82.5038C37.798 82.3738 36.048 80.8238 36.078 80.8038C35.398 81.2738 34.728 81.7338 34.068 82.1938C34.038 82.1738 34.008 82.1538 33.988 82.1238C33.218 81.0138 29.708 75.8638 29.418 75.4438C29.848 75.1338 30.268 74.8138 30.728 74.4838C29.548 73.1038 28.398 71.7438 27.248 70.3838C28.678 69.1638 30.108 67.9538 31.538 66.7338L31.528 66.7238Z" fill="#EA5143"/>
<path d="M55.9981 74.4638C56.4281 76.6038 56.8681 78.7338 57.2881 80.8738C57.3081 80.9538 57.2481 81.0838 57.1881 81.1438L50.2881 87.0238C50.2081 87.0738 50.0681 87.1038 49.9781 87.0738C47.9081 86.3238 45.8481 85.5638 43.7781 84.8038C44.1881 84.4638 44.6081 84.1238 45.0181 83.7838C45.8581 83.0838 46.6981 82.3838 47.5381 81.6938C47.6981 81.5638 47.8681 81.4438 48.0281 81.3138C49.9081 79.7138 51.7781 78.1138 53.6581 76.5138C54.4481 75.8438 55.2281 75.1638 56.0081 74.4838L55.9981 74.4638Z" fill="#18315B"/>
<path d="M22.5582 80.2238C23.9882 79.2338 25.4082 78.2338 26.8382 77.2438C26.8882 77.2138 26.9182 77.1638 26.9582 77.1238C26.7882 76.8738 26.6282 76.6138 26.4382 76.3838C26.3782 76.3138 26.1982 76.2638 26.1382 76.3038C24.7482 77.2438 23.3682 78.1938 21.9782 79.1438C21.9582 79.1538 21.9482 79.1838 21.9082 79.2338C22.1182 79.5538 22.3382 79.8938 22.5682 80.2338L22.5582 80.2238Z" fill="#3B4C56"/>
<path d="M36.5981 43.5138C38.1281 47.3338 40.4781 50.7738 43.0181 53.9938C43.4781 54.5738 43.9481 55.1538 44.4081 55.7338L31.4981 66.7138L31.5181 66.7338C30.0881 67.9538 28.6581 69.1638 27.2281 70.3838C27.1681 70.3438 27.1081 70.3138 27.0581 70.2538C21.7281 64.2638 15.6881 58.5438 7.37812 57.4238C5.61812 57.1838 3.83812 57.0838 2.06812 56.9138C2.06812 56.9138 35.0781 28.7538 35.0981 28.7438C34.6181 29.1538 35.0381 39.6638 36.5781 43.5038L36.5981 43.5138Z" fill="white"/>
<path d="M16.148 77.7538C16.858 76.9538 18.088 76.8938 18.888 77.6038C18.888 77.6038 18.888 77.6038 19.138 77.8338C19.198 77.8938 21.768 80.5538 21.928 80.7238C22.178 80.9438 22.188 80.9638 22.198 80.9738C22.878 81.5838 22.928 82.6238 22.328 83.3038C21.718 83.9838 20.678 84.0338 19.998 83.4338C19.978 83.4138 19.958 83.3938 19.728 83.1938C19.458 82.9838 16.618 80.7838 16.548 80.7338C16.298 80.5138 16.298 80.5038 16.298 80.5038C15.498 79.7838 15.438 78.5638 16.148 77.7638V77.7538Z" fill="#FBAB7F"/>
<path d="M16.148 77.7538C16.898 76.9438 17.668 76.9638 18.408 77.3238C18.588 77.4138 18.768 77.5238 18.948 77.6538L19.258 77.8738C19.358 77.9538 19.438 78.0538 19.508 78.1438L20.608 79.1038L21.708 80.0638L21.968 80.3138L22.458 80.7738C23.218 81.4538 23.288 82.7538 22.578 83.5238C21.898 84.3138 20.598 84.3838 19.838 83.7038L19.328 83.2638L19.048 83.0338L17.978 82.0438L16.908 81.0538C16.808 80.9938 16.698 80.9238 16.608 80.8338L16.358 80.5538C16.218 80.3938 16.078 80.2238 15.968 80.0538C15.528 79.3638 15.418 78.5938 16.148 77.7638V77.7538ZM16.148 77.7538C14.638 79.3038 17.028 81.1838 16.968 80.9738L19.438 82.5938C19.528 82.6238 19.608 82.7038 19.688 82.7838C19.728 82.8238 19.768 82.8638 19.818 82.9038C19.908 82.9638 19.998 83.0338 20.088 83.0938C20.748 83.5538 21.438 83.7638 22.068 83.0738C22.688 82.3738 22.408 81.7038 21.878 81.1038C21.808 81.0238 21.728 80.9438 21.658 80.8538C21.618 80.8138 21.568 80.7738 21.518 80.7338C21.428 80.6638 21.338 80.5938 21.298 80.5038L19.428 78.2238C19.638 78.2638 17.508 76.0838 16.138 77.7538H16.148Z" fill="#E26D53"/>
<path d="M18.7682 74.3238C19.5982 73.6438 20.8181 73.7638 21.4981 74.5838C21.4981 74.5838 21.4981 74.5838 21.7181 74.8438C21.7881 74.9438 24.8182 79.0338 25.0082 79.2938C25.2182 79.5538 25.2281 79.5638 25.2381 79.5738C25.8181 80.2738 25.7182 81.3138 25.0182 81.8938C24.3182 82.4738 23.2782 82.3738 22.6982 81.6738C22.6882 81.6538 22.6681 81.6338 22.4681 81.3938C22.1481 81.0438 18.8081 77.3938 18.7281 77.3138C18.5181 77.0538 18.5082 77.0538 18.5082 77.0538C17.8282 76.2238 17.9482 75.0038 18.7682 74.3238Z" fill="#FBAB7F"/>
<path d="M18.7681 74.3238C20.3981 72.8438 22.1381 75.2438 22.1481 75.3538L23.4381 76.8938L24.7381 78.4338L25.2581 79.0938L25.5281 79.4338C26.1781 80.2238 26.0481 81.5138 25.2381 82.1638C24.4481 82.8438 23.1481 82.7238 22.4981 81.9238L22.2181 81.5938L21.6681 80.9638L20.4081 79.4038L19.1481 77.8338C19.0381 77.8138 17.0081 75.6338 18.7781 74.3238H18.7681ZM18.7681 74.3238C17.0581 75.6438 19.0781 77.7738 19.2181 77.7738L22.1181 80.5938C22.3081 80.7138 22.4481 81.0238 22.6781 81.2138C23.2981 81.8538 23.9981 82.2738 24.7881 81.6338C25.5681 80.9838 25.2881 80.2138 24.7781 79.4838C24.6381 79.2238 24.3581 79.0238 24.2781 78.8138L22.0581 75.4238C22.0981 75.2838 20.3781 72.9038 18.7581 74.3238H18.7681Z" fill="#E26D53"/>
<path d="M22.2781 72.5138C23.1281 71.8638 24.3481 72.0338 24.9981 72.8838C24.9981 72.8838 24.9981 72.8838 25.2081 73.1538C25.2781 73.2538 28.1081 77.4038 28.2781 77.6638C28.4781 77.9238 28.4881 77.9438 28.4981 77.9538C29.0481 78.6738 28.9081 79.7138 28.1881 80.2638C27.4681 80.8138 26.4281 80.6738 25.8781 79.9538C25.8681 79.9338 25.8481 79.9138 25.6581 79.6638C25.3581 79.3138 22.1981 75.5938 22.1281 75.5038C21.9281 75.2438 21.9181 75.2338 21.9181 75.2338C21.2681 74.3838 21.4281 73.1638 22.2881 72.5138H22.2781Z" fill="#FBAB7F"/>
<path d="M22.2782 72.5138C23.9682 71.0938 25.6182 73.5638 25.6082 73.6638L26.8282 75.2338L28.0482 76.7938L28.5282 77.4638L28.7882 77.8138C29.4082 78.6338 29.2282 79.9138 28.3982 80.5338C27.5782 81.1738 26.2882 81.0138 25.6682 80.1938L25.3982 79.8538L24.8782 79.2138L23.6882 77.6238L22.5082 76.0338C22.4082 76.0138 20.4582 73.7638 22.2782 72.5138ZM22.2782 72.5138C20.5182 73.7638 22.4582 75.9838 22.5882 75.9738L25.3482 78.8538C25.5382 78.9738 25.6582 79.2938 25.8782 79.4838C26.4682 80.1538 27.1582 80.5938 27.9782 79.9838C28.7782 79.3638 28.5382 78.5838 28.0482 77.8338C27.9182 77.5638 27.6482 77.3638 27.5782 77.1538L25.5282 73.7338C25.5782 73.6138 23.9482 71.1538 22.2782 72.5238V72.5138Z" fill="#E26D53"/>
<path d="M26.0581 70.5638C26.9781 70.0138 28.1681 70.3138 28.7181 71.2338C28.7181 71.2338 28.7181 71.2338 28.8881 71.5238C28.9381 71.6138 30.8581 75.3538 30.9881 75.5938C31.1581 75.8838 31.1681 75.8938 31.1781 75.9038C31.6481 76.6838 31.3881 77.6938 30.6081 78.1638C29.8281 78.6338 28.8181 78.3738 28.3481 77.5938C28.3381 77.5738 28.3181 77.5438 28.1581 77.2838C27.9381 76.9638 25.6181 73.5938 25.5681 73.5138C25.3981 73.2238 25.3981 73.2238 25.3981 73.2238C24.8481 72.3038 25.1481 71.1138 26.0681 70.5638H26.0581Z" fill="#FBAB7F"/>
<path d="M26.0581 70.5638C27.0081 70.0138 27.7481 70.2638 28.3381 70.8238C28.4881 70.9638 28.6281 71.1238 28.7581 71.2938C28.8381 71.3938 28.9181 71.5038 28.9981 71.6138C29.0781 71.7338 29.1281 71.8738 29.1881 71.9938L30.0581 73.4138L30.9281 74.8238L31.4781 75.8038C32.0081 76.6838 31.6781 77.9438 30.7781 78.4638C29.8981 79.0138 28.6281 78.7038 28.1081 77.8238L27.5081 76.8738L26.6681 75.4338L25.8381 73.9938C25.8181 74.1038 24.1081 71.5838 26.0581 70.5638ZM26.0581 70.5638C24.1681 71.6038 25.8681 74.0738 25.9281 73.9438L28.0181 76.5638C28.0981 76.6238 28.1581 76.7338 28.2181 76.8538C28.2481 76.9138 28.2781 76.9738 28.3181 77.0338C28.3881 77.1238 28.4581 77.2238 28.5281 77.3138C29.0181 77.9438 29.6181 78.3438 30.4281 77.8738C31.2281 77.3838 31.1581 76.6638 30.8281 75.9338C30.7781 75.8338 30.7281 75.7238 30.6881 75.6138C30.6581 75.5538 30.6181 75.4938 30.5781 75.4438C30.5081 75.3338 30.4281 75.2338 30.4181 75.1238L29.0981 72.0438C29.2381 72.0638 27.8681 69.3838 26.0581 70.5638Z" fill="#E26D53"/>
<path d="M36.4481 90.0638C36.4481 90.0638 36.2281 87.0238 34.8581 81.3838C34.6181 80.3838 33.0281 77.2038 31.7581 75.5438C30.5781 74.0038 24.7981 73.5938 24.7981 73.5938C24.7981 73.5938 23.4581 75.4638 24.5581 76.9238C25.1281 77.6838 28.6181 79.1338 28.6181 79.1338L28.3081 81.7938C28.3081 81.7938 26.9981 82.9238 26.2781 85.5038C26.2781 85.5038 24.9481 91.1338 31.1081 92.9338C35.7581 94.2938 36.4481 90.0438 36.4481 90.0438V90.0638Z" fill="#E26D53"/>
<path d="M36.788 90.4538C36.788 90.4538 37.088 86.9538 35.718 81.3138C35.478 80.3138 33.748 77.7538 32.488 76.0938C31.308 74.5538 25.218 74.0238 25.218 74.0238C25.218 74.0238 24.178 75.1838 25.268 76.6538C25.838 77.4138 29.538 78.5738 29.538 78.5738L29.168 81.7238C29.168 81.7238 27.398 83.7138 26.688 86.2938C26.688 86.2938 25.738 92.9538 31.338 93.8638C36.128 94.6438 36.788 90.4438 36.788 90.4438V90.4538Z" fill="#FBAB7F"/>
<path d="M182.618 159.264C177.798 137.804 168.938 116.334 167.748 108.854C166.518 101.104 168.198 84.5638 172.918 81.5738C176.238 83.3338 178.578 87.8438 179.978 91.3338C183.788 100.814 191.358 118.784 196.198 139.574C197.738 146.194 199.058 152.184 200.178 159.274H182.618V159.264Z" fill="#0172D0"/>
<path d="M98.8081 159.264C98.8381 157.344 98.8781 155.414 98.9181 153.484C99.5881 119.804 100.878 85.6138 103.198 82.1938C105.408 78.9438 112.008 74.8238 118.368 71.0938C119.168 70.6238 119.958 70.1638 120.738 69.7138C120.928 69.6038 121.118 69.4938 121.308 69.3838C122.008 68.9738 122.698 68.5738 123.378 68.1838C126.428 66.4138 129.068 64.8438 130.668 63.6338V64.5638C130.668 64.5638 134.118 69.4638 138.008 69.1038C141.548 68.7738 143.488 64.3938 143.948 63.6038C145.368 64.6738 147.818 66.0938 150.718 67.7138C151.408 68.0938 152.118 68.4938 152.848 68.8938C153.078 69.0138 153.308 69.1438 153.538 69.2738C153.718 69.3738 153.898 69.4738 154.068 69.5638C161.958 73.8938 171.468 79.1038 174.018 82.8738C176.028 85.8338 177.048 111.764 177.548 140.434C177.588 142.784 177.628 145.154 177.658 147.534C177.678 148.864 177.698 150.184 177.708 151.504C177.738 154.094 177.768 156.684 177.788 159.264H98.8081Z" fill="#0172D0"/>
<path d="M162.738 84.8538C162.738 84.8538 176.298 69.0438 166.868 57.8438C157.438 46.6438 134.988 47.6538 127.608 48.7938C120.218 49.9438 98.5881 62.8038 114.058 81.0538C129.528 99.3038 162.738 84.8638 162.738 84.8638V84.8538Z" fill="#0172D0"/>
<path d="M159.998 145.454C153.678 150.404 145.178 154.694 133.978 156.264C133.548 156.324 133.158 155.984 133.168 155.544C133.168 155.544 133.168 155.544 133.168 155.534C133.168 155.184 133.438 154.894 133.778 154.854C144.698 153.324 152.968 149.144 159.118 144.324C159.578 143.964 160.248 144.294 160.258 144.874C160.258 144.874 160.258 144.884 160.258 144.894C160.258 145.114 160.168 145.334 159.988 145.464L159.998 145.454Z" fill="#0056C5"/>
<path d="M157.058 136.354V136.384C157.058 136.504 157.028 136.614 156.968 136.714C156.598 137.354 156.188 138.014 155.708 138.694C153.088 142.434 148.128 147.384 139.398 149.744C139.338 149.764 139.288 149.764 139.228 149.764C138.938 149.764 138.678 149.574 138.598 149.284C138.508 148.944 138.708 148.584 139.058 148.484C148.448 145.944 153.378 140.274 155.838 136.024C156.178 135.444 157.058 135.684 157.058 136.354Z" fill="#0056C5"/>
<path d="M128.788 81.0838C131.678 83.9238 136.568 87.9938 143.218 90.8938C143.458 90.9938 143.618 91.2338 143.618 91.4938C143.618 91.9638 143.138 92.2938 142.698 92.1038C139.018 90.5038 135.938 88.6038 133.558 86.8738C131.188 85.1438 129.278 83.4438 127.848 82.0238C127.718 81.9038 127.658 81.7338 127.658 81.5538C127.658 80.9638 128.368 80.6738 128.788 81.0838Z" fill="#0056C5"/>
<path d="M147.678 141.684C147.988 141.684 148.248 141.434 148.248 141.124C148.858 113.584 148.248 85.6938 148.248 85.4138C148.248 85.1038 147.988 84.8538 147.678 84.8538H147.668C147.348 84.8538 147.098 85.1238 147.108 85.4438C147.108 85.7238 147.718 113.594 147.108 141.104C147.108 141.424 147.348 141.684 147.668 141.694H147.678V141.684Z" fill="white"/>
<path d="M126.028 141.684H126.038C126.358 141.684 126.608 141.414 126.598 141.094C125.988 113.584 126.598 85.7138 126.598 85.4338C126.598 85.1138 126.358 84.8538 126.038 84.8438H126.028C125.718 84.8438 125.458 85.0938 125.458 85.4038C125.458 85.6838 124.848 113.574 125.458 141.114C125.458 141.424 125.718 141.674 126.028 141.674V141.684Z" fill="white"/>
<path d="M117.188 29.5938C117.188 41.6738 124.618 49.9938 136.698 49.9938C148.778 49.9938 157.188 41.0438 157.188 28.9738C157.188 16.8938 150.038 7.75381 137.958 7.75381C123.478 7.75381 117.188 17.5238 117.188 29.6038V29.5938Z" fill="#18315B"/>
<path d="M155.608 37.5338C155.608 37.5338 160.068 36.3238 161.598 31.0638C163.128 25.8038 159.578 28.4738 158.968 23.8938C158.358 19.3138 163.488 15.9038 158.968 13.6938C154.448 11.4838 157.178 6.71381 153.188 4.23381C149.198 1.75381 143.368 6.33381 139.558 2.51381C135.748 -1.29619 128.018 -0.346191 125.828 2.51381C123.638 5.37381 122.678 4.68381 118.568 5.44381C114.458 6.20381 112.558 12.8838 114.558 15.9638C116.558 19.0438 115.168 21.1138 113.248 23.0238C111.328 24.9338 112.668 38.0338 119.248 36.2038C125.828 34.3738 155.618 37.5238 155.618 37.5238L155.608 37.5338Z" fill="#18315B"/>
<path d="M119.898 34.7938C119.898 34.7938 116.548 30.3238 114.048 34.0238C111.558 37.7238 115.078 48.6438 121.188 45.9838L119.898 34.8038V34.7938Z" fill="#FFA681"/>
<path d="M119.858 42.6038C119.628 42.6038 119.428 42.4538 119.358 42.2238C118.408 38.8538 114.918 37.4838 114.878 37.4738C114.608 37.3738 114.478 37.0738 114.578 36.8038C114.678 36.5338 114.978 36.4038 115.238 36.5038C115.398 36.5638 119.248 38.0638 120.338 41.9438C120.418 42.2138 120.258 42.5038 119.978 42.5838C119.928 42.5938 119.888 42.6038 119.838 42.6038H119.858Z" fill="#E26D53"/>
<path d="M116.328 40.9038C116.228 40.9038 116.138 40.8738 116.048 40.8238C115.808 40.6738 115.738 40.3538 115.898 40.1138C115.928 40.0738 116.538 39.1338 117.838 38.5538C118.098 38.4338 118.408 38.5538 118.518 38.8138C118.638 39.0738 118.518 39.3838 118.258 39.4938C117.258 39.9438 116.768 40.6638 116.768 40.6738C116.668 40.8238 116.508 40.9138 116.338 40.9138L116.328 40.9038Z" fill="#E26D53"/>
<path d="M154.478 34.7938C154.478 34.7938 157.828 30.3238 160.328 34.0238C162.818 37.7238 159.298 48.6438 153.188 45.9838L154.478 34.8038V34.7938Z" fill="#FFA681"/>
<path d="M154.518 42.6038C154.748 42.6038 154.948 42.4538 155.018 42.2238C155.968 38.8538 159.458 37.4838 159.498 37.4738C159.768 37.3738 159.898 37.0738 159.798 36.8038C159.698 36.5338 159.398 36.4038 159.138 36.5038C158.978 36.5638 155.128 38.0638 154.038 41.9438C153.958 42.2138 154.118 42.5038 154.398 42.5838C154.448 42.5938 154.488 42.6038 154.538 42.6038H154.518Z" fill="#E26D53"/>
<path d="M158.048 40.9038C158.148 40.9038 158.238 40.8738 158.328 40.8238C158.568 40.6738 158.638 40.3538 158.478 40.1138C158.448 40.0738 157.838 39.1338 156.538 38.5538C156.278 38.4338 155.968 38.5538 155.858 38.8138C155.738 39.0738 155.858 39.3838 156.118 39.4938C157.118 39.9438 157.608 40.6638 157.608 40.6738C157.708 40.8238 157.868 40.9138 158.038 40.9138L158.048 40.9038Z" fill="#E26D53"/>
<path d="M145.448 55.2438V66.1038C145.448 66.1038 142.208 71.6338 137.828 72.0138C133.448 72.3938 129.558 67.2538 129.558 67.2538V56.0038L145.448 55.2438Z" fill="#FFA681"/>
<path d="M145.448 55.2438V60.0638C142.508 63.3238 137.288 64.1438 129.558 63.0038V56.0138L145.448 55.2538V55.2438Z" fill="#E26D53"/>
<path d="M118.108 34.4538C118.268 36.7538 118.548 39.1838 118.988 41.6038C120.448 49.6138 123.728 57.4838 130.798 60.0138C146.808 65.7338 152.528 52.0038 154.818 43.9938C155.068 43.1038 155.298 42.1138 155.498 41.0638C155.858 39.1538 156.148 37.0238 156.368 34.8838C156.628 32.2838 156.808 29.6538 156.908 27.3438C157.148 22.4738 154.228 18.0038 149.668 16.2438C143.108 13.7238 133.128 11.7238 123.678 17.0838C120.188 19.0538 117.998 22.7238 117.918 26.7338C117.878 28.9138 117.908 31.5738 118.108 34.4438V34.4538Z" fill="#FFA681"/>
<path d="M130.318 36.2138C130.318 37.3738 129.718 38.3138 128.988 38.3138C128.258 38.3138 127.648 37.3738 127.648 36.2138C127.648 35.0538 128.248 34.1138 128.988 34.1138C129.728 34.1138 130.318 35.0538 130.318 36.2138Z" fill="#18315B"/>
<path d="M146.058 36.1738C146.058 37.3338 145.458 38.2738 144.718 38.2738C143.978 38.2738 143.378 37.3338 143.378 36.1738C143.378 35.0138 143.978 34.0738 144.718 34.0738C145.458 34.0738 146.058 35.0138 146.058 36.1738Z" fill="#18315B"/>
<path d="M123.688 30.2838C123.688 30.2838 128.798 28.2638 132.738 29.9638L132.348 32.1538C132.348 32.1538 126.568 31.6638 123.658 32.8438C123.398 32.0038 123.358 31.1438 123.688 30.2838Z" fill="#18315B"/>
<path d="M149.128 30.2838C149.128 30.2838 144.018 28.2638 140.078 29.9638L140.468 32.1538C140.468 32.1538 146.248 31.6638 149.158 32.8438C149.418 32.0038 149.458 31.1438 149.128 30.2838Z" fill="#18315B"/>
<path d="M137.368 44.3438C138.238 44.3438 139.098 44.0038 139.238 43.9538C139.498 43.8438 139.628 43.5438 139.518 43.2838C139.408 43.0238 139.108 42.8938 138.848 43.0038C138.378 43.1938 137.258 43.4938 136.778 43.2038C136.688 43.1438 136.558 43.0338 136.528 42.7238C136.338 40.9238 136.838 34.8838 136.838 34.8238C136.858 34.5438 136.648 34.2938 136.368 34.2638C136.078 34.2438 135.838 34.4538 135.808 34.7338C135.788 34.9838 135.298 40.9338 135.498 42.8338C135.568 43.5438 135.948 43.9138 136.248 44.0938C136.578 44.2938 136.978 44.3638 137.368 44.3638V44.3438Z" fill="#E26D53"/>
<path d="M130.318 48.1238C130.738 50.2438 132.138 54.1538 136.868 54.1538C141.598 54.1538 142.928 50.5838 143.388 48.1238H130.318Z" fill="white"/>
<path d="M156.358 34.8838H154.018C154.278 32.5338 154.648 28.4038 152.718 27.8038C146.618 25.9338 154.518 21.6238 151.768 19.4738C149.018 17.3238 142.168 18.2438 137.408 18.0938C132.618 17.9438 124.918 18.0038 123.048 18.4438C121.178 18.8738 122.198 21.9838 122.888 24.3938C123.578 26.8038 120.588 29.4638 120.088 31.9538C119.948 32.6738 119.978 33.7338 120.088 34.8838H118.138C117.908 31.8538 117.868 29.0238 117.918 26.7338C117.998 22.7238 120.188 19.0638 123.678 17.0838C133.128 11.7238 143.098 13.7238 149.668 16.2438C154.228 17.9938 157.138 22.4638 156.908 27.3338C156.798 29.6438 156.628 32.2738 156.358 34.8738V34.8838Z" fill="#18315B"/>
<path d="M102.588 84.8538C102.588 84.8538 74.2281 108.314 63.4481 118.124C63.4481 118.124 55.6281 113.174 49.3981 105.654C42.2981 97.0738 40.0481 94.7738 37.1881 91.2438L27.8381 96.1138C27.8381 96.1138 48.4581 138.424 63.5181 135.814C78.3981 133.244 102.978 108.134 102.978 108.134L102.588 84.8538Z" fill="#0172D0"/>
<defs>
<linearGradient id="paint0_linear_61_8726" x1="106.161" y1="155.885" x2="104.058" y2="-15.0771" gradientUnits="userSpaceOnUse">
<stop stop-color="#1F254B"/>
<stop offset="1" stop-color="#72C6CE"/>
</linearGradient>
<linearGradient id="paint1_linear_61_8726" x1="105.876" y1="150.935" x2="104.048" y2="-6.47535" gradientUnits="userSpaceOnUse">
<stop stop-color="#4678BE"/>
<stop offset="1" stop-color="#66E4FF"/>
</linearGradient>
</defs>
</svg>
