<svg width="244" height="182" viewBox="0 0 244 182" fill="none" xmlns="http://www.w3.org/2000/svg">
<g clip-path="url(#clip0_61_8830)">
<path opacity="0.26" d="M9.21002 107.49L14.39 99.86C14.39 99.86 37.69 73.36 38.4 43.32C39.11 13.28 49.46 9.29 74.26 7.54C95.23 6.06 119.46 1.66 139.02 18.82C147.6 26.35 157.74 30.21 168.01 29.81L190.63 28.93C201.42 28.51 212.06 32.78 220.87 41.12C233.93 53.47 248.04 76.16 242.48 114.58C241.54 121.1 240.95 127.95 240.88 134.6L240.71 150.94C240.56 165.29 231.9 176.83 221.02 177.07L51.24 180.95C33.79 181.35 16.97 172.01 4.91002 155.23C1.70002 150.73 -0.0599797 144.79 2.03341e-05 138.65C0.12002 127.11 3.39002 116.05 9.21002 107.49Z" fill="url(#paint0_linear_61_8830)"/>
<path d="M15.92 106.73L20.8 99.72C20.8 99.72 42.72 75.36 43.38 47.74C44.04 20.11 53.78 16.46 77.12 14.86C96.85 13.51 119.64 9.48 138.05 25.27C146.13 32.2 155.67 35.75 165.32 35.39L186.6 34.59C196.75 34.21 206.76 38.15 215.06 45.82C227.35 57.19 240.79 78.06 235.57 113.4C234.68 119.4 234.3 125.7 234.24 131.81L234.08 146.83C233.94 160.03 225.63 170.63 215.39 170.85L55.57 174.31C39.15 174.67 23.28 166.06 11.93 150.62C8.90002 146.5 7.23002 141.03 7.28002 135.39C7.39002 124.78 10.45 114.61 15.92 106.74V106.73Z" fill="url(#paint1_linear_61_8830)"/>
<path d="M181.12 18.66H72.9201C71.3516 18.66 70.0801 19.9315 70.0801 21.5V170.28C70.0801 171.848 71.3516 173.12 72.9201 173.12H181.12C182.689 173.12 183.96 171.848 183.96 170.28V21.5C183.96 19.9315 182.689 18.66 181.12 18.66Z" fill="#1D567E"/>
<path d="M176.82 30.17V161.6C176.82 162.47 176.56 163.28 176.12 163.96C175.34 165.17 173.99 165.97 172.44 165.97H81.6001C79.1801 165.97 77.2301 164.01 77.2301 161.6V30.17C77.2301 27.76 79.1901 25.79 81.6001 25.79H172.45C174.86 25.79 176.82 27.75 176.82 30.17Z" fill="white"/>
<path d="M111.9 54.86H83.4501C82.1501 54.86 81.0901 53.8 81.0901 52.5C81.0901 51.2 82.1501 50.14 83.4501 50.14H111.9C113.2 50.14 114.26 51.2 114.26 52.5C114.26 53.8 113.2 54.86 111.9 54.86Z" fill="#D1E6EC"/>
<path d="M111.9 64.61H83.4501C82.1501 64.61 81.0901 63.55 81.0901 62.25C81.0901 60.95 82.1501 59.89 83.4501 59.89H111.9C113.2 59.89 114.26 60.95 114.26 62.25C114.26 63.55 113.2 64.61 111.9 64.61Z" fill="#D1E6EC"/>
<path d="M111.9 74.35H83.4501C82.1501 74.35 81.0901 73.29 81.0901 71.99C81.0901 70.69 82.1501 69.63 83.4501 69.63H111.9C113.2 69.63 114.26 70.69 114.26 71.99C114.26 73.29 113.2 74.35 111.9 74.35Z" fill="#D1E6EC"/>
<path d="M111.9 84.1H83.4501C82.1501 84.1 81.0901 83.04 81.0901 81.74C81.0901 80.44 82.1501 79.38 83.4501 79.38H111.9C113.2 79.38 114.26 80.44 114.26 81.74C114.26 83.04 113.2 84.1 111.9 84.1Z" fill="#D1E6EC"/>
<path d="M170.88 79H142.43C141.13 79 140.07 77.94 140.07 76.64C140.07 75.34 141.13 74.28 142.43 74.28H170.88C172.18 74.28 173.24 75.34 173.24 76.64C173.24 77.94 172.18 79 170.88 79Z" fill="#D1E6EC"/>
<path d="M170.89 84.03H142.44C141.137 84.03 140.08 85.0866 140.08 86.39C140.08 87.6934 141.137 88.75 142.44 88.75H170.89C172.193 88.75 173.25 87.6934 173.25 86.39C173.25 85.0866 172.193 84.03 170.89 84.03Z" fill="#D1E6EC"/>
<path d="M170.88 98.49H142.43C141.13 98.49 140.07 97.43 140.07 96.13C140.07 94.83 141.13 93.77 142.43 93.77H170.88C172.18 93.77 173.24 94.83 173.24 96.13C173.24 97.43 172.18 98.49 170.88 98.49Z" fill="#D1E6EC"/>
<path d="M170.88 108.24H142.43C141.13 108.24 140.07 107.18 140.07 105.88C140.07 104.58 141.13 103.52 142.43 103.52H170.88C172.18 103.52 173.24 104.58 173.24 105.88C173.24 107.18 172.18 108.24 170.88 108.24Z" fill="#D1E6EC"/>
<path d="M176.82 30.17V40.44H77.2201V30.17C77.2201 27.75 79.1801 25.79 81.5901 25.79H172.44C174.86 25.79 176.81 27.75 176.81 30.17H176.82Z" fill="#D1E6EC"/>
<path d="M164.32 31.67H107.16C106.2 31.67 105.33 32.35 105.19 33.3C105.01 34.48 105.94 35.51 107.09 35.51H164.32C165.38 35.51 166.24 34.65 166.24 33.59C166.24 32.53 165.38 31.67 164.32 31.67Z" fill="white"/>
<path d="M87.4801 33.59V35.01C87.4801 35.42 87.0401 35.67 86.6801 35.47L85.4501 34.76L84.2201 34.05C83.8701 33.85 83.8701 33.34 84.2201 33.13L85.4501 32.42L86.6801 31.71C87.0301 31.51 87.4801 31.76 87.4801 32.17V33.59Z" fill="#002B5C"/>
<path d="M93.8901 33.59V35.01C93.8901 35.42 94.3301 35.67 94.6801 35.47L95.9101 34.76L97.1401 34.05C97.4901 33.85 97.4901 33.34 97.1401 33.13L95.9101 32.42L94.6801 31.71C94.3301 31.51 93.8801 31.76 93.8801 32.17V33.59H93.8901Z" fill="#002B5C"/>
<path d="M159.41 91.06C164.557 91.06 168.73 86.8873 168.73 81.74C168.73 76.5927 164.557 72.42 159.41 72.42C154.263 72.42 150.09 76.5927 150.09 81.74C150.09 86.8873 154.263 91.06 159.41 91.06Z" fill="#0056C5"/>
<path d="M172.66 136.77C176.775 136.77 180.11 133.435 180.11 129.32C180.11 125.205 176.775 121.87 172.66 121.87C168.546 121.87 165.21 125.205 165.21 129.32C165.21 133.435 168.546 136.77 172.66 136.77Z" fill="#0056C5"/>
<path d="M165.48 131.32L179.84 127.31C173.07 93.68 168.38 79.23 168.38 79.23L150.43 84.24C150.43 84.24 154.54 102.03 165.48 131.31V131.32Z" fill="#0056C5"/>
<path d="M106.3 18.03C106.3 18.03 104.94 9.75 106.96 6.93C108.97 4.11 112.25 4.96 115.76 1.71C119.27 -1.53 129.94 1.57 134.61 0.72C137.18 0.25 139.92 0.6 142.43 0.0900002C146.03 -0.64 147.95 2.94 147.09 6.46C146.54 8.7 145.41 12.06 142.17 12.94C142.17 12.94 111.11 7.28 106.3 18.03Z" fill="#18315B"/>
<path d="M105.59 24.65C105.59 36.65 112.98 44.92 124.97 44.92C136.96 44.92 145.33 36.03 145.33 24.03C145.33 12.03 138.23 2.94 126.23 2.94C111.84 2.94 105.59 12.65 105.59 24.65Z" fill="#18315B"/>
<path d="M108.29 29.82C108.29 29.82 104.96 25.38 102.48 29.05C100 32.73 103.51 43.58 109.57 40.93L108.29 29.82Z" fill="#FFA681"/>
<path d="M108.24 37.57C108.02 37.57 107.81 37.42 107.75 37.2C106.81 33.85 103.34 32.49 103.3 32.48C103.04 32.38 102.9 32.08 103 31.82C103.1 31.56 103.4 31.42 103.66 31.52C103.82 31.58 107.65 33.07 108.73 36.93C108.81 37.2 108.65 37.49 108.37 37.56C108.32 37.57 108.28 37.58 108.23 37.58L108.24 37.57Z" fill="#E26D53"/>
<path d="M104.74 35.89C104.65 35.89 104.55 35.86 104.46 35.81C104.22 35.66 104.15 35.34 104.31 35.1C104.34 35.06 104.95 34.12 106.23 33.55C106.49 33.43 106.79 33.55 106.91 33.81C107.03 34.07 106.91 34.37 106.65 34.49C105.66 34.93 105.17 35.65 105.17 35.66C105.07 35.81 104.91 35.9 104.74 35.9V35.89Z" fill="#E26D53"/>
<path d="M142.64 29.82C142.64 29.82 145.97 25.38 148.45 29.05C150.93 32.73 147.42 43.58 141.36 40.93L142.64 29.82Z" fill="#FFA681"/>
<path d="M142.68 37.57C142.9 37.57 143.11 37.42 143.17 37.2C144.11 33.85 147.58 32.49 147.62 32.48C147.88 32.38 148.02 32.08 147.92 31.82C147.82 31.56 147.52 31.42 147.26 31.52C147.1 31.58 143.27 33.07 142.19 36.93C142.11 37.2 142.27 37.49 142.55 37.56C142.6 37.57 142.64 37.58 142.69 37.58L142.68 37.57Z" fill="#E26D53"/>
<path d="M146.19 35.89C146.28 35.89 146.38 35.86 146.47 35.81C146.71 35.66 146.78 35.34 146.62 35.1C146.59 35.06 145.98 34.12 144.7 33.55C144.44 33.43 144.14 33.55 144.02 33.81C143.9 34.07 144.02 34.37 144.28 34.49C145.27 34.93 145.76 35.65 145.76 35.66C145.86 35.81 146.02 35.9 146.19 35.9V35.89Z" fill="#E26D53"/>
<path d="M133.67 50.13V60.92C133.67 60.92 130.45 66.42 126.1 66.79C121.75 67.17 117.89 62.06 117.89 62.06V50.89L133.68 50.13H133.67Z" fill="#FFA681"/>
<path d="M133.67 50.13V54.92C130.75 58.16 125.56 58.97 117.88 57.84V50.89L133.67 50.13Z" fill="#E26D53"/>
<path d="M106.52 29.61C106.56 30.24 106.62 30.87 106.68 31.51C106.84 33.12 107.06 34.77 107.35 36.41C107.36 36.47 107.37 36.52 107.38 36.58C108.83 44.54 112.09 52.37 119.11 54.87C135.02 60.55 140.7 46.91 142.97 38.96C143.22 38.08 143.45 37.09 143.65 36.05C143.65 36.01 143.66 35.97 143.68 35.92C143.9 34.74 144.09 33.49 144.25 32.2C144.37 31.24 144.47 30.27 144.57 29.29C144.8 26.91 144.95 24.53 145.05 22.41C145.28 17.58 142.39 13.13 137.86 11.39C131.33 8.88 121.43 6.89 112.04 12.22C108.57 14.18 106.4 17.83 106.32 21.81C106.28 24.01 106.32 26.71 106.52 29.61Z" fill="#FFA681"/>
<path d="M106.52 29.61C106.56 30.24 106.62 30.87 106.68 31.51C106.84 33.12 107.06 34.77 107.35 36.41C107.36 36.47 107.37 36.52 107.38 36.58C108.83 44.54 112.09 52.37 119.11 54.87C135.02 60.55 140.7 46.91 142.97 38.96C143.22 38.08 143.45 37.09 143.65 36.05C143.65 36.01 143.66 35.97 143.68 35.92C143.9 34.74 144.09 33.49 144.25 32.2C144.37 31.24 144.47 30.27 144.57 29.29L142.19 29.91C141.51 33.51 140.49 38.76 139.16 41.2C137.07 36.11 125.48 40.31 125.48 40.31C125.48 40.31 115.14 36.64 111.64 40.29C109.97 36.06 108.49 29.91 108.49 29.91L106.53 29.62L106.52 29.61ZM125.13 42.19C133.48 41.05 135.55 43.18 135.94 45.65C133.68 48.03 131.15 49.4 128.83 49.92C125.96 50.57 120.16 50.51 115.93 47.18C115.5 45.26 115.02 39.64 125.13 42.19Z" fill="#18315B"/>
<path d="M118.73 30.45C118.73 31.6 118.14 32.54 117.4 32.54C116.66 32.54 116.07 31.61 116.07 30.45C116.07 29.29 116.66 28.36 117.4 28.36C118.14 28.36 118.73 29.29 118.73 30.45Z" fill="#18315B"/>
<path d="M134.61 30.45C134.61 31.6 134.02 32.54 133.28 32.54C132.54 32.54 131.95 31.61 131.95 30.45C131.95 29.29 132.54 28.36 133.28 28.36C134.02 28.36 134.61 29.29 134.61 30.45Z" fill="#18315B"/>
<path d="M137.71 23.57C137.71 23.57 133.52 21.92 130.3 23.31L130.62 25.1C130.62 25.1 135.35 24.7 137.73 25.67C137.94 24.98 137.97 24.28 137.7 23.57H137.71Z" fill="#18315B"/>
<path d="M112.89 23.57C112.89 23.57 117.08 21.92 120.3 23.31L119.98 25.1C119.98 25.1 115.25 24.7 112.87 25.67C112.66 24.98 112.63 24.28 112.9 23.57H112.89Z" fill="#18315B"/>
<path d="M125.98 39.5C125.12 39.6 124.23 39.38 124.09 39.34C123.82 39.27 123.66 38.98 123.73 38.71C123.8 38.44 124.09 38.28 124.36 38.35C124.84 38.48 125.98 38.64 126.43 38.29C126.52 38.22 126.63 38.1 126.62 37.79C126.59 35.99 125.37 30.09 125.36 30.03C125.3 29.75 125.48 29.48 125.76 29.42C126.04 29.36 126.31 29.54 126.37 29.82C126.42 30.07 127.62 35.87 127.65 37.77C127.66 38.48 127.34 38.89 127.06 39.1C126.76 39.33 126.38 39.45 125.99 39.5H125.98Z" fill="#E26D53"/>
<path d="M118.97 42.57C119.39 44.68 120.78 48.56 125.47 48.56C130.16 48.56 131.49 45.01 131.95 42.57H118.97Z" fill="white"/>
<path d="M144.51 29.91H142.19C142.45 27.58 141.6 24.76 140.9 22.88C139.31 18.62 142.69 16.74 139.96 14.61C137.23 12.47 130.42 13.39 125.69 13.23C120.93 13.08 113.28 13.14 111.42 13.57C109.56 14 110.58 17.09 111.26 19.48C111.95 21.87 108.98 24.52 108.48 26.99C108.34 27.7 108.37 28.76 108.48 29.9H106.54C106.31 26.89 106.28 24.08 106.32 21.8C106.4 17.82 108.57 14.17 112.04 12.21C121.43 6.89 131.34 8.87 137.86 11.38C142.39 13.12 145.29 17.56 145.06 22.4C144.95 24.7 144.78 27.31 144.52 29.9L144.51 29.91Z" fill="#18315B"/>
<path d="M127.99 31.48C127.99 28.11 130.73 25.37 134.1 25.37C137.47 25.37 140.21 28.11 140.21 31.48C140.21 34.85 137.47 37.59 134.1 37.59C130.73 37.59 127.99 34.85 127.99 31.48ZM128.94 31.48C128.94 34.32 131.25 36.64 134.1 36.64C136.95 36.64 139.26 34.33 139.26 31.48C139.26 28.63 136.95 26.32 134.1 26.32C131.25 26.32 128.94 28.63 128.94 31.48Z" fill="white"/>
<path d="M111.29 31.48C111.29 28.11 114.03 25.37 117.4 25.37C120.77 25.37 123.51 28.11 123.51 31.48C123.51 34.85 120.77 37.59 117.4 37.59C114.03 37.59 111.29 34.85 111.29 31.48ZM112.24 31.48C112.24 34.32 114.55 36.64 117.4 36.64C120.25 36.64 122.56 34.33 122.56 31.48C122.56 28.63 120.25 26.32 117.4 26.32C114.55 26.32 112.24 28.63 112.24 31.48Z" fill="white"/>
<path d="M139.18 29.52C139.3 29.52 139.42 29.47 139.52 29.38C139.52 29.38 142.32 26.66 145.96 27.51C146.22 27.57 146.47 27.41 146.53 27.15C146.59 26.89 146.43 26.64 146.17 26.58C142.01 25.61 138.97 28.58 138.84 28.7C138.65 28.89 138.65 29.19 138.84 29.37C138.93 29.46 139.06 29.51 139.18 29.51V29.52Z" fill="white"/>
<path d="M112.21 29.52C112.37 29.52 112.52 29.44 112.61 29.3C112.75 29.08 112.69 28.78 112.47 28.64C112.29 28.52 107.96 25.73 104.29 26.34C104.03 26.38 103.85 26.63 103.9 26.89C103.94 27.15 104.19 27.32 104.45 27.28C107.76 26.73 111.92 29.41 111.96 29.44C112.04 29.49 112.13 29.52 112.22 29.52H112.21Z" fill="white"/>
<path d="M123.18 30.11C123.18 30.11 124.32 28.56 125.81 28.56C127.3 28.56 128.31 30.09 128.32 30.1L129.12 29.58C129.07 29.5 127.81 27.61 125.82 27.61C123.83 27.61 122.47 29.47 122.42 29.55L123.19 30.11H123.18Z" fill="white"/>
<mask id="mask0_61_8830" style="mask-type:luminance" maskUnits="userSpaceOnUse" x="76" y="26" width="96" height="140">
<path d="M76.8801 26.38H171.46V165.97H81.3401C78.8801 165.97 76.8901 163.97 76.8901 161.52V26.38H76.8801Z" fill="white"/>
</mask>
<g mask="url(#mask0_61_8830)">
<path d="M91.2901 91.06C96.4374 91.06 100.61 86.8873 100.61 81.74C100.61 76.5927 96.4374 72.42 91.2901 72.42C86.1428 72.42 81.9701 76.5927 81.9701 81.74C81.9701 86.8873 86.1428 91.06 91.2901 91.06Z" fill="#0056C5"/>
<path d="M84.2101 138.07C88.3246 138.07 91.6601 134.735 91.6601 130.62C91.6601 126.505 88.3246 123.17 84.2101 123.17C80.0956 123.17 76.7601 126.505 76.7601 130.62C76.7601 134.735 80.0956 138.07 84.2101 138.07Z" fill="#0056C5"/>
<path d="M91.5901 131.69L76.8401 129.54C79.2701 95.32 82.0801 80.4 82.0801 80.4L100.52 83.09C100.52 83.09 98.7101 101.26 91.6001 131.7L91.5901 131.69Z" fill="#0056C5"/>
<path d="M75.2802 170.02C75.2802 170.02 75.0902 173.71 81.4102 174.11C87.7302 174.51 88.0901 170.83 88.0901 170.83L86.9102 166.28L77.0702 165.66L75.2802 170.02Z" fill="#083796"/>
<path d="M86.3501 177.07L76.1401 176.42L76.7701 130.14L91.6501 131.09L86.3501 177.07Z" fill="#FBAB7F"/>
<path d="M84.2101 138.06C88.3246 138.06 91.6601 134.725 91.6601 130.61C91.6601 126.495 88.3246 123.16 84.2101 123.16C80.0956 123.16 76.7601 126.495 76.7601 130.61C76.7601 134.725 80.0956 138.06 84.2101 138.06Z" fill="#0056C5"/>
<path d="M88.0901 170.84C80.5201 166.99 75.2802 170.03 75.2802 170.03L76.7701 130.15L91.6502 131.09L88.0901 170.84Z" fill="#0056C5"/>
<path d="M91.1602 134.08L89.6702 147.83" stroke="#083796" stroke-width="1.04" stroke-linecap="round" stroke-linejoin="round"/>
<path d="M151.94 159.89H98.7601V182.59C98.7601 192.47 106.77 200.47 116.64 200.47H134.05C143.93 200.47 151.93 192.46 151.93 182.59V159.89H151.94Z" fill="#1E1E1E"/>
<path d="M99.7801 68.38L115.33 59.93C115.33 59.93 120.62 66.67 126.69 66.18C132.77 65.7 138.3 60.86 138.3 60.86L146.44 68.37C146.44 68.37 148.37 70.3 148.69 72.17C149.15 74.84 147.8 96.87 147.96 107.04C148.12 117.16 148.98 137.95 148.98 137.95L151.14 149.66C151.14 149.66 154.14 161.74 151.67 163.44C148.05 165.92 124.03 167.82 105.4 163.44C104.7 163.28 97.1701 162.29 97.1501 158.78C97.1301 155.73 99.7701 141.12 99.7701 141.12V109.86L93.5101 75.97C93.5101 75.97 92.0601 71.53 99.7801 68.37V68.38Z" fill="white"/>
<path d="M121.26 67.06C121.26 67.06 122 71.47 124.47 73.22C125.59 74.01 128.49 73.22 128.49 73.22C128.49 73.22 131.65 69.97 131.65 68.38C131.65 66.79 129.02 64.36 129.02 64.36L123.59 64.85L121.25 67.06H121.26Z" fill="#E8492D"/>
<path d="M123.99 70.54L120.77 135.98L127.23 145.83C127.23 145.83 132.39 137.05 132.71 135.12C133.03 133.19 129.24 70.54 129.24 70.54H123.99Z" fill="#E8492D"/>
<path d="M116.13 56.22C116.61 56.22 115.58 62.16 123.93 64.57L118.55 70.51C118.55 70.51 114.68 66.28 112.91 60.01L116.12 56.21L116.13 56.22Z" fill="#A6B0B6"/>
<path d="M135.21 56.76C135.21 56.76 133.45 62.86 127.96 64.58L133.26 70.31C133.26 70.31 137.73 64.96 138.53 59.65L135.21 56.76Z" fill="#A6B0B6"/>
<path d="M114.41 60.72L92.5901 68.38C92.5901 68.38 88.7301 69.88 88.4101 73.9C88.0901 77.92 97.9501 119.34 97.9501 119.34V149.47L94.8301 177.32L114.47 180.22C114.47 180.22 124.47 180.7 126.88 173.31C129.29 165.92 126.88 114.6 126.88 114.6C126.88 114.6 113.25 91.13 112.27 80.72C111.29 70.31 114.41 60.72 114.41 60.72Z" fill="#0172D0"/>
<path d="M114.79 58.31C114.79 58.31 112.69 63.53 114.78 79.9C116.97 97.08 126.89 114.6 126.89 114.6C126.89 114.6 109.59 93.42 105.57 84.75L111 77.84L102.67 75.43L111.73 59.28L114.78 58.32L114.79 58.31Z" fill="#5F94C9"/>
<path d="M138.72 60.72L159.4 68.38C159.4 68.38 163.26 69.88 163.58 73.9C163.9 77.92 154.04 119.34 154.04 119.34V149.47L157.16 177.32L137.46 180.22C137.46 180.22 129.29 180.7 126.88 173.31C124.47 165.92 126.19 114.6 126.19 114.6C126.19 114.6 139.65 94.61 140.86 80.72C142.08 66.83 138.72 60.72 138.72 60.72Z" fill="#0172D0"/>
<path d="M137.21 58.31C137.21 58.31 140.94 65.87 138.71 81.28C136.22 98.42 126.2 114.6 126.2 114.6C126.2 114.6 143.56 93.42 147.58 84.75L142.15 77.84L150.48 75.43L140.28 59.28L137.23 58.32L137.21 58.31Z" fill="#5F94C9"/>
<path d="M125.6 116.04L126.19 170.57" stroke="#0056C5" stroke-width="1.14" stroke-linecap="round" stroke-linejoin="round"/>
</g>
<path d="M197.69 109.47C200.485 109.47 202.75 107.205 202.75 104.41C202.75 101.615 200.485 99.35 197.69 99.35C194.895 99.35 192.63 101.615 192.63 104.41C192.63 107.205 194.895 109.47 197.69 109.47Z" fill="#FBAB7F"/>
<path d="M196.8 99.34C194.05 99.83 192.21 102.45 192.7 105.2C193.12 107.58 195.15 109.28 197.47 109.37C197.83 109.38 200.46 109.83 204.9 109.84C209.34 109.85 213.11 109.27 213.11 109.27C214.08 109.1 214.73 108.17 214.55 107.2L212.69 96.67C212.52 95.7 211.59 95.05 210.63 95.23L196.81 99.33L196.8 99.34Z" fill="#FBAB7F"/>
<path d="M216.5 107.75C216.32 108.72 215.38 109.35 214.42 109.17C214.42 109.17 214.42 109.17 214.11 109.11C214.03 109.09 210.75 108.21 210.54 108.16C210.24 108.1 210.22 108.1 210.21 108.1C209.39 107.94 208.85 107.15 209.01 106.33C209.17 105.51 209.96 104.97 210.78 105.13C210.8 105.13 210.83 105.13 211.11 105.19C211.42 105.23 214.71 105.61 214.78 105.62C215.08 105.68 215.09 105.68 215.09 105.68C216.06 105.86 216.69 106.8 216.51 107.76L216.5 107.75Z" fill="#FBAB7F"/>
<path d="M216.5 107.75C216.24 109.76 213.49 109.07 213.67 109.03L212.35 108.8L211.03 108.57L210.7 108.49L210.09 108.36C209.16 108.18 208.5 107.19 208.69 106.26C208.85 105.32 209.84 104.64 210.77 104.82L211.38 104.92L211.71 104.97L213.02 105.24L214.33 105.51C214.18 105.42 216.99 105.78 216.49 107.74L216.5 107.75ZM216.5 107.75C216.95 105.82 214.18 105.47 214.32 105.61L211.61 105.51C211.53 105.53 211.43 105.51 211.32 105.48C211.27 105.47 211.21 105.45 211.16 105.45C211.06 105.45 210.96 105.44 210.86 105.43C210.12 105.38 209.48 105.55 209.31 106.39C209.16 107.24 209.69 107.63 210.39 107.85C210.48 107.88 210.58 107.91 210.68 107.94C210.73 107.95 210.79 107.96 210.84 107.97C210.95 107.98 211.05 107.99 211.12 108.05L213.68 108.95C213.49 109.02 216.21 109.72 216.49 107.76L216.5 107.75Z" fill="#E26D53"/>
<path d="M217.56 103.92C217.52 104.9 216.69 105.67 215.71 105.63C215.71 105.63 215.71 105.63 215.4 105.62C215.29 105.61 210.63 105.19 210.33 105.16C210.02 105.15 210 105.15 209.99 105.15C209.15 105.12 208.5 104.41 208.53 103.58C208.56 102.74 209.27 102.09 210.1 102.12C210.12 102.12 210.15 102.12 210.44 102.13C210.87 102.13 215.42 102.06 215.53 102.06C215.84 102.07 215.84 102.07 215.84 102.07C216.82 102.11 217.59 102.94 217.55 103.92H217.56Z" fill="#FBAB7F"/>
<path d="M217.56 103.92C217.58 105.95 214.86 105.67 214.78 105.61L212.93 105.56L211.08 105.51L210.31 105.46L209.91 105.44C208.97 105.41 208.16 104.52 208.21 103.57C208.23 102.61 209.1 101.8 210.05 101.83H210.45L211.22 101.85L213.07 101.94L214.92 102.03C215 101.97 217.74 101.91 217.56 103.92ZM217.56 103.92C217.7 101.94 215 102.02 214.92 102.12L211.21 102.39C211.01 102.45 210.71 102.36 210.44 102.39C209.62 102.42 208.9 102.65 208.86 103.58C208.83 104.51 209.53 104.8 210.35 104.89C210.62 104.95 210.93 104.89 211.12 104.96L214.8 105.51C214.87 105.62 217.56 105.9 217.57 103.92H217.56Z" fill="#E26D53"/>
<path d="M216.92 100.34C216.92 101.32 216.12 102.12 215.14 102.12C215.14 102.12 215.14 102.12 214.83 102.12C214.72 102.12 210.11 101.87 209.82 101.85C209.51 101.85 209.49 101.85 209.48 101.85C208.64 101.85 207.97 101.17 207.97 100.33C207.97 99.49 208.65 98.82 209.48 98.82C209.5 98.82 209.53 98.82 209.82 98.82C210.25 98.8 214.73 98.56 214.83 98.55C215.14 98.55 215.14 98.55 215.14 98.55C216.12 98.55 216.92 99.35 216.92 100.33V100.34Z" fill="#FBAB7F"/>
<path d="M216.92 100.34C217.02 102.36 214.29 102.19 214.22 102.13L212.4 102.15L210.58 102.17L209.82 102.15H209.42C208.48 102.15 207.64 101.3 207.65 100.34C207.63 99.38 208.48 98.53 209.42 98.53H209.82L210.58 98.51L212.4 98.53L214.22 98.55C214.29 98.49 217.02 98.32 216.92 100.34ZM216.92 100.34C216.98 98.36 214.29 98.54 214.22 98.64L210.57 99.05C210.38 99.12 210.08 99.03 209.81 99.09C208.99 99.15 208.29 99.41 208.27 100.34C208.27 101.27 208.99 101.53 209.81 101.59C210.08 101.64 210.38 101.56 210.57 101.63L214.22 102.04C214.28 102.15 216.99 102.32 216.92 100.34Z" fill="#E26D53"/>
<path d="M216.24 96.49C216.35 97.47 215.65 98.35 214.67 98.46C214.67 98.46 214.67 98.46 214.36 98.49C214.27 98.49 210.4 98.68 210.16 98.69C209.86 98.72 209.84 98.73 209.82 98.73C208.99 98.82 208.24 98.23 208.15 97.39C208.06 96.56 208.65 95.81 209.49 95.72C209.51 95.72 209.54 95.72 209.82 95.68C210.17 95.62 213.88 94.96 213.96 94.95C214.26 94.92 214.27 94.91 214.27 94.91C215.25 94.8 216.13 95.5 216.24 96.48V96.49Z" fill="#FBAB7F"/>
<path d="M216.24 96.49C216.58 98.49 213.79 98.63 213.85 98.56L212.33 98.75L210.81 98.94L209.78 99.03C208.84 99.14 207.91 98.39 207.82 97.43C207.7 96.48 208.44 95.54 209.38 95.44L210.41 95.3L211.93 95.15L213.45 95C213.37 94.95 216.12 94.47 216.24 96.49ZM216.24 96.49C216.09 94.51 213.38 95 213.46 95.09L210.47 95.84C210.39 95.89 210.27 95.89 210.15 95.9C210.09 95.9 210.03 95.9 209.96 95.92C209.85 95.94 209.75 95.97 209.65 95.99C208.93 96.16 208.37 96.51 208.45 97.37C208.55 98.22 209.18 98.44 209.92 98.45C210.02 98.45 210.13 98.45 210.24 98.45C210.3 98.45 210.37 98.44 210.43 98.43C210.55 98.41 210.67 98.39 210.76 98.42L213.84 98.48C213.77 98.59 216.53 98.46 216.24 96.5V96.49Z" fill="#E26D53"/>
<path d="M196.19 99.75C196.19 99.75 198.53 98.22 203.43 96.08C204.3 95.7 207.51 95.09 209.43 95.09C211.21 95.09 214.74 99.09 214.74 99.09C214.74 99.09 214.12 101.11 212.44 101.13C211.56 101.13 208.56 99.39 208.56 99.39L206.78 101.1C206.78 101.1 206.69 102.69 205.19 104.65C205.19 104.65 201.81 108.76 197.06 105.26C193.47 102.62 196.2 99.75 196.2 99.75H196.19Z" fill="#E26D53"/>
<path d="M195.71 99.72C195.71 99.72 198.1 97.55 202.99 95.41C203.86 95.03 206.69 94.86 208.61 94.87C210.39 94.87 214.18 99.04 214.18 99.04C214.18 99.04 213.91 100.45 212.22 100.47C211.34 100.47 208.44 98.42 208.44 98.42L206.34 100.45C206.34 100.45 205.87 102.85 204.38 104.81C204.38 104.81 200.04 109.22 196.25 105.63C193.01 102.56 195.71 99.74 195.71 99.74V99.72Z" fill="#FBAB7F"/>
<path d="M187.73 105.33C187.73 105.33 192.04 101.11 196.51 105.59C200.98 110.07 196.79 114.42 196.79 114.42L192.59 116.53L185.63 109.54L187.73 105.32V105.33Z" fill="#083796"/>
<path d="M200.32 109L193.11 101.76L167.47 124.05L177.99 134.61L200.32 109Z" fill="#FBAB7F"/>
<path d="M172.73 136.78C176.845 136.78 180.18 133.445 180.18 129.33C180.18 125.215 176.845 121.88 172.73 121.88C168.616 121.88 165.28 125.215 165.28 129.33C165.28 133.445 168.616 136.78 172.73 136.78Z" fill="#0056C5"/>
<path d="M196.71 110.55C199.565 110.55 201.88 108.235 201.88 105.38C201.88 102.525 199.565 100.21 196.71 100.21C193.855 100.21 191.54 102.525 191.54 105.38C191.54 108.235 193.855 110.55 196.71 110.55Z" fill="#FBAB7F"/>
<path d="M196.79 114.42C196.79 114.42 192.38 116.32 189.1 113.02C185.43 109.33 187.73 105.32 187.73 105.32L167.46 124.05L177.98 134.61L196.79 114.42Z" fill="#0056C5"/>
<path d="M179.92 132.28L189.26 122.08" stroke="#083796" stroke-width="1.04" stroke-linecap="round" stroke-linejoin="round"/>
<path d="M194.17 125.98L217.36 126.15C218.15 126.15 218.78 126.65 218.77 127.26L218.72 134.82C218.72 135.43 218.08 135.91 217.29 135.91L194.1 135.74C193.31 135.74 192.68 135.24 192.69 134.63L192.74 127.07C192.74 126.46 193.38 125.98 194.17 125.98Z" fill="#C42402"/>
<path d="M198.07 127.69L213.44 127.8C213.8 127.8 214.1 128.03 214.1 128.31L214.07 132.44C214.07 132.72 213.77 132.95 213.41 132.94L198.04 132.83C197.68 132.83 197.38 132.6 197.38 132.32L197.41 128.19C197.41 127.91 197.71 127.68 198.07 127.69Z" fill="#F39D11"/>
<path d="M200.19 127.71L205.48 127.75C205.61 127.75 205.71 127.98 205.7 128.26L205.67 132.39C205.67 132.67 205.56 132.9 205.44 132.9L200.15 132.86C200.02 132.86 199.92 132.63 199.93 132.35L199.96 128.22C199.96 127.94 200.07 127.71 200.19 127.71Z" fill="#F6CB1C"/>
<path opacity="0.35" d="M195.2 135.74L199.14 135.76L209.05 126.08L204.52 126.05L195.2 135.74Z" fill="white"/>
<path opacity="0.35" d="M204.93 135.81L214.75 126.13L212.9 126.11L202.98 135.79L204.93 135.81Z" fill="white"/>
<path d="M202.31 81.62L202.29 84.17L209.27 84.22L209.29 81.27L202.31 81.62Z" fill="#F39D11"/>
<path d="M190.02 78.4C189.77 78.4 189.51 78.36 189.24 78.27C188.89 78.16 188.69 77.79 188.8 77.43C188.91 77.08 189.28 76.88 189.64 76.99C189.83 77.05 190.19 77.12 190.37 76.94C190.55 76.76 190.66 76.26 190.42 75.4C190.01 73.94 187.67 71.4 183.98 68.44C181.75 66.65 180.61 63.79 181.33 61.77C181.77 60.54 182.86 59.84 184.32 59.85C185.44 59.85 186.3 60.16 186.86 60.75C187.74 61.68 187.67 63.04 187.62 64.04C187.6 64.4 187.59 64.77 187.62 64.97C187.62 64.99 187.62 64.99 187.62 65C187.76 65.14 188.63 65.07 189.4 64.77C189.75 64.64 190.13 64.81 190.27 65.16C190.4 65.51 190.23 65.89 189.88 66.03C189.57 66.15 187.96 66.71 187 66.19C186.63 65.99 186.39 65.67 186.31 65.26C186.23 64.9 186.25 64.48 186.28 63.99C186.32 63.15 186.37 62.2 185.88 61.69C185.58 61.37 185.05 61.21 184.31 61.21C183.41 61.21 182.83 61.55 182.59 62.23C182.14 63.49 182.86 65.83 184.82 67.4C187.62 69.65 191.09 72.8 191.71 75.04C192.06 76.29 191.91 77.3 191.3 77.9C190.96 78.23 190.52 78.4 190.01 78.39L190.02 78.4Z" fill="#F39D11"/>
<path d="M222.37 78.63C221.87 78.63 221.43 78.45 221.09 78.12C220.49 77.52 220.35 76.5 220.72 75.25C221.38 73.01 224.89 69.91 227.72 67.71C229.7 66.17 230.45 63.84 230.02 62.57C229.79 61.88 229.21 61.53 228.32 61.52C227.58 61.52 227.05 61.67 226.74 61.98C226.25 62.48 226.28 63.43 226.31 64.27C226.33 64.76 226.34 65.18 226.26 65.54C226.17 65.95 225.92 66.27 225.55 66.46C224.57 66.97 222.98 66.38 222.67 66.26C222.33 66.12 222.16 65.73 222.29 65.39C222.43 65.05 222.82 64.88 223.16 65.01C223.93 65.31 224.79 65.4 224.94 65.26C224.94 65.26 224.94 65.26 224.94 65.24C224.98 65.05 224.97 64.68 224.96 64.31C224.93 63.31 224.88 61.95 225.77 61.03C226.34 60.45 227.2 60.15 228.32 60.16C229.79 60.17 230.87 60.88 231.29 62.12C231.98 64.14 230.8 66.99 228.54 68.75C224.81 71.66 222.43 74.16 222 75.61C221.75 76.47 221.85 76.97 222.03 77.15C222.21 77.33 222.56 77.26 222.76 77.21C223.12 77.11 223.49 77.31 223.59 77.67C223.69 78.03 223.49 78.4 223.13 78.5C222.86 78.58 222.6 78.62 222.35 78.62L222.37 78.63Z" fill="#F39D11"/>
<path d="M189.16 60.57L223.54 60.82L223.47 69.95L189.36 69.71L189.16 60.57Z" fill="#F6CB1C"/>
<path d="M189.36 69.71C189.36 69.71 191.82 82.35 205.92 82.45C220.02 82.55 223.47 69.95 223.47 69.95L189.36 69.71Z" fill="#F6B52D"/>
<g opacity="0.7">
<path d="M216.06 69.9L189.36 69.71C189.36 69.71 189.92 72.6 192.05 75.63C194.29 76.88 197.14 77.73 200.76 77.76C209.06 77.82 213.66 73.48 216.05 69.9H216.06Z" fill="#F6B52D"/>
</g>
<path d="M202.29 84.17C202.29 84.17 200.14 84.56 199.98 87.51L212.07 87.6C212.07 87.6 212.36 84.78 209.27 84.22L202.29 84.17Z" fill="#F6CB1C"/>
<path d="M198.64 87.5L213.41 87.61C213.41 87.61 213.29 104.8 207.85 113.49L204.09 113.46C204.09 113.46 198.78 104.83 198.63 87.5H198.64Z" fill="#F6CB1C"/>
<path d="M198.64 87.5C198.73 98.34 200.84 105.78 202.41 109.83C204.66 109.61 206.62 108.15 207.45 106.02C209.84 99.91 210.67 92.07 210.96 87.59L198.64 87.5Z" fill="#F6D64D"/>
<path d="M204.093 113.457L204.047 119.907L207.677 119.933L207.723 113.483L204.093 113.457Z" fill="#F39D11"/>
<path d="M208.58 114.6L203.23 114.56C202.89 114.56 202.62 114.28 202.62 113.94C202.62 113.6 202.9 113.33 203.24 113.33L208.59 113.37C208.93 113.37 209.2 113.65 209.2 113.99C209.2 114.33 208.92 114.6 208.58 114.6Z" fill="#F39D11"/>
<path d="M214.89 125.31C213.59 119.74 207.68 119.93 207.68 119.93L204.05 119.9C198.68 119.86 197.16 124.94 197.16 124.94L214.88 125.3L214.89 125.31Z" fill="#F6C12D"/>
<path d="M208.54 120.51L203.19 120.47C202.85 120.47 202.58 120.19 202.58 119.85C202.58 119.51 202.86 119.24 203.2 119.24L208.55 119.28C208.89 119.28 209.16 119.56 209.16 119.9C209.16 120.24 208.88 120.51 208.54 120.51Z" fill="#F39D11"/>
<path d="M214.88 126.42L197.15 126.29C196.41 126.29 195.81 125.68 195.82 124.94C195.83 124.2 196.43 123.6 197.17 123.61L214.9 123.74C215.64 123.74 216.24 124.35 216.23 125.09C216.22 125.83 215.62 126.43 214.88 126.42Z" fill="#F6C12D"/>
<path d="M196.194 60.6225L196.129 69.7522L204.369 69.8112L204.434 60.6814L196.194 60.6225Z" fill="#F6D64D"/>
<path d="M195.14 69.05L196.08 66.72L196.93 69.1L198.55 70.04L196.89 70.89L195.94 73.86L195.09 70.85L193.48 69.91L195.14 69.05Z" fill="white"/>
<path d="M219.56 125.79H192.02C191.087 125.79 190.33 126.547 190.33 127.48V139.12C190.33 140.053 191.087 140.81 192.02 140.81H219.56C220.493 140.81 221.25 140.053 221.25 139.12V127.48C221.25 126.547 220.493 125.79 219.56 125.79Z" fill="#634740"/>
<path d="M217.11 128.39H194.48C193.944 128.39 193.51 128.824 193.51 129.36V137.25C193.51 137.786 193.944 138.22 194.48 138.22H217.11C217.646 138.22 218.08 137.786 218.08 137.25V129.36C218.08 128.824 217.646 128.39 217.11 128.39Z" fill="#F39D11"/>
<path d="M194.874 135.76V127.141H196.228C197.013 127.141 197.587 127.192 197.951 127.293C198.466 127.43 198.876 127.684 199.181 128.055C199.486 128.426 199.638 128.864 199.638 129.367C199.638 129.696 199.568 129.994 199.427 130.264C199.29 130.53 199.066 130.78 198.753 131.014C199.277 131.26 199.66 131.569 199.902 131.94C200.144 132.307 200.265 132.742 200.265 133.246C200.265 133.731 200.14 134.172 199.89 134.571C199.64 134.969 199.318 135.268 198.923 135.467C198.529 135.662 197.984 135.76 197.288 135.76H194.874ZM196.515 128.705V130.522H196.872C197.271 130.522 197.566 130.438 197.757 130.27C197.953 130.102 198.05 129.873 198.05 129.584C198.05 129.315 197.958 129.102 197.775 128.946C197.591 128.785 197.312 128.705 196.937 128.705H196.515ZM196.515 131.987V134.196H196.925C197.605 134.196 198.062 134.11 198.296 133.938C198.535 133.766 198.654 133.516 198.654 133.188C198.654 132.817 198.515 132.524 198.238 132.309C197.96 132.094 197.499 131.987 196.855 131.987H196.515ZM201.947 127.141H203.687C204.64 127.141 205.318 127.227 205.72 127.399C206.126 127.567 206.453 127.848 206.699 128.242C206.945 128.637 207.068 129.104 207.068 129.643C207.068 130.209 206.931 130.684 206.658 131.067C206.388 131.446 205.98 131.733 205.433 131.928L207.472 135.76H205.679L203.74 132.11H203.587V135.76H201.947V127.141ZM203.587 130.51H204.103C204.626 130.51 204.986 130.442 205.181 130.305C205.38 130.168 205.48 129.942 205.48 129.625C205.48 129.438 205.431 129.276 205.333 129.139C205.236 128.998 205.105 128.899 204.941 128.84C204.777 128.778 204.476 128.746 204.038 128.746H203.587V130.51ZM211.421 127.141H213.085L216.402 135.76H214.697L214.023 133.985H210.507L209.804 135.76H208.099L211.421 127.141ZM212.265 129.426L211.117 132.385H213.408L212.265 129.426ZM217.685 127.141H219.255L222.953 132.813V127.141H224.593V135.76H223.017L219.326 130.106V135.76H217.685V127.141ZM226.568 127.141H228.513C229.767 127.141 230.699 127.297 231.308 127.61C231.917 127.918 232.419 128.422 232.814 129.121C233.208 129.821 233.406 130.637 233.406 131.571C233.406 132.235 233.294 132.846 233.072 133.405C232.853 133.959 232.548 134.42 232.158 134.787C231.771 135.155 231.351 135.408 230.898 135.549C230.445 135.69 229.66 135.76 228.542 135.76H226.568V127.141ZM228.203 128.723V134.155H228.964C229.714 134.155 230.257 134.069 230.593 133.897C230.933 133.725 231.21 133.436 231.425 133.03C231.64 132.623 231.747 132.123 231.747 131.53C231.747 130.615 231.492 129.906 230.98 129.403C230.519 128.949 229.779 128.723 228.759 128.723H228.203Z" fill="#B15900"/>
<path d="M216.5 107.75C216.32 108.72 215.38 109.35 214.42 109.17C214.42 109.17 214.42 109.17 214.11 109.11C214.03 109.09 210.75 108.21 210.54 108.16C210.24 108.1 210.22 108.1 210.21 108.1C209.39 107.94 208.85 107.15 209.01 106.33C209.17 105.51 209.96 104.97 210.78 105.13C210.8 105.13 210.83 105.13 211.11 105.19C211.42 105.23 214.71 105.61 214.78 105.62C215.08 105.68 215.09 105.68 215.09 105.68C216.06 105.86 216.69 106.8 216.51 107.76L216.5 107.75Z" fill="#FBAB7F"/>
<path d="M216.5 107.75C216.24 109.76 213.49 109.07 213.67 109.03L212.35 108.8L211.03 108.57L210.7 108.49L210.09 108.36C209.16 108.18 208.5 107.19 208.69 106.26C208.85 105.32 209.84 104.64 210.77 104.82L211.38 104.92L211.71 104.97L213.02 105.24L214.33 105.51C214.18 105.42 216.99 105.78 216.49 107.74L216.5 107.75ZM216.5 107.75C216.95 105.82 214.18 105.47 214.32 105.61L211.61 105.51C211.53 105.53 211.43 105.51 211.32 105.48C211.27 105.47 211.21 105.45 211.16 105.45C211.06 105.45 210.96 105.44 210.86 105.43C210.12 105.38 209.48 105.55 209.31 106.39C209.16 107.24 209.69 107.63 210.39 107.85C210.48 107.88 210.58 107.91 210.68 107.94C210.73 107.95 210.79 107.96 210.84 107.97C210.95 107.98 211.05 107.99 211.12 108.05L213.68 108.95C213.49 109.02 216.21 109.72 216.49 107.76L216.5 107.75Z" fill="#E26D53"/>
<path d="M217.56 103.92C217.52 104.9 216.69 105.67 215.71 105.63C215.71 105.63 215.71 105.63 215.4 105.62C215.29 105.61 210.63 105.19 210.33 105.16C210.02 105.15 210 105.15 209.99 105.15C209.15 105.12 208.5 104.41 208.53 103.58C208.56 102.74 209.27 102.09 210.1 102.12C210.12 102.12 210.15 102.12 210.44 102.13C210.87 102.13 215.42 102.06 215.53 102.06C215.84 102.07 215.84 102.07 215.84 102.07C216.82 102.11 217.59 102.94 217.55 103.92H217.56Z" fill="#FBAB7F"/>
<path d="M217.56 103.92C217.58 105.95 214.86 105.67 214.78 105.61L212.93 105.56L211.08 105.51L210.31 105.46L209.91 105.44C208.97 105.41 208.16 104.52 208.21 103.57C208.23 102.61 209.1 101.8 210.05 101.83H210.45L211.22 101.85L213.07 101.94L214.92 102.03C215 101.97 217.74 101.91 217.56 103.92ZM217.56 103.92C217.7 101.94 215 102.02 214.92 102.12L211.21 102.39C211.01 102.45 210.71 102.36 210.44 102.39C209.62 102.42 208.9 102.65 208.86 103.58C208.83 104.51 209.53 104.8 210.35 104.89C210.62 104.95 210.93 104.89 211.12 104.96L214.8 105.51C214.87 105.62 217.56 105.9 217.57 103.92H217.56Z" fill="#E26D53"/>
<path d="M216.92 100.34C216.92 101.32 216.12 102.12 215.14 102.12C215.14 102.12 215.14 102.12 214.83 102.12C214.72 102.12 210.11 101.87 209.82 101.85C209.51 101.85 209.49 101.85 209.48 101.85C208.64 101.85 207.97 101.17 207.97 100.33C207.97 99.49 208.65 98.82 209.48 98.82C209.5 98.82 209.53 98.82 209.82 98.82C210.25 98.8 214.73 98.56 214.83 98.55C215.14 98.55 215.14 98.55 215.14 98.55C216.12 98.55 216.92 99.35 216.92 100.33V100.34Z" fill="#FBAB7F"/>
<path d="M216.92 100.34C217.02 102.36 214.29 102.19 214.22 102.13L212.4 102.15L210.58 102.17L209.82 102.15H209.42C208.48 102.15 207.64 101.3 207.65 100.34C207.63 99.38 208.48 98.53 209.42 98.53H209.82L210.58 98.51L212.4 98.53L214.22 98.55C214.29 98.49 217.02 98.32 216.92 100.34ZM216.92 100.34C216.98 98.36 214.29 98.54 214.22 98.64L210.57 99.05C210.38 99.12 210.08 99.03 209.81 99.09C208.99 99.15 208.29 99.41 208.27 100.34C208.27 101.27 208.99 101.53 209.81 101.59C210.08 101.64 210.38 101.56 210.57 101.63L214.22 102.04C214.28 102.15 216.99 102.32 216.92 100.34Z" fill="#E26D53"/>
<path d="M216.24 96.49C216.35 97.47 215.65 98.35 214.67 98.46C214.67 98.46 214.67 98.46 214.36 98.49C214.27 98.49 210.4 98.68 210.16 98.69C209.86 98.72 209.84 98.73 209.82 98.73C208.99 98.82 208.24 98.23 208.15 97.39C208.06 96.56 208.65 95.81 209.49 95.72C209.51 95.72 209.54 95.72 209.82 95.68C210.17 95.62 213.88 94.96 213.96 94.95C214.26 94.92 214.27 94.91 214.27 94.91C215.25 94.8 216.13 95.5 216.24 96.48V96.49Z" fill="#FBAB7F"/>
<path d="M216.24 96.49C216.58 98.49 213.79 98.63 213.85 98.56L212.33 98.75L210.81 98.94L209.78 99.03C208.84 99.14 207.91 98.39 207.82 97.43C207.7 96.48 208.44 95.54 209.38 95.44L210.41 95.3L211.93 95.15L213.45 95C213.37 94.95 216.12 94.47 216.24 96.49ZM216.24 96.49C216.09 94.51 213.38 95 213.46 95.09L210.47 95.84C210.39 95.89 210.27 95.89 210.15 95.9C210.09 95.9 210.03 95.9 209.96 95.92C209.85 95.94 209.75 95.97 209.65 95.99C208.93 96.16 208.37 96.51 208.45 97.37C208.55 98.22 209.18 98.44 209.92 98.45C210.02 98.45 210.13 98.45 210.24 98.45C210.3 98.45 210.37 98.44 210.43 98.43C210.55 98.41 210.67 98.39 210.76 98.42L213.84 98.48C213.77 98.59 216.53 98.46 216.24 96.5V96.49Z" fill="#E26D53"/>
<path d="M196.19 99.75C196.19 99.75 198.53 98.22 203.43 96.08C204.3 95.7 207.51 95.09 209.43 95.09C211.21 95.09 214.74 99.09 214.74 99.09C214.74 99.09 214.12 101.11 212.44 101.13C211.56 101.13 208.56 99.39 208.56 99.39L206.78 101.1C206.78 101.1 206.69 102.69 205.19 104.65C205.19 104.65 201.81 108.76 197.06 105.26C193.47 102.62 196.2 99.75 196.2 99.75H196.19Z" fill="#E26D53"/>
<path d="M195.71 99.72C195.71 99.72 198.1 97.55 202.99 95.41C203.86 95.03 206.69 94.86 208.61 94.87C210.39 94.87 214.18 99.04 214.18 99.04C214.18 99.04 213.91 100.45 212.22 100.47C211.34 100.47 208.44 98.42 208.44 98.42L206.34 100.45C206.34 100.45 205.87 102.85 204.38 104.81C204.38 104.81 200.04 109.22 196.25 105.63C193.01 102.56 195.71 99.74 195.71 99.74V99.72Z" fill="#FBAB7F"/>
</g>
<defs>
<linearGradient id="paint0_linear_61_8830" x1="130.699" y1="159.352" x2="132.801" y2="-11.6005" gradientUnits="userSpaceOnUse">
<stop stop-color="#1F254B"/>
<stop offset="1" stop-color="#72C6CE"/>
</linearGradient>
<linearGradient id="paint1_linear_61_8830" x1="130.976" y1="154.579" x2="132.804" y2="-2.83149" gradientUnits="userSpaceOnUse">
<stop stop-color="#4678BE"/>
<stop offset="1" stop-color="#66E4FF"/>
</linearGradient>
<clipPath id="clip0_61_8830">
<rect width="244" height="182" fill="white"/>
</clipPath>
</defs>
</svg>
