<svg width="244" height="176" viewBox="0 0 244 176" fill="none" xmlns="http://www.w3.org/2000/svg">
<g clip-path="url(#clip0_61_9005)">
<path opacity="0.26" d="M9.21002 101.57L14.39 93.94C14.39 93.94 37.69 67.44 38.4 37.4C39.12 7.35002 49.47 3.37002 74.27 1.61002C95.24 0.130015 119.47 -4.26998 139.03 12.89C147.61 20.42 157.75 24.28 168.02 23.88L190.64 23C201.43 22.58 212.07 26.85 220.88 35.19C233.94 47.54 248.05 70.23 242.49 108.65C241.55 115.17 240.96 122.02 240.89 128.67L240.72 145.01C240.57 159.36 231.91 170.9 221.03 171.14L51.25 175.02C33.8 175.42 16.98 166.08 4.92002 149.3C1.70002 144.81 -0.0599797 138.87 2.02889e-05 132.73C0.12002 121.19 3.39002 110.13 9.21002 101.57Z" fill="url(#paint0_linear_61_9005)"/>
<path d="M15.9199 100.81L20.7999 93.8C20.7999 93.8 42.7199 69.44 43.3799 41.82C44.0399 14.19 53.7799 10.54 77.1199 8.94001C96.8499 7.59001 119.64 3.56001 138.05 19.35C146.13 26.28 155.67 29.83 165.32 29.47L186.6 28.67C196.75 28.29 206.76 32.23 215.06 39.9C227.35 51.27 240.79 72.14 235.57 107.48C234.68 113.48 234.3 119.78 234.24 125.89L234.08 140.91C233.94 154.11 225.63 164.71 215.39 164.93L55.5699 168.39C39.1499 168.75 23.2799 160.14 11.9299 144.7C8.8999 140.58 7.2299 135.11 7.2799 129.47C7.3899 118.86 10.4499 108.69 15.9199 100.82V100.81Z" fill="url(#paint1_linear_61_9005)"/>
<path d="M209.95 163.45V46.4C209.95 44.8315 208.678 43.56 207.11 43.56L46.3199 43.56C44.7515 43.56 43.4799 44.8315 43.4799 46.4V163.45C43.4799 165.019 44.7515 166.29 46.3199 166.29H207.11C208.678 166.29 209.95 165.019 209.95 163.45Z" fill="#1D567E"/>
<path d="M202.26 55.42V154.42C202.26 156.72 200.39 158.59 198.09 158.59H55.3499C53.0499 158.59 51.1799 156.72 51.1799 154.42V55.42C51.1799 55.03 51.2299 54.64 51.3399 54.28C51.7099 52.97 52.6999 51.93 53.9799 51.48C54.4099 51.33 54.8699 51.25 55.3499 51.25H198.09C198.57 51.25 199.04 51.33 199.47 51.48C200.74 51.92 201.74 52.97 202.11 54.28C202.21 54.64 202.27 55.03 202.27 55.42H202.26Z" fill="white"/>
<path d="M202.26 55.26V65.27H51.1799V55.26C51.1799 54.86 51.2299 54.47 51.3399 54.1C51.7099 52.77 52.6999 51.71 53.9799 51.26H199.46C200.73 51.71 201.73 52.78 202.1 54.1C202.2 54.47 202.26 54.86 202.26 55.26Z" fill="#D1E6EC"/>
<path d="M187.98 58.5V58.96C187.98 59.85 187.26 60.56 186.38 60.56H79.6598C78.6498 60.56 77.8298 59.74 77.8298 58.73C77.8298 57.72 78.6498 56.9 79.6598 56.9H186.38C187.27 56.9 187.98 57.62 187.98 58.5Z" fill="white"/>
<path d="M62.6199 58.73V60.09C62.6199 60.48 62.1999 60.72 61.8599 60.53L60.6899 59.85L59.5199 59.17C59.1799 58.98 59.1799 58.49 59.5199 58.29L60.6899 57.61L61.8599 56.93C62.1999 56.74 62.6199 56.98 62.6199 57.37V58.73Z" fill="#002B5C"/>
<path d="M68.73 58.73V60.09C68.73 60.48 69.15 60.72 69.49 60.53L70.66 59.85L71.83 59.17C72.17 58.98 72.17 58.49 71.83 58.29L70.66 57.61L69.49 56.93C69.15 56.74 68.73 56.98 68.73 57.37V58.73Z" fill="#002B5C"/>
<path d="M132.42 75.6901V148.9H61.54V75.6901H132.42ZM137.42 70.6901H56.54V153.9H137.42V70.6901Z" fill="#D1E6EC"/>
<path d="M125.98 128H70.84C69.266 128 67.99 129.276 67.99 130.85V135.78C67.99 137.354 69.266 138.63 70.84 138.63H125.98C127.554 138.63 128.83 137.354 128.83 135.78V130.85C128.83 129.276 127.554 128 125.98 128Z" fill="#D1E6EC"/>
<path d="M128.82 87.33H107.3V111.81H128.82V87.33Z" fill="#D1E6EC"/>
<path d="M99.13 92.1H70.37C69.05 92.1 67.98 91.03 67.98 89.71C67.98 88.39 69.05 87.32 70.37 87.32H99.13C100.45 87.32 101.52 88.39 101.52 89.71C101.52 91.03 100.45 92.1 99.13 92.1Z" fill="#D1E6EC"/>
<path d="M99.13 101.95H70.37C69.05 101.95 67.98 100.88 67.98 99.56C67.98 98.24 69.05 97.17 70.37 97.17H99.13C100.45 97.17 101.52 98.24 101.52 99.56C101.52 100.88 100.45 101.95 99.13 101.95Z" fill="#D1E6EC"/>
<path d="M99.13 111.8H70.37C69.05 111.8 67.98 110.73 67.98 109.41C67.98 108.09 69.05 107.02 70.37 107.02H99.13C100.45 107.02 101.52 108.09 101.52 109.41C101.52 110.73 100.45 111.8 99.13 111.8Z" fill="#D1E6EC"/>
<path d="M99.13 116.89H70.38C69.06 116.89 67.99 117.958 67.99 119.275C67.99 120.592 69.06 121.66 70.38 121.66H99.13C100.45 121.66 101.52 120.592 101.52 119.275C101.52 117.958 100.45 116.89 99.13 116.89Z" fill="#D1E6EC"/>
<path d="M211.62 128.73C210.51 120.95 203.08 94.63 201.03 88.71C199.67 84.79 194.79 82.19 191.01 84.04C188.27 85.38 188.72 90.24 189.43 94.11C189.71 95.6 200.08 130.9 200.13 131.11C202.22 139.13 213.16 136.94 211.62 128.73Z" fill="#FFA681"/>
<path d="M138.22 122.71L143.53 81.6C143.53 81.6 147.28 79.36 152.32 82.68C152.32 82.68 150.03 120.94 147.85 134.2C146.85 140.26 143.75 150.97 141.11 158.6L132.81 158.58C134.22 148.83 134.94 136.65 136.42 131.61C136.42 131.61 136.8 129.72 137.64 127.32L138.22 122.71Z" fill="#FFA681"/>
<path d="M171.15 32.47C171.15 32.47 171.63 22.28 165.43 20.32C155.78 17.27 153.09 22.28 151.6 25.58C149.69 29.82 150.5 38.13 156.26 38.94C164.86 40.14 170.61 35.31 171.14 32.47H171.15Z" fill="#18315B"/>
<path d="M177.37 66.55C182.39 66.55 186.72 63.03 187.75 58.13C188.49 54.59 189.21 51.46 189.21 49.7V49.65C189.26 49.09 189.28 48.54 189.28 47.99C189.35 39.95 184.39 25.26 166.95 27.6C166.95 27.6 152.48 29.25 150.83 43.39C150.83 43.39 150.14 49.91 149.69 54.64C149.69 54.72 149.67 54.81 149.67 54.89C149.03 61.13 153.94 66.55 160.22 66.55H177.37Z" fill="#18315B"/>
<path d="M144.75 91.9C144.91 93 145.08 94.17 145.27 95.42C145.76 98.56 146.37 102.15 147.12 106.12C147.34 107.28 147.57 108.47 147.81 109.7C148.49 113.07 149.26 116.66 150.15 120.44C150.43 121.62 150.72 122.81 151.02 124.04C151.61 126.44 152.25 128.91 152.93 131.44C152.86 132.44 152.75 133.52 152.59 134.66C152.45 135.74 152.26 136.88 152.05 138.06C151.73 139.82 151.36 141.69 150.93 143.64C150.6 145.1 150.27 146.62 149.91 148.15C149.65 149.26 149.39 150.37 149.12 151.5C148.56 153.84 147.98 156.22 147.42 158.6H193.11L191.51 151.54L190.76 148.22L189.66 143.43L188.46 138.14L187.7 134.81L187.31 133.09L189.26 124.11L190.03 120.55L192.38 109.71L193.16 106.11L195.52 95.23L196.3 91.62L198.09 83.36L193.47 81.74L186.55 79.3L186.39 79.24L182.53 77.88L181.91 77.66L176.61 76.1C176.61 76.1 173.64 77.5 163.22 75.32C163.22 75.32 160.93 75.74 157.87 76.45C157.53 76.53 157.18 76.61 156.83 76.7C154.5 77.26 151.85 77.98 149.46 78.8C147.2 79.57 145.16 80.44 143.85 81.37C143.74 81.45 143.63 81.52 143.53 81.6C143.53 81.6 143.73 84.12 144.31 88.57C144.44 89.58 144.59 90.7 144.76 91.9H144.75Z" fill="#0172D0"/>
<path d="M182.52 77.88C181.41 84.39 178.25 90.95 171.69 91.65C163.76 92.51 159.65 82.56 157.86 76.45C160.92 75.73 164.1 75.03 164.1 75.03C174.52 77.21 176.53 75.88 176.53 75.88L181.9 77.65L182.52 77.87V77.88Z" fill="#FFA681"/>
<path d="M170.88 86.18C162.57 86.18 160.58 75.91 160.56 75.81C160.52 75.59 160.67 75.37 160.89 75.33C161.11 75.29 161.33 75.44 161.37 75.66C161.45 76.07 163.33 85.76 171.37 85.35C178.4 84.99 178.82 77.19 178.83 76.86C178.83 76.63 179.03 76.46 179.26 76.47C179.49 76.47 179.66 76.67 179.65 76.9C179.65 76.99 179.19 85.78 171.41 86.18C171.23 86.18 171.06 86.19 170.89 86.19L170.88 86.18Z" fill="white"/>
<path d="M153.94 85.38C155.061 85.38 155.97 84.4711 155.97 83.35C155.97 82.2289 155.061 81.32 153.94 81.32C152.819 81.32 151.91 82.2289 151.91 83.35C151.91 84.4711 152.819 85.38 153.94 85.38Z" fill="#0056C5"/>
<path d="M151.9 93.25C151.9 94.37 150.99 95.28 149.87 95.28C148.75 95.28 147.84 94.37 147.84 93.25C147.84 92.13 148.75 91.22 149.87 91.22C150.99 91.22 151.9 92.13 151.9 93.25Z" fill="#0056C5"/>
<path d="M164.86 97.93C164.86 99.05 163.95 99.96 162.83 99.96C161.71 99.96 160.8 99.05 160.8 97.93C160.8 96.81 161.71 95.9 162.83 95.9C163.95 95.9 164.86 96.81 164.86 97.93Z" fill="#0056C5"/>
<path d="M155.82 103.47C156.24 104.51 155.73 105.69 154.69 106.11C153.65 106.53 152.47 106.02 152.05 104.98C151.63 103.94 152.14 102.76 153.18 102.34C154.22 101.92 155.4 102.43 155.82 103.47Z" fill="#0056C5"/>
<path d="M173.41 107.22C173.41 108.34 172.5 109.25 171.38 109.25C170.26 109.25 169.35 108.34 169.35 107.22C169.35 106.1 170.26 105.19 171.38 105.19C172.5 105.19 173.41 106.1 173.41 107.22Z" fill="#0056C5"/>
<path d="M186.35 111.4C186.35 112.52 185.44 113.43 184.32 113.43C183.2 113.43 182.29 112.52 182.29 111.4C182.29 110.28 183.2 109.37 184.32 109.37C185.44 109.37 186.35 110.28 186.35 111.4Z" fill="#0056C5"/>
<path d="M188.96 85.38C188.96 86.5 188.05 87.41 186.93 87.41C185.81 87.41 184.9 86.5 184.9 85.38C184.9 84.26 185.81 83.35 186.93 83.35C188.05 83.35 188.96 84.26 188.96 85.38Z" fill="#0056C5"/>
<path d="M174.23 120.17C174.23 121.29 173.32 122.2 172.2 122.2C171.08 122.2 170.17 121.29 170.17 120.17C170.17 119.05 171.08 118.14 172.2 118.14C173.32 118.14 174.23 119.05 174.23 120.17Z" fill="#0056C5"/>
<path d="M161.73 126.46C161.73 127.58 160.82 128.49 159.7 128.49C158.58 128.49 157.67 127.58 157.67 126.46C157.67 125.34 158.58 124.43 159.7 124.43C160.82 124.43 161.73 125.34 161.73 126.46Z" fill="#0056C5"/>
<path d="M160.28 115.01C160.28 116.13 159.37 117.04 158.25 117.04C157.13 117.04 156.22 116.13 156.22 115.01C156.22 113.89 157.13 112.98 158.25 112.98C159.37 112.98 160.28 113.89 160.28 115.01Z" fill="#0056C5"/>
<path d="M180.27 98.4601C180.27 99.5801 179.36 100.49 178.24 100.49C177.12 100.49 176.21 99.5801 176.21 98.4601C176.21 97.3401 177.12 96.4301 178.24 96.4301C179.36 96.4301 180.27 97.3401 180.27 98.4601Z" fill="#0056C5"/>
<path d="M191.48 95.91C191.48 97.03 190.57 97.94 189.45 97.94C188.33 97.94 187.42 97.03 187.42 95.91C187.42 94.79 188.33 93.88 189.45 93.88C190.57 93.88 191.48 94.79 191.48 95.91Z" fill="#0056C5"/>
<path d="M184.32 123.53C184.32 124.65 183.41 125.56 182.29 125.56C181.17 125.56 180.26 124.65 180.26 123.53C180.26 122.41 181.17 121.5 182.29 121.5C183.41 121.5 184.32 122.41 184.32 123.53Z" fill="#0056C5"/>
<path d="M184.87 139.58C184.87 140.7 183.96 141.61 182.84 141.61C181.72 141.61 180.81 140.7 180.81 139.58C180.81 138.46 181.72 137.55 182.84 137.55C183.96 137.55 184.87 138.46 184.87 139.58Z" fill="#0056C5"/>
<path d="M174.54 132.89C174.96 133.93 174.45 135.11 173.41 135.53C172.37 135.95 171.19 135.44 170.77 134.4C170.35 133.36 170.86 132.18 171.9 131.76C172.94 131.34 174.12 131.85 174.54 132.89Z" fill="#0056C5"/>
<path d="M160.73 138.83C161.15 139.87 160.64 141.05 159.6 141.47C158.56 141.89 157.38 141.38 156.96 140.34C156.54 139.3 157.05 138.12 158.09 137.7C159.13 137.28 160.31 137.79 160.73 138.83Z" fill="#0056C5"/>
<path d="M193.1 158.59L192.88 157.66L191.49 151.54L190.98 149.3L190.74 148.21L190.63 147.71L189.65 143.41C174.34 147.93 158.11 145.25 150.92 143.63C150.6 145.08 150.25 146.6 149.9 148.14C149.82 148.48 149.74 148.81 149.66 149.15C149.53 149.68 149.4 150.2 149.28 150.73C149.23 150.99 149.17 151.23 149.1 151.48C148.55 153.82 147.97 156.21 147.4 158.58H193.1V158.59Z" fill="#18315B"/>
<path d="M183.29 50.62C183.29 50.62 185.78 47.46 187.63 50.07C189.48 52.68 186.86 60.39 182.33 58.51L183.29 50.62Z" fill="#FFA681"/>
<path d="M183.32 56.13C183.49 56.13 183.64 56.02 183.69 55.86C184.39 53.48 186.99 52.52 187.01 52.51C187.21 52.44 187.31 52.23 187.23 52.04C187.16 51.85 186.93 51.76 186.74 51.83C186.62 51.87 183.76 52.93 182.95 55.67C182.89 55.86 183.01 56.06 183.22 56.12C183.25 56.12 183.29 56.13 183.32 56.13Z" fill="#E26D53"/>
<path d="M185.94 54.93C186.01 54.93 186.08 54.91 186.15 54.87C186.33 54.76 186.38 54.54 186.26 54.37C186.24 54.34 185.78 53.68 184.82 53.27C184.63 53.19 184.4 53.27 184.31 53.45C184.22 53.63 184.31 53.85 184.5 53.93C185.24 54.25 185.6 54.76 185.61 54.76C185.68 54.87 185.81 54.93 185.93 54.93H185.94Z" fill="#E26D53"/>
<path d="M182.17 58.46C181.74 58.94 181.48 59.57 181.48 60.25C181.48 61.74 182.69 62.95 184.18 62.95C185.67 62.95 186.88 61.74 186.88 60.25C186.88 59.39 186.48 58.63 185.85 58.13C185.54 57.88 185.17 57.7 184.76 57.61C184.69 57.43 184.73 57.26 184.86 57.1C185.38 57.21 185.85 57.45 186.24 57.78C186.95 58.37 187.4 59.26 187.4 60.25C187.4 62.03 185.96 63.47 184.18 63.47C182.4 63.47 180.96 62.03 180.96 60.25C180.96 59.48 181.23 58.79 181.68 58.23C181.84 58.3 182.01 58.38 182.17 58.45V58.46Z" fill="white"/>
<path d="M164.09 66.7401V76.1901C164.09 76.1901 168.48 79.5801 171.91 79.8801C175.33 80.1801 176.52 76.1401 176.52 76.1401V67.34L164.09 66.7401Z" fill="#FFA681"/>
<path d="M164.09 67.67V71.44C166.39 73.99 170.47 74.9 176.52 74V68.26L164.09 67.66V67.67Z" fill="#E26D53"/>
<path d="M184.79 54.22C184.68 55.13 184.55 56.06 184.39 56.99C183.3 63.14 179.41 69.78 174.5 70.89C163.9 73.3 159.49 64.97 157.8 58.82C157.61 58.14 157.96 57.36 157.82 56.55C157.47 54.64 156.7 52.46 156.52 50.32C156.4 48.83 156.31 47.37 156.25 46.04C156.08 42.3 158.24 38.87 161.62 37.53C166.49 35.59 173.9 34.06 180.91 38.17C183.5 39.69 185.12 42.5 185.18 45.58C185.22 47.93 185.16 51 184.79 54.22Z" fill="#FFA681"/>
<path d="M171.34 58.97C171.14 58.97 170.97 58.83 170.93 58.63C170.89 58.41 171.04 58.19 171.27 58.16L172.68 57.92L170.73 52.73C170.65 52.52 170.76 52.28 170.97 52.2C171.18 52.12 171.42 52.23 171.5 52.44L173.8 58.57L171.4 58.97C171.4 58.97 171.35 58.97 171.33 58.97H171.34Z" fill="#E26D53"/>
<path d="M176.41 52.11C176.41 53.02 176.88 53.75 177.45 53.75C178.02 53.75 178.49 53.01 178.49 52.11C178.49 51.21 178.02 50.47 177.45 50.47C176.88 50.47 176.41 51.21 176.41 52.11Z" fill="#18315B"/>
<path d="M164.87 52.11C164.87 53.02 165.34 53.75 165.91 53.75C166.48 53.75 166.95 53.01 166.95 52.11C166.95 51.21 166.48 50.47 165.91 50.47C165.34 50.47 164.87 51.21 164.87 52.11Z" fill="#18315B"/>
<path d="M180.53 47.8001C179.69 47.6401 177.99 47.3701 176.18 47.4301C175.7 47.4501 175.32 47.8101 175.39 48.1801C175.44 48.4901 175.77 48.7001 176.15 48.6701C177.38 48.5801 180.61 48.6001 182.11 49.0401C182.15 48.8201 182.01 48.5901 181.79 48.3901C181.47 48.0801 181.02 47.8901 180.53 47.8001Z" fill="#18315B"/>
<path d="M163.74 48C164.58 47.82 166.27 47.53 168.08 47.57C168.56 47.58 168.94 47.93 168.88 48.31C168.83 48.62 168.51 48.83 168.13 48.81C166.9 48.73 163.67 48.8 162.18 49.27C162.14 49.05 162.28 48.82 162.49 48.62C162.81 48.31 163.26 48.11 163.74 48.01V48Z" fill="#18315B"/>
<path d="M176.41 61.4301C176.1 62.8701 175.09 65.5301 171.67 65.5301C168.25 65.5301 167.28 63.1001 166.95 61.4301H176.41Z" fill="white"/>
<path d="M171.72 68.01C172.71 68.01 173.58 67.48 173.61 67.46C173.8 67.34 173.86 67.09 173.74 66.9C173.62 66.71 173.38 66.65 173.19 66.77C173.19 66.77 172.47 67.2 171.72 67.2C170.91 67.2 170.18 66.77 170.17 66.76C169.98 66.65 169.73 66.71 169.62 66.9C169.51 67.09 169.57 67.34 169.76 67.45C169.8 67.47 170.68 68 171.73 68L171.72 68.01Z" fill="#E26D53"/>
<path d="M185.22 53.25C185.12 53.33 185.03 53.3 184.94 53.14C183.54 50.67 184.86 45.75 180.71 43.86C177.55 42.42 176.42 39.47 176.42 39.47C175.7 40.71 173.82 41.84 173.82 41.84C173.82 41.84 169.05 44.66 164.1 46.57C162.63 47.14 161.58 47.71 160.84 48.21C160.9 48.23 160.93 48.24 160.93 48.24C160.93 48.24 159.56 50.47 160.56 53.93C161.56 57.39 160.27 63.11 158.04 64.42C158.08 64.32 159.75 60.37 158.81 57.15C158.27 55.3 158.27 52.36 157.75 50.6C157.18 50.21 155.86 49.54 155.41 49.28C155.28 47.76 155.19 46.27 155.13 44.92C154.95 41.11 157.23 37.61 160.8 36.24C165.94 34.26 173.74 32.7 181.13 36.89C183.86 38.44 185.57 41.3 185.64 44.44C185.68 46.84 185.62 49.97 185.23 53.25H185.22Z" fill="#18315B"/>
<path d="M157.75 50.6C157.75 50.6 154.85 47.09 153.14 49.62C151.43 52.15 153.95 59.92 158.14 58.1L157.75 50.61V50.6Z" fill="#FFA681"/>
<path d="M157.87 58.22C158.17 58.79 158.27 59.46 158.11 60.13C157.75 61.57 156.28 62.46 154.84 62.09C153.4 61.73 152.51 60.26 152.88 58.82C153.09 57.99 153.66 57.34 154.39 57.02C154.75 56.86 155.16 56.77 155.57 56.78C155.64 56.63 155.68 56.46 155.6 56.26C155.07 56.24 154.56 56.36 154.1 56.58C153.27 56.98 152.62 57.73 152.38 58.69C151.95 60.41 153 62.16 154.72 62.59C156.44 63.02 158.19 61.97 158.62 60.25C158.81 59.51 158.71 58.76 158.41 58.12C158.23 58.15 158.06 58.18 157.88 58.22H157.87Z" fill="white"/>
<path d="M157.12 55.49C156.97 55.49 156.82 55.39 156.78 55.23C156.13 52.92 153.74 51.98 153.71 51.97C153.53 51.9 153.44 51.7 153.51 51.51C153.58 51.33 153.78 51.24 153.97 51.3C154.08 51.34 156.72 52.37 157.47 55.03C157.52 55.22 157.41 55.41 157.22 55.47C157.19 55.47 157.16 55.48 157.12 55.48V55.49Z" fill="#E26D53"/>
<path d="M154.71 54.33C154.64 54.33 154.58 54.31 154.52 54.27C154.36 54.16 154.31 53.95 154.41 53.78C154.43 53.75 154.85 53.11 155.74 52.71C155.92 52.63 156.13 52.71 156.21 52.89C156.29 53.07 156.21 53.28 156.03 53.36C155.34 53.67 155.01 54.16 155.01 54.17C154.94 54.28 154.83 54.33 154.71 54.33Z" fill="#E26D53"/>
<path d="M207.67 126.46C205.43 125.07 202.34 123.76 194.63 120.74C193.47 120.29 172.88 113.52 172.88 113.52C171.89 113.09 169.83 112.08 169.83 112.08C169.83 112.08 167.48 110.39 165.55 113.06C163.06 116.5 166.43 117.82 166.43 117.82C166.43 117.82 168.83 119.05 169.98 119.71C169.98 119.71 192.51 133.11 193.77 133.61C200.42 136.28 204.5 136.95 205.13 136.97C207.11 137.02 210.32 135.1 211.62 132.08C212.92 129.06 210.25 128.07 207.67 126.47V126.46Z" fill="#FFA681"/>
<path d="M139.144 103.827L138.342 105.659L167.025 118.214L167.827 116.382L139.144 103.827Z" fill="#919191"/>
<path d="M121.542 96.4203L120.959 97.7479L138.456 105.432L139.039 104.105L121.542 96.4203Z" fill="#7B7B7B"/>
<path d="M107.42 90.4167L106.974 91.4332L121.023 97.5942L121.468 96.5777L107.42 90.4167Z" fill="#7B7B7B"/>
<path d="M95.965 85.5624L95.6406 86.3046L107.039 91.287L107.364 90.5448L95.965 85.5624Z" fill="#7B7B7B"/>
<path d="M95.26 86.54C96.02 86.87 96.77 86.82 96.95 86.43C97.12 86.03 96.65 85.45 95.89 85.11C95.13 84.78 94.38 84.82 94.2 85.22C94.03 85.61 94.5 86.2 95.26 86.54Z" fill="#7B7B7B"/>
<path d="M151.16 111.69C151.16 111.69 156.37 109.89 158.07 109.22C159.77 108.55 165.87 109.56 169.77 111.94C169.77 111.94 171.82 114.39 170.87 116.27C169.92 118.15 166.99 119.02 166.68 119.08C166.37 119.14 158.16 119.47 158.16 119.47C158.16 119.47 156.74 119.62 156.3 118.93C155.86 118.24 156.13 118.03 156.13 118.03C156.13 118.03 154.89 118.2 154.18 117.5C153.47 116.8 153.72 116.39 153.72 116.39C153.72 116.39 152.97 116.76 152.2 115.55C151.43 114.34 151.96 114.09 151.96 114.09C151.96 114.09 150.13 112.94 151.16 111.69Z" fill="#FFA681"/>
</g>
<defs>
<linearGradient id="paint0_linear_61_9005" x1="126.369" y1="153.197" x2="128.471" y2="-17.7552" gradientUnits="userSpaceOnUse">
<stop stop-color="#1F254B"/>
<stop offset="1" stop-color="#72C6CE"/>
</linearGradient>
<linearGradient id="paint1_linear_61_9005" x1="126.808" y1="148.432" x2="128.623" y2="-8.97801" gradientUnits="userSpaceOnUse">
<stop stop-color="#4678BE"/>
<stop offset="1" stop-color="#66E4FF"/>
</linearGradient>
<clipPath id="clip0_61_9005">
<rect width="243.73" height="175.02" fill="white"/>
</clipPath>
</defs>
</svg>
