<svg width="244" height="175" viewBox="0 0 244 175" fill="none" xmlns="http://www.w3.org/2000/svg">
<mask id="mask0_130_242" style="mask-type:alpha" maskUnits="userSpaceOnUse" x="0" y="0" width="244" height="175">
<rect width="244" height="175" fill="#D9D9D9"/>
</mask>
<g mask="url(#mask0_130_242)">
<path opacity="0.26" d="M9.21148 101.27L14.3915 93.64C14.3915 93.64 37.6915 67.14 38.4015 37.1C39.1115 7.06001 49.4615 3.07001 74.2615 1.32001C95.2315 -0.159993 119.461 -4.55999 139.021 12.6C147.601 20.13 157.741 23.99 168.011 23.59L190.631 22.71C201.421 22.29 212.061 26.56 220.871 34.9C233.931 47.25 248.041 69.94 242.481 108.36C241.541 114.88 240.951 121.73 240.881 128.38L240.711 144.72C240.561 159.07 231.901 170.61 221.021 170.85L51.2415 174.73C33.7915 175.13 16.9715 165.79 4.91149 149.01C1.70149 144.51 -0.0585148 138.56 0.00148518 132.43C0.121485 120.89 3.39148 109.83 9.21148 101.27Z" fill="url(#paint0_linear_130_242)"/>
<path d="M15.9214 100.51L20.8014 93.5C20.8014 93.5 42.7214 69.14 43.3814 41.52C44.0414 13.89 53.7814 10.24 77.1214 8.64002C96.8514 7.29002 119.641 3.26002 138.051 19.05C146.131 25.98 155.671 29.53 165.321 29.17L186.601 28.37C196.751 27.99 206.761 31.93 215.061 39.6C227.351 50.97 240.791 71.84 235.571 107.18C234.681 113.18 234.301 119.48 234.241 125.59L234.081 140.61C233.941 153.81 225.631 164.41 215.391 164.63L55.5714 168.09C39.1514 168.45 23.2814 159.84 11.9314 144.4C8.90136 140.28 7.23136 134.81 7.28136 129.17C7.39136 118.56 10.4514 108.39 15.9214 100.52V100.51Z" fill="url(#paint1_linear_130_242)"/>
<path d="M211.562 163.02V45.97C211.562 44.4015 210.29 43.13 208.722 43.13L47.9315 43.13C46.363 43.13 45.0915 44.4015 45.0915 45.97V163.02C45.0915 164.589 46.363 165.86 47.9315 165.86H208.722C210.29 165.86 211.562 164.589 211.562 163.02Z" fill="#1D567E"/>
<path d="M203.862 54.99V153.99C203.862 156.29 201.991 158.16 199.691 158.16H56.9615C54.6615 158.16 52.7915 156.29 52.7915 153.99V54.99C52.7915 54.6 52.8415 54.21 52.9515 53.85C53.3215 52.54 54.3115 51.5 55.5915 51.05C56.0215 50.9 56.4815 50.82 56.9615 50.82H199.691C200.171 50.82 200.642 50.9 201.072 51.05C202.342 51.49 203.342 52.54 203.712 53.85C203.812 54.21 203.871 54.6 203.871 54.99H203.862Z" fill="white"/>
<path d="M192.342 77.83H163.582C162.262 77.83 161.192 76.76 161.192 75.44C161.192 74.12 162.262 73.05 163.582 73.05H192.342C193.662 73.05 194.732 74.12 194.732 75.44C194.732 76.76 193.662 77.83 192.342 77.83Z" fill="#D1E6EC"/>
<path d="M192.342 87.68H163.582C162.262 87.68 161.192 86.61 161.192 85.29C161.192 83.97 162.262 82.9 163.582 82.9H192.342C193.662 82.9 194.732 83.97 194.732 85.29C194.732 86.61 193.662 87.68 192.342 87.68Z" fill="#D1E6EC"/>
<path d="M192.342 97.54H163.582C162.262 97.54 161.192 96.47 161.192 95.15C161.192 93.83 162.262 92.76 163.582 92.76H192.342C193.662 92.76 194.732 93.83 194.732 95.15C194.732 96.47 193.662 97.54 192.342 97.54Z" fill="#D1E6EC"/>
<path d="M192.342 102.62H163.592C162.272 102.62 161.202 103.688 161.202 105.005C161.202 106.322 162.272 107.39 163.592 107.39H192.342C193.662 107.39 194.732 106.322 194.732 105.005C194.732 103.688 193.662 102.62 192.342 102.62Z" fill="#D1E6EC"/>
<path d="M203.862 54.82V64.83H52.7915V54.82C52.7915 54.42 52.8415 54.03 52.9515 53.66C53.3215 52.33 54.3115 51.27 55.5915 50.82H201.072C202.342 51.27 203.342 52.34 203.712 53.66C203.812 54.03 203.871 54.42 203.871 54.82H203.862Z" fill="#D1E6EC"/>
<path d="M189.591 58.07V58.53C189.591 59.42 188.871 60.13 187.991 60.13H81.2714C80.2614 60.13 79.4414 59.31 79.4414 58.3C79.4414 57.29 80.2614 56.47 81.2714 56.47H187.991C188.881 56.47 189.591 57.19 189.591 58.07Z" fill="white"/>
<path d="M64.2215 58.29V59.65C64.2215 60.04 63.8015 60.28 63.4615 60.09L62.2915 59.41L61.1215 58.73C60.7815 58.54 60.7815 58.05 61.1215 57.85L62.2915 57.17L63.4615 56.49C63.8015 56.3 64.2215 56.54 64.2215 56.93V58.29Z" fill="#002B5C"/>
<path d="M70.3416 58.29V59.65C70.3416 60.04 70.7616 60.28 71.1016 60.09L72.2716 59.41L73.4416 58.73C73.7816 58.54 73.7816 58.05 73.4416 57.85L72.2716 57.17L71.1016 56.49C70.7616 56.3 70.3416 56.54 70.3416 56.93V58.29Z" fill="#002B5C"/>
<path d="M91.1815 114.78H77.7515V158.17H91.1815V114.78Z" fill="#78B4E6"/>
<path d="M74.1314 102.22H60.7014V158.16H74.1314V102.22Z" fill="#ABD0EF"/>
<path d="M108.232 133.97H94.8015V158.16H108.232V133.97Z" fill="#529FDF"/>
<path d="M125.281 133.97H111.851V158.16H125.281V133.97Z" fill="#529FDF"/>
<path d="M178.261 97.15C183.111 97.15 187.041 93.219 187.041 88.37C187.041 83.5209 183.111 79.59 178.261 79.59C173.412 79.59 169.481 83.5209 169.481 88.37C169.481 93.219 173.412 97.15 178.261 97.15Z" fill="#DC927B"/>
<path d="M201.872 135.49C205.749 135.49 208.892 132.347 208.892 128.47C208.892 124.593 205.749 121.45 201.872 121.45C197.995 121.45 194.852 124.593 194.852 128.47C194.852 132.347 197.995 135.49 201.872 135.49Z" fill="#DC927B"/>
<path d="M195.831 132.04L207.931 124.9C193.601 95.92 185.831 83.91 185.831 83.91L170.711 92.83C170.711 92.83 178.771 108.03 195.831 132.04Z" fill="#DC927B"/>
<path d="M178.261 97.15C183.111 97.15 187.041 93.219 187.041 88.37C187.041 83.5209 183.111 79.59 178.261 79.59C173.412 79.59 169.481 83.5209 169.481 88.37C169.481 93.219 173.412 97.15 178.261 97.15Z" fill="#E8492D"/>
<path d="M180.121 110.65L197.381 100.89L185.821 83.91L170.701 92.83L180.121 110.65Z" fill="#E8492D"/>
<path d="M122.572 100.07C127.421 100.07 131.352 96.1391 131.352 91.29C131.352 86.4409 127.421 82.51 122.572 82.51C117.722 82.51 113.792 86.4409 113.792 91.29C113.792 96.1391 117.722 100.07 122.572 100.07Z" fill="#DC927B"/>
<path d="M98.9614 138.42C102.838 138.42 105.981 135.277 105.981 131.4C105.981 127.523 102.838 124.38 98.9614 124.38C95.0844 124.38 91.9414 127.523 91.9414 131.4C91.9414 135.277 95.0844 138.42 98.9614 138.42Z" fill="#DC927B"/>
<path d="M105.011 134.96L92.9114 127.82C107.241 98.84 115.011 86.83 115.011 86.83L130.131 95.75C130.131 95.75 122.071 110.95 105.011 134.96Z" fill="#DC927B"/>
<path d="M122.572 100.07C127.421 100.07 131.352 96.1391 131.352 91.29C131.352 86.4409 127.421 82.51 122.572 82.51C117.722 82.51 113.792 86.4409 113.792 91.29C113.792 96.1391 117.722 100.07 122.572 100.07Z" fill="#E8492D"/>
<path d="M120.711 113.58L103.451 103.82L115.011 86.83L130.131 95.75L120.711 113.58Z" fill="#E8492D"/>
<mask id="mask1_130_242" style="mask-type:luminance" maskUnits="userSpaceOnUse" x="52" y="-21" width="182" height="180">
<path d="M233.542 -21H52.7915V158.16H233.542V-21Z" fill="white"/>
</mask>
<g mask="url(#mask1_130_242)">
<path d="M146.071 68.87L119.291 82.15C117.461 83.06 116.621 85.2 117.341 87.11L135.871 135.42L168.501 132.93L178.661 81.8C179.061 79.76 177.811 77.75 175.801 77.2L146.061 68.86L146.071 68.87Z" fill="#FA5F2D"/>
<path d="M127.552 78.06L146.072 68.87L167.112 74.77C167.112 74.77 166.612 84.13 147.962 85.56C129.312 86.98 127.542 78.06 127.542 78.06H127.552Z" fill="#DC927B"/>
<path d="M130.701 121.95L122.621 100.87" stroke="#E8492D" stroke-width="0.98" stroke-linecap="round" stroke-linejoin="round"/>
<path d="M171.201 119.36L175.881 95.81" stroke="#E8492D" stroke-width="0.98" stroke-linecap="round" stroke-linejoin="round"/>
<path d="M168.332 132.956L135.647 135.448L136.028 140.444L168.713 137.952L168.332 132.956Z" fill="#18315B"/>
<path d="M139.741 154.92C131.711 154.31 125.571 159.94 124.351 167.9C123.111 175.99 122.491 185.69 123.051 197.14C124.451 225.6 127.721 250.08 130.081 262.73C131.281 269.15 137.121 273.62 143.621 273.12C150.241 272.62 155.381 267.12 155.441 260.48L154.231 170.38C154.301 162.29 148.081 155.54 140.011 154.94C139.921 154.94 139.821 154.93 139.731 154.92H139.741Z" fill="#0172D0"/>
<path d="M167.121 152.83C174.961 151.01 181.891 155.65 184.301 163.33C186.751 171.14 188.831 180.63 190.011 192.04C192.941 220.39 193.421 245.08 193.001 257.94C192.791 264.46 187.701 269.77 181.191 270.26C174.571 270.76 168.661 266.11 167.591 259.56L155.131 170.31C153.831 162.32 158.961 154.71 166.841 152.89C166.931 152.87 167.021 152.85 167.111 152.83H167.121Z" fill="#0172D0"/>
<path d="M168.701 137.96L136.021 140.45C136.021 140.45 128.021 146.97 124.771 166L150.641 178.31C153.651 179.82 157.211 179.55 159.961 177.6L183.621 161.54C177.221 143.8 168.711 137.96 168.711 137.96H168.701Z" fill="#0172D0"/>
<path d="M138.101 146.5C138.101 146.5 138.301 157.62 128.941 161.13" stroke="#0056C5" stroke-width="0.71" stroke-linecap="round" stroke-linejoin="round"/>
<path d="M167.312 144.27C167.312 144.27 168.802 155.29 178.582 157.34" stroke="#0056C5" stroke-width="0.71" stroke-linecap="round" stroke-linejoin="round"/>
</g>
<path d="M176.972 44.08C170.932 41.22 174.002 33.7 168.842 31.46C163.682 29.22 167.382 25.39 161.362 20.53C155.552 15.84 146.502 18.62 139.872 19.64C139.162 19.75 138.452 19.86 137.792 20.13C134.462 21.5 130.522 22.06 127.032 23C127.032 23 119.582 24.54 118.642 31.33C117.692 38.12 118.102 36.5 114.232 40.21C110.362 43.92 115.872 47.37 112.862 51.02C111.322 52.88 110.642 54.36 110.602 56.01C110.542 58.91 112.732 61.33 115.572 61.91C117.512 62.31 119.202 63.99 120.522 66.35C123.132 71.04 131.002 68.32 131.002 68.32C131.002 68.32 138.922 72.16 143.312 68.53C143.692 68.22 143.952 67.6 144.132 66.73L148.422 68.12C160.032 71.35 165.342 64.46 165.342 64.46C171.672 64.71 173.952 56.95 173.952 56.95C179.812 55.34 183.012 46.92 176.972 44.06V44.08Z" fill="#18315B"/>
<path d="M150.431 19.36C150.431 19.36 147.031 12.57 136.721 13.36C126.411 14.15 124.031 25.14 124.031 25.14L139.701 32.68L150.431 19.36Z" fill="#18315B"/>
<path d="M130.962 45.88C132.162 48.09 132.352 51.79 130.242 52.78C128.132 53.76 125.312 51.01 124.112 48.8C122.912 46.59 123.382 44.55 125.502 43.57C127.612 42.59 129.762 43.68 130.962 45.89V45.88Z" fill="#DC927B"/>
<path d="M125.642 46.32C125.642 46.32 128.242 45.41 129.512 48.95" stroke="#AD523F" stroke-width="0.42" stroke-linecap="round" stroke-linejoin="round"/>
<path d="M158.562 43.78C157.712 46.15 158.082 49.84 160.312 50.49C162.552 51.14 164.912 47.99 165.762 45.63C166.612 43.26 165.832 41.32 163.602 40.67C161.362 40.02 159.402 41.42 158.552 43.79L158.562 43.78Z" fill="#DC927B"/>
<path d="M163.892 43.41C163.892 43.41 161.182 42.91 160.462 46.59" stroke="#AD523F" stroke-width="0.42" stroke-linecap="round" stroke-linejoin="round"/>
<path d="M145.398 53.5721C155.514 52.8009 163.115 44.3052 162.375 34.5966C161.635 24.888 152.834 17.6429 142.718 18.4142C132.602 19.1855 125.001 27.6811 125.741 37.3897C126.481 47.0983 135.282 54.3434 145.398 53.5721Z" fill="#18315B"/>
<path d="M152.922 60.48L153.982 74.34C153.982 74.34 151.612 79.21 147.942 79.81C144.282 80.41 140.672 76.33 140.672 76.33L139.592 62.15L152.932 60.49L152.922 60.48Z" fill="#DC927B"/>
<path d="M152.692 57.5L153.232 64.55C150.962 67.49 146.642 68.8 140.052 68.33L139.352 59.16L152.692 57.5Z" fill="#AD523F"/>
<path d="M142.882 20.48C134.412 21.13 127.432 28.25 128.052 36.33L129.282 45.99C129.282 45.99 130.502 59.72 143.872 62.91C145.352 63.26 146.932 63.14 148.342 62.57C161.072 57.39 160.202 43.63 160.202 43.63L159.952 33.9C159.332 25.82 151.362 19.84 142.892 20.48H142.882Z" fill="#DC927B"/>
<path d="M137.534 43.6971C138.156 43.6497 138.6 42.8211 138.526 41.8464C138.451 40.8716 137.887 40.1199 137.264 40.1674C136.642 40.2148 136.198 41.0435 136.272 42.0182C136.347 42.9929 136.911 43.7446 137.534 43.6971Z" fill="#18315B"/>
<path d="M151.423 42.6443C152.045 42.5968 152.489 41.7682 152.415 40.7935C152.341 39.8188 151.776 39.0671 151.154 39.1145C150.531 39.162 150.087 39.9906 150.161 40.9653C150.236 41.94 150.8 42.6917 151.423 42.6443Z" fill="#18315B"/>
<path d="M134.772 36.85C135.682 36.51 137.542 35.92 139.532 35.76C140.052 35.72 140.492 36.15 140.442 36.68C140.402 37.11 140.052 37.43 139.632 37.44C138.272 37.48 134.732 37.94 133.102 38.75C133.042 38.46 133.192 38.13 133.412 37.83C133.752 37.37 134.232 37.05 134.772 36.85Z" fill="#18315B"/>
<path d="M152.952 35.5C152.002 35.31 150.072 35 148.082 35.15C147.562 35.19 147.192 35.68 147.322 36.19C147.432 36.61 147.822 36.87 148.232 36.82C149.582 36.65 153.152 36.57 154.882 37.13C154.892 36.84 154.692 36.53 154.432 36.26C154.032 35.86 153.502 35.61 152.942 35.5H152.952Z" fill="#18315B"/>
<path d="M145.232 49.46C144.902 49.49 144.562 49.46 144.272 49.31C144.002 49.18 143.662 48.89 143.562 48.3C143.272 46.71 143.302 41.67 143.302 41.46C143.302 41.22 143.502 41.02 143.742 41.03C143.982 41.03 144.172 41.23 144.172 41.47C144.172 41.52 144.142 46.64 144.412 48.15C144.462 48.41 144.572 48.5 144.652 48.54C145.082 48.75 146.002 48.43 146.382 48.24C146.602 48.13 146.862 48.22 146.962 48.44C147.072 48.66 146.982 48.92 146.772 49.02C146.662 49.07 145.952 49.42 145.222 49.47L145.232 49.46Z" fill="#AD523F"/>
<path d="M139.922 52.63C140.372 54.26 141.702 57.22 145.382 56.94C149.062 56.66 149.892 53.8 150.102 51.86L139.922 52.64V52.63Z" fill="white"/>
<path d="M145.522 59.48C144.462 59.56 143.482 59.06 143.432 59.04C143.222 58.93 143.132 58.67 143.242 58.45C143.352 58.24 143.612 58.15 143.832 58.26C143.832 58.26 144.642 58.67 145.452 58.61C146.332 58.54 147.082 58.02 147.082 58.01C147.282 57.87 147.552 57.92 147.692 58.11C147.832 58.31 147.782 58.58 147.592 58.72C147.552 58.75 146.642 59.39 145.522 59.48Z" fill="#AD523F"/>
<path d="M150.432 19.36C150.432 19.36 150.332 27.08 142.432 28.9C134.382 30.76 136.532 35.77 126.542 35.29C126.542 35.29 122.542 29.96 127.402 23.78C130.622 19.69 137.232 15.97 142.192 16.13C143.862 16.18 148.022 19.02 150.432 19.36Z" fill="#18315B"/>
<path d="M149.562 20.38C149.562 20.38 146.422 25.76 162.382 34.6C162.382 34.6 164.592 30.89 162.702 27.79C160.812 24.7 149.562 20.37 149.562 20.37V20.38Z" fill="#18315B"/>
<path d="M163.462 128.15C173.64 128.15 181.891 119.899 181.891 109.72C181.891 99.5414 173.64 91.29 163.462 91.29C153.283 91.29 145.031 99.5414 145.031 109.72C145.031 119.899 153.283 128.15 163.462 128.15Z" fill="#529FDF"/>
<path d="M163.501 109.72L149.001 98.3899C152.571 93.8199 157.701 91.3199 163.501 91.3199V109.72Z" fill="#ABD0EF"/>
<path d="M163.502 109.72L149.202 121.3C143.722 114.53 143.642 105.26 149.002 98.39L163.502 109.72Z" fill="#D1E6EC"/>
<path d="M163.501 109.72V91.3199C166.401 91.3199 168.651 91.8199 171.281 93.0399L163.501 109.72Z" fill="#78B4E6"/>
<path d="M125.891 137.89C128.526 137.89 130.661 135.754 130.661 133.12C130.661 130.486 128.526 128.35 125.891 128.35C123.257 128.35 121.121 130.486 121.121 133.12C121.121 135.754 123.257 137.89 125.891 137.89Z" fill="#FBAB7F"/>
<path d="M129.811 130.42C129.811 130.42 132.221 133.44 135.441 137.84C136.431 139.19 141.201 147.34 141.201 147.34C141.201 147.34 139.571 149.4 137.791 147.17C136.011 144.94 135.751 143.77 135.751 143.77L133.681 141.39C133.681 141.39 131.251 142.03 128.461 141.01C128.461 141.01 122.121 137.57 124.111 133.07C125.811 129.22 129.811 130.41 129.811 130.41V130.42Z" fill="#DC927B"/>
<path d="M135.201 143.16C135.601 142.93 136.061 142.89 136.481 143C136.691 143.06 136.881 143.15 137.061 143.29C137.151 143.36 137.231 143.43 137.301 143.52C137.341 143.56 137.371 143.61 137.401 143.65L137.461 143.74C137.461 143.74 137.481 143.77 137.561 143.9C137.671 144.07 137.861 144.39 138.211 144.95C138.491 145.44 139.611 147.44 140.491 149.63C141.411 151.81 142.041 154.18 142.171 155C142.481 156.43 142.481 156.73 142.511 156.78C142.621 157.62 142.051 158.36 141.271 158.41C140.481 158.46 139.781 157.93 139.691 157.21C139.661 157.11 139.641 156.83 139.371 155.65C139.191 154.82 138.511 152.7 137.591 150.77C136.691 148.82 135.611 147.08 135.351 146.68C135.041 146.18 134.861 145.9 134.761 145.76C134.631 145.57 134.601 145.53 134.601 145.53C134.531 145.41 134.511 145.36 134.491 145.32C134.471 145.27 134.451 145.22 134.431 145.16C134.401 145.05 134.371 144.95 134.361 144.84C134.331 144.62 134.361 144.41 134.411 144.2C134.521 143.79 134.801 143.41 135.201 143.18V143.16Z" fill="#DC927B"/>
<path d="M137.461 143.73L138.081 145.01C138.901 146.68 139.691 148.34 140.361 150.07C141.031 151.67 141.581 153.31 142.041 155.01C142.221 155.58 142.341 156.18 142.511 156.76C142.471 156.15 142.451 155.53 142.341 154.94C142.071 153.18 141.541 151.48 140.911 149.85C140.181 148.12 139.351 146.45 138.301 144.88L137.881 144.28L137.661 143.98C137.591 143.9 137.471 143.73 137.461 143.73Z" fill="#AD523F"/>
<path d="M133.221 144.33C134.021 143.87 135.051 144.16 135.521 144.97C135.521 144.97 135.541 145.01 135.651 145.22C135.741 145.4 135.901 145.74 136.181 146.33C136.401 146.85 137.311 148.99 137.981 151.28C138.691 153.55 139.131 155.98 139.231 156.8C139.451 158.22 139.461 158.51 139.481 158.57C139.561 159.4 138.981 160.11 138.191 160.15C137.401 160.2 136.711 159.63 136.641 158.9C136.621 158.8 136.581 158.51 136.391 157.29C136.241 156.42 135.721 154.2 134.971 152.13C134.261 150.06 133.351 148.16 133.141 147.74C132.631 146.65 132.561 146.59 132.581 146.61C132.131 145.82 132.411 144.8 133.221 144.34V144.33Z" fill="#DC927B"/>
<path d="M135.521 144.97C135.731 145.51 135.871 145.92 136.041 146.39C136.681 148.16 137.301 149.92 137.811 151.72C138.331 153.39 138.741 155.09 139.111 156.81L139.491 158.56C139.491 157.96 139.481 157.36 139.421 156.76C139.251 154.99 138.871 153.25 138.391 151.55C137.821 149.75 137.171 147.97 136.291 146.28C136.051 145.84 135.841 145.46 135.531 144.97H135.521Z" fill="#AD523F"/>
<path d="M131.311 145.44C132.121 144.98 133.141 145.26 133.601 146.07C133.601 146.07 133.621 146.11 133.731 146.32C133.831 146.52 134.001 146.86 134.271 147.47C134.471 147.95 135.231 149.92 135.681 152.03C136.171 154.13 136.321 156.35 136.321 157.08C136.381 158.53 136.351 158.82 136.361 158.88C136.331 159.72 135.661 160.35 134.881 160.29C134.091 160.23 133.481 159.58 133.511 158.85C133.511 158.75 133.511 158.46 133.451 157.24C133.401 156.47 133.161 154.49 132.631 152.66C132.141 150.82 131.401 149.17 131.211 148.81C130.981 148.28 130.831 148.01 130.761 147.87C130.691 147.75 130.681 147.73 130.681 147.73C130.221 146.92 130.501 145.9 131.311 145.44Z" fill="#DC927B"/>
<path d="M133.601 146.07C133.831 146.62 133.971 147.05 134.141 147.54C134.681 149.17 135.151 150.78 135.481 152.43C135.831 153.96 136.051 155.52 136.201 157.1C136.281 157.7 136.301 158.3 136.371 158.9C136.431 158.3 136.511 157.69 136.511 157.09C136.561 155.49 136.371 153.89 136.061 152.31C135.671 150.64 135.161 149 134.381 147.44C134.151 146.98 133.931 146.58 133.601 146.08V146.07Z" fill="#AD523F"/>
<path d="M129.421 146.46C129.821 146.23 130.281 146.19 130.701 146.3C130.911 146.36 131.101 146.45 131.281 146.59C131.371 146.66 131.451 146.73 131.521 146.82C131.561 146.86 131.591 146.91 131.621 146.95L131.671 147.02L131.751 147.16C131.751 147.16 131.771 147.21 131.891 147.49C131.981 147.71 132.121 148.09 132.311 148.76C132.401 149.1 132.701 150.52 132.781 151.97C132.891 153.42 132.751 154.9 132.691 155.39C132.571 156.86 132.461 157.13 132.471 157.2C132.341 158.03 131.571 158.56 130.801 158.38C130.031 158.2 129.531 157.48 129.641 156.77C129.641 156.67 129.731 156.39 129.801 155.19C129.821 154.69 129.831 153.4 129.651 152.2C129.491 150.99 129.171 149.91 129.071 149.67C128.921 149.15 128.811 148.88 128.761 148.75C128.701 148.61 128.741 148.7 128.731 148.67L128.701 148.6C128.681 148.55 128.661 148.5 128.641 148.44C128.611 148.33 128.581 148.23 128.571 148.12C128.541 147.9 128.571 147.69 128.621 147.48C128.731 147.07 129.011 146.69 129.411 146.46H129.421Z" fill="#DC927B"/>
<path d="M131.751 147.16C131.841 147.39 131.861 147.5 131.901 147.64L132.001 148.03C132.061 148.29 132.121 148.54 132.161 148.8C132.331 149.97 132.461 151.09 132.501 152.22C132.581 153.27 132.561 154.33 132.561 155.38C132.551 155.99 132.511 156.59 132.481 157.2C132.651 156.61 132.781 156.01 132.871 155.4C133.071 154.34 133.131 153.26 133.101 152.17C133.011 151.01 132.831 149.85 132.421 148.72C132.341 148.47 132.241 148.23 132.141 147.98L131.971 147.6L131.751 147.15V147.16Z" fill="#AD523F"/>
<path d="M130.031 130.76C128.731 128.47 125.811 127.67 123.531 128.98C121.421 130.18 120.581 132.75 121.481 134.93C121.561 135.12 122.171 136.78 124.011 140.72C125.711 144.37 127.811 147.56 127.811 147.56C128.271 148.37 129.291 148.65 130.101 148.19C130.911 147.73 135.991 144.83 135.991 144.83C136.801 144.37 137.081 143.34 136.621 142.54L130.041 130.75L130.031 130.76Z" fill="#DC927B"/>
<path d="M125.231 127.93L124.731 137.55L98.5613 138.35L99.2913 124.33L125.231 127.93Z" fill="#DC927B"/>
<path d="M98.9314 138.36C102.808 138.36 105.951 135.217 105.951 131.34C105.951 127.463 102.808 124.32 98.9314 124.32C95.0543 124.32 91.9114 127.463 91.9114 131.34C91.9114 135.217 95.0543 138.36 98.9314 138.36Z" fill="#DC927B"/>
<path d="M124.981 137.61C127.671 137.61 129.851 135.43 129.851 132.74C129.851 130.05 127.671 127.87 124.981 127.87C122.292 127.87 120.111 130.05 120.111 132.74C120.111 135.43 122.292 137.61 124.981 137.61Z" fill="#DC927B"/>
<path d="M119.301 127.2C119.301 127.2 115.061 127.8 114.831 132.17C114.571 137.07 118.051 137.65 118.051 137.65L98.5613 138.35L99.2913 124.32L119.301 127.19V127.2Z" fill="#DC927B"/>
<path d="M102.121 124.75L115.081 126.27" stroke="#AD523F" stroke-width="0.98" stroke-linecap="round" stroke-linejoin="round"/>
<path d="M170.062 134.97C172.696 134.97 174.832 132.834 174.832 130.2C174.832 127.566 172.696 125.43 170.062 125.43C167.427 125.43 165.292 127.566 165.292 130.2C165.292 132.834 167.427 134.97 170.062 134.97Z" fill="#FBAB7F"/>
<path d="M172.052 125.86C172.052 125.86 166.482 123.07 160.932 120.77C159.382 120.13 152.022 118.46 152.022 118.46C152.022 118.46 150.632 120.69 153.332 121.62C156.032 122.55 157.152 122.98 157.152 122.98L160.092 124.13C160.092 124.13 159.872 128.16 161.762 130.44C161.762 130.44 168.022 135.41 171.592 132.02C174.642 129.13 172.052 125.87 172.052 125.87V125.86Z" fill="#DC927B"/>
<path d="M157.382 134.06C157.302 134.52 157.042 134.9 156.692 135.14C156.512 135.26 156.312 135.35 156.102 135.4C155.992 135.42 155.882 135.44 155.772 135.44C155.712 135.44 155.662 135.44 155.602 135.44H155.511H155.501C155.591 135.44 155.362 135.44 153.962 135.24C153.602 135.17 152.231 134.91 150.871 134.5C149.501 134.11 148.141 133.51 147.731 133.27C146.491 132.66 146.292 132.46 146.242 132.43C145.862 132.17 145.612 131.79 145.572 131.38C145.522 130.99 145.652 130.63 145.942 130.35C146.222 130.08 146.591 129.93 146.921 129.87C147.241 129.83 147.562 129.86 147.822 130.04C147.882 130.08 148.031 130.21 148.951 130.65C149.341 130.83 150.511 131.24 151.731 131.49C152.941 131.76 154.151 131.9 154.451 131.92C155.711 132.09 155.842 132.07 155.942 132.08L156.111 132.11L156.192 132.13C156.242 132.15 156.302 132.16 156.352 132.18C156.452 132.22 156.551 132.27 156.641 132.33C156.821 132.45 156.982 132.6 157.102 132.78C157.352 133.13 157.462 133.58 157.382 134.03V134.06Z" fill="#DC927B"/>
<path d="M155.501 135.43L153.981 135.07C152.951 134.77 151.911 134.52 150.891 134.19C149.851 133.91 148.831 133.55 147.781 133.15C147.271 132.95 146.751 132.7 146.241 132.42C146.691 132.79 147.171 133.13 147.661 133.4C148.641 134.02 149.691 134.42 150.741 134.76C151.801 135.05 152.861 135.27 153.941 135.35C154.211 135.38 154.481 135.4 154.751 135.41L155.161 135.43H155.371C155.451 135.43 155.521 135.43 155.511 135.43H155.501Z" fill="#AD523F"/>
<path d="M157.932 131.33C157.852 131.79 157.592 132.17 157.242 132.41C157.062 132.53 156.862 132.62 156.652 132.67C156.542 132.69 156.432 132.71 156.322 132.71C156.252 132.71 156.172 132.71 156.092 132.71C156.092 132.71 156.062 132.71 155.922 132.71C155.682 132.7 155.272 132.67 154.562 132.59C154.002 132.52 151.882 132.2 149.802 131.58C147.712 130.99 145.702 130.06 145.102 129.75C143.932 129.17 143.732 129.04 143.682 129.02C142.952 128.6 142.712 127.7 143.152 127.05C143.582 126.39 144.442 126.16 145.062 126.52C145.142 126.55 145.342 126.68 146.332 127.15C146.982 127.44 148.822 128.18 150.712 128.61C152.592 129.07 154.462 129.25 154.922 129.28C155.552 129.35 155.902 129.36 156.082 129.37C156.382 129.37 156.442 129.38 156.442 129.38C156.722 129.43 156.782 129.45 156.892 129.49C156.992 129.53 157.092 129.58 157.182 129.64C157.362 129.76 157.522 129.91 157.642 130.09C157.892 130.44 158.002 130.89 157.922 131.34L157.932 131.33Z" fill="#DC927B"/>
<path d="M156.102 132.71C156.102 132.71 155.912 132.67 155.802 132.65L155.392 132.58L154.592 132.43C152.972 132.11 151.382 131.75 149.822 131.27C148.242 130.84 146.702 130.27 145.172 129.63C144.682 129.44 144.202 129.2 143.702 129.01C144.142 129.31 144.582 129.63 145.052 129.89C146.502 130.74 148.072 131.35 149.662 131.84C151.262 132.28 152.892 132.61 154.572 132.71C154.842 132.73 155.112 132.74 155.392 132.74H155.812C155.932 132.74 156.172 132.74 156.122 132.72L156.102 132.71Z" fill="#AD523F"/>
<path d="M158.412 128.27C158.272 129.19 157.332 129.78 156.512 129.64C156.612 129.64 156.342 129.64 154.982 129.42C154.342 129.3 151.882 128.84 149.452 128.11C147.012 127.42 144.622 126.38 143.912 126.02C142.742 125.46 142.532 125.34 142.482 125.32C141.742 124.91 141.492 124.03 141.902 123.36C142.322 122.69 143.172 122.44 143.802 122.79C143.882 122.83 144.102 122.93 145.092 123.4C145.872 123.75 148.112 124.6 150.392 125.15C152.662 125.73 154.922 126.06 155.482 126.12C156.792 126.31 156.862 126.3 156.972 126.31C158.002 126.49 158.522 127.35 158.392 128.27H158.412Z" fill="#DC927B"/>
<path d="M156.521 129.64L155.011 129.26C153.141 128.82 151.281 128.37 149.451 127.8C147.601 127.28 145.781 126.64 143.971 125.91L142.491 125.32C142.931 125.61 143.381 125.91 143.851 126.17C145.591 127.12 147.431 127.8 149.281 128.37C151.151 128.89 153.031 129.32 154.961 129.54C155.461 129.59 156.061 129.64 156.511 129.64H156.521Z" fill="#AD523F"/>
<path d="M158.941 125.23C158.861 125.69 158.601 126.07 158.251 126.31C158.071 126.43 157.871 126.52 157.661 126.57C157.551 126.59 157.441 126.61 157.331 126.61C157.261 126.61 157.181 126.61 157.101 126.61C157.101 126.61 157.071 126.61 156.931 126.61C156.691 126.6 156.281 126.57 155.571 126.49C154.951 126.42 152.621 126.05 150.341 125.37C148.051 124.71 145.861 123.72 145.201 123.4C144.041 122.83 143.831 122.74 143.781 122.71C143.051 122.32 142.781 121.44 143.181 120.76C143.581 120.08 144.431 119.81 145.081 120.17C145.161 120.22 145.381 120.31 146.381 120.79C147.111 121.1 149.181 121.91 151.271 122.41C153.361 122.93 155.411 123.15 155.921 123.17C156.551 123.24 156.901 123.25 157.081 123.26C157.381 123.26 157.441 123.26 157.441 123.26C157.721 123.31 157.791 123.33 157.891 123.37C157.991 123.41 158.091 123.46 158.181 123.52C158.361 123.64 158.521 123.79 158.641 123.97C158.891 124.32 159.001 124.77 158.921 125.22L158.941 125.23Z" fill="#DC927B"/>
<path d="M157.112 126.61C157.112 126.61 156.922 126.57 156.812 126.55L156.402 126.48L155.602 126.33C153.812 125.99 152.072 125.59 150.362 125.06C148.632 124.58 146.942 123.96 145.272 123.29L143.802 122.71C144.242 123.01 144.692 123.28 145.152 123.55C146.752 124.43 148.452 125.09 150.202 125.63C151.952 126.12 153.742 126.48 155.582 126.6C155.852 126.62 156.122 126.63 156.402 126.63H156.822C156.942 126.63 157.182 126.63 157.132 126.61H157.112Z" fill="#AD523F"/>
<path d="M170.892 125.5C173.482 125.96 175.212 128.43 174.762 131.03C174.382 133.19 172.592 134.76 170.512 134.95C170.092 134.99 167.602 135.24 162.742 135.52C158.722 135.75 155.412 135.52 155.412 135.52C154.502 135.36 153.892 134.49 154.052 133.57C154.212 132.66 155.632 124.62 155.632 124.62C155.792 123.71 156.662 123.1 157.582 123.26L170.892 125.49V125.5Z" fill="#DC927B"/>
<path d="M169.752 125.31L170.262 134.93L202.272 135.43L201.542 121.4L169.752 125.31Z" fill="#DC927B"/>
<path d="M201.902 135.43C205.779 135.43 208.922 132.287 208.922 128.41C208.922 124.533 205.779 121.39 201.902 121.39C198.025 121.39 194.882 124.533 194.882 128.41C194.882 132.287 198.025 135.43 201.902 135.43Z" fill="#DC927B"/>
<path d="M170.012 134.99C172.701 134.99 174.882 132.81 174.882 130.12C174.882 127.43 172.701 125.25 170.012 125.25C167.322 125.25 165.142 127.43 165.142 130.12C165.142 132.81 167.322 134.99 170.012 134.99Z" fill="#DC927B"/>
<path d="M175.682 124.58C175.682 124.58 179.922 125.18 180.152 129.55C180.412 134.45 176.932 135.03 176.932 135.03L202.262 135.43L201.532 121.4L175.682 124.58Z" fill="#DC927B"/>
<path d="M198.712 121.83L185.752 123.34" stroke="#AD523F" stroke-width="0.98" stroke-linecap="round" stroke-linejoin="round"/>
</g>
<defs>
<linearGradient id="paint0_linear_130_242" x1="128.169" y1="153.004" x2="130.272" y2="-17.9484" gradientUnits="userSpaceOnUse">
<stop stop-color="#1F254B"/>
<stop offset="1" stop-color="#72C6CE"/>
</linearGradient>
<linearGradient id="paint1_linear_130_242" x1="128.604" y1="148.268" x2="130.419" y2="-9.14195" gradientUnits="userSpaceOnUse">
<stop stop-color="#4678BE"/>
<stop offset="1" stop-color="#66E4FF"/>
</linearGradient>
</defs>
</svg>
