<?xml version="1.0" encoding="UTF-8"?> <svg xmlns="http://www.w3.org/2000/svg" width="344" height="346" viewBox="0 0 344 346" fill="none"><path fill-rule="evenodd" clip-rule="evenodd" d="M0 24.7598C0 11.0891 11.3702 0.00012207 25.3967 0.00012207H318.276C332.302 0.00012207 343.672 11.0891 343.672 24.7598V320.883C343.672 334.558 332.302 345.643 318.276 345.643H25.3967C11.3702 345.643 0 334.558 0 320.883V24.7598ZM104.178 289.339V133.262H52.2691V289.339H104.178ZM78.2231 111.952C96.3247 111.952 107.591 99.967 107.591 84.9893C107.254 69.6744 96.3248 58.022 78.5665 58.022C60.8102 58.022 49.2005 69.6744 49.2005 84.9893C49.2005 99.967 60.4649 111.952 77.8848 111.952H78.2231ZM184.808 289.339H132.9C132.9 289.339 133.583 147.907 132.902 133.262H184.81V155.359C191.708 144.724 204.055 129.599 231.59 129.599C265.742 129.599 291.351 151.907 291.351 199.846V289.339H239.447V205.841C239.447 184.86 231.933 170.547 213.15 170.547C198.81 170.547 190.269 180.199 186.516 189.52C185.146 192.854 184.808 197.514 184.808 202.179V289.339ZM184.81 155.359V155.897H184.463C184.577 155.719 184.693 155.54 184.81 155.359Z" fill="white"></path></svg> 