<?xml version="1.0" encoding="UTF-8"?> <svg xmlns="http://www.w3.org/2000/svg" width="118" height="48" viewBox="0 0 118 48" fill="none"><path d="M56.8884 34L52.9064 16.18H55.2384L58.0544 29.314L60.7384 16.18H63.0044L59.0664 34H56.8884ZM65.4658 34V16.18H67.9078V34H65.4658ZM71.2309 34V16.18H75.1029C76.4229 16.18 77.4642 16.3853 78.2269 16.796C79.0042 17.192 79.5542 17.7933 79.8769 18.6C80.2142 19.4067 80.3829 20.4113 80.3829 21.614V28.17C80.3829 29.4313 80.2142 30.4947 79.8769 31.36C79.5542 32.2253 79.0189 32.8853 78.2709 33.34C77.5375 33.78 76.5475 34 75.3009 34H71.2309ZM73.7169 32.218H75.1249C76.0342 32.218 76.6795 32.042 77.0609 31.69C77.4422 31.338 77.6695 30.8247 77.7429 30.15C77.8309 29.4753 77.8749 28.6613 77.8749 27.708V21.922C77.8749 20.998 77.8162 20.25 77.6989 19.678C77.5815 19.106 77.3249 18.688 76.9289 18.424C76.5329 18.16 75.9095 18.028 75.0589 18.028H73.7169V32.218ZM87.4744 34.198C86.4478 34.198 85.5898 33.978 84.9004 33.538C84.2258 33.098 83.7124 32.4893 83.3604 31.712C83.0084 30.9347 82.8031 30.0327 82.7444 29.006L84.9444 28.412C84.9884 29.0427 85.0838 29.6513 85.2304 30.238C85.3918 30.8247 85.6484 31.3087 86.0004 31.69C86.3524 32.0567 86.8438 32.24 87.4744 32.24C88.1198 32.24 88.6038 32.064 88.9264 31.712C89.2638 31.3453 89.4324 30.8247 89.4324 30.15C89.4324 29.3433 89.2491 28.698 88.8824 28.214C88.5158 27.7153 88.0538 27.2167 87.4964 26.718L84.5044 24.078C83.9178 23.5647 83.4851 23.0073 83.2064 22.406C82.9278 21.79 82.7884 21.0347 82.7884 20.14C82.7884 18.8347 83.1624 17.8227 83.9104 17.104C84.6584 16.3853 85.6778 16.026 86.9684 16.026C87.6724 16.026 88.2884 16.1213 88.8164 16.312C89.3591 16.488 89.8064 16.7667 90.1584 17.148C90.5251 17.5293 90.8111 18.0133 91.0164 18.6C91.2364 19.172 91.3831 19.8467 91.4564 20.624L89.3444 21.196C89.3004 20.6093 89.2124 20.074 89.0804 19.59C88.9484 19.0913 88.7138 18.6953 88.3764 18.402C88.0538 18.094 87.5844 17.94 86.9684 17.94C86.3524 17.94 85.8684 18.1087 85.5164 18.446C85.1791 18.7687 85.0104 19.2527 85.0104 19.898C85.0104 20.4407 85.0984 20.888 85.2744 21.24C85.4651 21.592 85.7658 21.9513 86.1764 22.318L89.1904 24.958C89.8651 25.5447 90.4591 26.2487 90.9724 27.07C91.4858 27.8767 91.7424 28.8373 91.7424 29.952C91.7424 30.832 91.5591 31.5947 91.1924 32.24C90.8258 32.8707 90.3198 33.3547 89.6744 33.692C89.0438 34.0293 88.3104 34.198 87.4744 34.198Z" fill="#F4FFFC"></path><path d="M62.0002 23.6998L32.4502 40.9337L32.4502 6.4659L62.0002 23.6998Z" fill="#18223D"></path><path d="M50.6514 7.82526L52.1719 10.547L49.0545 10.5029L50.6514 7.82526Z" fill="#18223D"></path><path d="M46.6006 38.3L52.1506 35.0957L52.1506 41.5043L46.6006 38.3Z" fill="#18223D"></path><path d="M60.8402 12.4996L55.3257 15.7646L55.2553 9.35642L60.8402 12.4996Z" fill="#18223D"></path><path d="M66 24L30.3 44.7846L30.3 3.21539L66 24Z" stroke="#18223D" stroke-width="0.2" stroke-linecap="round" stroke-linejoin="round" stroke-dasharray="1.6 1.6"></path><path fill-rule="evenodd" clip-rule="evenodd" d="M66.0505 24.1712C66.0813 24.1533 66.1002 24.1204 66.1002 24.0848C66.1002 24.0492 66.0813 24.0163 66.0505 23.9984L61.7155 21.4746C61.6678 21.4468 61.6066 21.4629 61.5788 21.5107C61.551 21.5584 61.5672 21.6196 61.6149 21.6474L65.8015 24.0848L61.6149 26.5222C61.5672 26.55 61.551 26.6113 61.5788 26.659C61.6066 26.7067 61.6678 26.7229 61.7155 26.6951L66.0505 24.1712ZM34.6855 42.432C34.7332 42.4042 34.7494 42.343 34.7216 42.2953C34.6938 42.2476 34.6326 42.2314 34.5849 42.2592L30.4002 44.6955L30.4002 39.8217C30.4002 39.7665 30.3554 39.7217 30.3002 39.7217C30.245 39.7217 30.2002 39.7665 30.2002 39.8217L30.2002 44.8694C30.2002 44.9052 30.2193 44.9383 30.2504 44.9561C30.2814 44.974 30.3196 44.9739 30.3505 44.9559L34.6855 42.432ZM34.5849 5.91046C34.6326 5.93825 34.6938 5.92209 34.7216 5.87436C34.7494 5.82663 34.7332 5.76541 34.6855 5.73762L30.3505 3.21377C30.3196 3.19577 30.2814 3.19566 30.2504 3.2135C30.2193 3.23134 30.2002 3.2644 30.2002 3.3002L30.2002 8.34789C30.2002 8.40312 30.245 8.44789 30.3002 8.44789C30.3554 8.44789 30.4002 8.40312 30.4002 8.34789L30.4002 3.47413L34.5849 5.91046Z" fill="#18223D"></path><path d="M4.488 34L0.506 16.18H2.838L5.654 29.314L8.338 16.18H10.604L6.666 34H4.488ZM13.0654 34V16.18H15.5074V34H13.0654ZM18.8305 34V16.18H22.7025C24.0225 16.18 25.0638 16.3853 25.8265 16.796C26.6038 17.192 27.1538 17.7933 27.4765 18.6C27.8138 19.4067 27.9825 20.4113 27.9825 21.614V28.17C27.9825 29.4313 27.8138 30.4947 27.4765 31.36C27.1538 32.2253 26.6185 32.8853 25.8705 33.34C25.1371 33.78 24.1471 34 22.9005 34H18.8305ZM21.3165 32.218H22.7245C23.6338 32.218 24.2791 32.042 24.6605 31.69C25.0418 31.338 25.2691 30.8247 25.3425 30.15C25.4305 29.4753 25.4745 28.6613 25.4745 27.708V21.922C25.4745 20.998 25.4158 20.25 25.2985 19.678C25.1811 19.106 24.9245 18.688 24.5285 18.424C24.1325 18.16 23.5091 18.028 22.6585 18.028H21.3165V32.218ZM31.004 34V16.18H33.446V34H31.004Z" fill="#F4FFFC"></path><path d="M62.224 43L61.138 38.14H61.774L62.542 41.722L63.274 38.14H63.892L62.818 43H62.224ZM65.2833 43V38.14H65.9493V43H65.2833ZM67.5756 43V38.14H68.6316C68.9916 38.14 69.2756 38.196 69.4836 38.308C69.6956 38.416 69.8456 38.58 69.9336 38.8C70.0256 39.02 70.0716 39.294 70.0716 39.622V41.41C70.0716 41.754 70.0256 42.044 69.9336 42.28C69.8456 42.516 69.6996 42.696 69.4956 42.82C69.2956 42.94 69.0256 43 68.6856 43H67.5756ZM68.2536 42.514H68.6376C68.8856 42.514 69.0616 42.466 69.1656 42.37C69.2696 42.274 69.3316 42.134 69.3516 41.95C69.3756 41.766 69.3876 41.544 69.3876 41.284V39.706C69.3876 39.454 69.3716 39.25 69.3396 39.094C69.3076 38.938 69.2376 38.824 69.1296 38.752C69.0216 38.68 68.8516 38.644 68.6196 38.644H68.2536V42.514ZM71.5796 43V38.14H73.4636V38.644H72.2576V40.252H73.2356V40.732H72.2576V42.514H73.4756V43H71.5796ZM76.105 43.054C75.777 43.054 75.515 42.99 75.319 42.862C75.123 42.734 74.983 42.552 74.899 42.316C74.815 42.076 74.773 41.796 74.773 41.476V39.634C74.773 39.314 74.815 39.04 74.899 38.812C74.987 38.58 75.127 38.404 75.319 38.284C75.515 38.16 75.777 38.098 76.105 38.098C76.433 38.098 76.693 38.16 76.885 38.284C77.077 38.408 77.215 38.584 77.299 38.812C77.387 39.04 77.431 39.314 77.431 39.634V41.482C77.431 41.798 77.387 42.074 77.299 42.31C77.215 42.546 77.077 42.73 76.885 42.862C76.693 42.99 76.433 43.054 76.105 43.054ZM76.105 42.52C76.285 42.52 76.421 42.484 76.513 42.412C76.605 42.336 76.667 42.232 76.699 42.1C76.731 41.964 76.747 41.806 76.747 41.626V39.496C76.747 39.316 76.731 39.162 76.699 39.034C76.667 38.902 76.605 38.802 76.513 38.734C76.421 38.662 76.285 38.626 76.105 38.626C75.925 38.626 75.787 38.662 75.691 38.734C75.599 38.802 75.537 38.902 75.505 39.034C75.473 39.162 75.457 39.316 75.457 39.496V41.626C75.457 41.806 75.473 41.964 75.505 42.1C75.537 42.232 75.599 42.336 75.691 42.412C75.787 42.484 75.925 42.52 76.105 42.52ZM81.1485 43V38.14H82.3545C82.6465 38.14 82.8785 38.194 83.0505 38.302C83.2265 38.406 83.3545 38.558 83.4345 38.758C83.5145 38.958 83.5545 39.2 83.5545 39.484C83.5545 39.74 83.5085 39.962 83.4165 40.15C83.3285 40.338 83.1965 40.484 83.0205 40.588C82.8445 40.688 82.6245 40.738 82.3605 40.738H81.8265V43H81.1485ZM81.8265 40.252H82.1385C82.3345 40.252 82.4885 40.23 82.6005 40.186C82.7125 40.142 82.7925 40.066 82.8405 39.958C82.8885 39.846 82.9125 39.69 82.9125 39.49C82.9125 39.258 82.8945 39.08 82.8585 38.956C82.8265 38.832 82.7565 38.746 82.6485 38.698C82.5405 38.65 82.3725 38.626 82.1445 38.626H81.8265V40.252ZM84.8713 43V38.14H85.8493C86.1733 38.14 86.4413 38.184 86.6533 38.272C86.8653 38.356 87.0213 38.494 87.1213 38.686C87.2253 38.874 87.2773 39.122 87.2773 39.43C87.2773 39.618 87.2573 39.79 87.2173 39.946C87.1773 40.098 87.1133 40.228 87.0253 40.336C86.9373 40.44 86.8213 40.516 86.6773 40.564L87.3673 43H86.7133L86.0773 40.72H85.5493V43H84.8713ZM85.5493 40.234H85.8073C85.9993 40.234 86.1553 40.21 86.2753 40.162C86.3953 40.114 86.4833 40.032 86.5393 39.916C86.5953 39.8 86.6233 39.638 86.6233 39.43C86.6233 39.146 86.5713 38.942 86.4673 38.818C86.3633 38.69 86.1573 38.626 85.8493 38.626H85.5493V40.234ZM90.0646 43.054C89.7366 43.054 89.4746 42.99 89.2786 42.862C89.0826 42.734 88.9426 42.552 88.8586 42.316C88.7746 42.076 88.7326 41.796 88.7326 41.476V39.634C88.7326 39.314 88.7746 39.04 88.8586 38.812C88.9466 38.58 89.0866 38.404 89.2786 38.284C89.4746 38.16 89.7366 38.098 90.0646 38.098C90.3926 38.098 90.6526 38.16 90.8446 38.284C91.0366 38.408 91.1746 38.584 91.2586 38.812C91.3466 39.04 91.3906 39.314 91.3906 39.634V41.482C91.3906 41.798 91.3466 42.074 91.2586 42.31C91.1746 42.546 91.0366 42.73 90.8446 42.862C90.6526 42.99 90.3926 43.054 90.0646 43.054ZM90.0646 42.52C90.2446 42.52 90.3806 42.484 90.4726 42.412C90.5646 42.336 90.6266 42.232 90.6586 42.1C90.6906 41.964 90.7066 41.806 90.7066 41.626V39.496C90.7066 39.316 90.6906 39.162 90.6586 39.034C90.6266 38.902 90.5646 38.802 90.4726 38.734C90.3806 38.662 90.2446 38.626 90.0646 38.626C89.8846 38.626 89.7466 38.662 89.6506 38.734C89.5586 38.802 89.4966 38.902 89.4646 39.034C89.4326 39.162 89.4166 39.316 89.4166 39.496V41.626C89.4166 41.806 89.4326 41.964 89.4646 42.1C89.4966 42.232 89.5586 42.336 89.6506 42.412C89.7466 42.484 89.8846 42.52 90.0646 42.52ZM92.897 43V38.14H93.953C94.313 38.14 94.597 38.196 94.805 38.308C95.017 38.416 95.167 38.58 95.255 38.8C95.347 39.02 95.393 39.294 95.393 39.622V41.41C95.393 41.754 95.347 42.044 95.255 42.28C95.167 42.516 95.021 42.696 94.817 42.82C94.617 42.94 94.347 43 94.007 43H92.897ZM93.575 42.514H93.959C94.207 42.514 94.383 42.466 94.487 42.37C94.591 42.274 94.653 42.134 94.673 41.95C94.697 41.766 94.709 41.544 94.709 41.284V39.706C94.709 39.454 94.693 39.25 94.661 39.094C94.629 38.938 94.559 38.824 94.451 38.752C94.343 38.68 94.173 38.644 93.941 38.644H93.575V42.514ZM98.155 43.054C97.803 43.054 97.533 42.984 97.345 42.844C97.157 42.704 97.029 42.508 96.961 42.256C96.893 42 96.859 41.702 96.859 41.362V38.14H97.507V41.392C97.507 41.6 97.521 41.79 97.549 41.962C97.577 42.134 97.637 42.27 97.729 42.37C97.825 42.47 97.967 42.52 98.155 42.52C98.347 42.52 98.489 42.47 98.581 42.37C98.673 42.27 98.733 42.134 98.761 41.962C98.789 41.79 98.803 41.6 98.803 41.392V38.14H99.445V41.362C99.445 41.702 99.411 42 99.343 42.256C99.275 42.508 99.147 42.704 98.959 42.844C98.775 42.984 98.507 43.054 98.155 43.054ZM102.217 43.054C101.873 43.054 101.605 42.982 101.413 42.838C101.225 42.694 101.093 42.5 101.017 42.256C100.945 42.012 100.909 41.74 100.909 41.44V39.724C100.909 39.396 100.945 39.11 101.017 38.866C101.093 38.622 101.225 38.434 101.413 38.302C101.605 38.166 101.873 38.098 102.217 38.098C102.521 38.098 102.761 38.154 102.937 38.266C103.117 38.378 103.245 38.538 103.321 38.746C103.401 38.954 103.441 39.204 103.441 39.496V39.88H102.799V39.538C102.799 39.358 102.789 39.2 102.769 39.064C102.753 38.924 102.705 38.816 102.625 38.74C102.545 38.664 102.411 38.626 102.223 38.626C102.031 38.626 101.891 38.668 101.803 38.752C101.715 38.832 101.657 38.948 101.629 39.1C101.605 39.248 101.593 39.422 101.593 39.622V41.548C101.593 41.792 101.613 41.986 101.653 42.13C101.693 42.27 101.759 42.37 101.851 42.43C101.943 42.49 102.067 42.52 102.223 42.52C102.407 42.52 102.539 42.48 102.619 42.4C102.699 42.316 102.749 42.202 102.769 42.058C102.789 41.914 102.799 41.746 102.799 41.554V41.194H103.441V41.554C103.441 41.85 103.405 42.112 103.333 42.34C103.261 42.564 103.137 42.74 102.961 42.868C102.785 42.992 102.537 43.054 102.217 43.054ZM105.461 43V38.644H104.639V38.14H106.937V38.644H106.139V43H105.461ZM108.281 43V38.14H108.947V43H108.281ZM111.816 43.054C111.488 43.054 111.226 42.99 111.03 42.862C110.834 42.734 110.694 42.552 110.61 42.316C110.526 42.076 110.484 41.796 110.484 41.476V39.634C110.484 39.314 110.526 39.04 110.61 38.812C110.698 38.58 110.838 38.404 111.03 38.284C111.226 38.16 111.488 38.098 111.816 38.098C112.144 38.098 112.404 38.16 112.596 38.284C112.788 38.408 112.926 38.584 113.01 38.812C113.098 39.04 113.142 39.314 113.142 39.634V41.482C113.142 41.798 113.098 42.074 113.01 42.31C112.926 42.546 112.788 42.73 112.596 42.862C112.404 42.99 112.144 43.054 111.816 43.054ZM111.816 42.52C111.996 42.52 112.132 42.484 112.224 42.412C112.316 42.336 112.378 42.232 112.41 42.1C112.442 41.964 112.458 41.806 112.458 41.626V39.496C112.458 39.316 112.442 39.162 112.41 39.034C112.378 38.902 112.316 38.802 112.224 38.734C112.132 38.662 111.996 38.626 111.816 38.626C111.636 38.626 111.498 38.662 111.402 38.734C111.31 38.802 111.248 38.902 111.216 39.034C111.184 39.162 111.168 39.316 111.168 39.496V41.626C111.168 41.806 111.184 41.964 111.216 42.1C111.248 42.232 111.31 42.336 111.402 42.412C111.498 42.484 111.636 42.52 111.816 42.52ZM114.648 43V38.14H115.11L116.49 41.368V38.14H117.054V43H116.622L115.224 39.682V43H114.648Z" fill="#F4FFFC"></path></svg> 