<?xml version="1.0" encoding="UTF-8"?> <svg xmlns="http://www.w3.org/2000/svg" width="23" height="24" viewBox="0 0 23 24" fill="none"><path d="M0 23.59L1.65674 17.4226C0.453282 15.2371 0.00155781 12.7166 0.371141 10.2492C0.740724 7.78183 1.91114 5.50435 3.70213 3.76741C5.49311 2.03047 7.80537 0.930392 10.2829 0.636569C12.7605 0.342745 15.2659 0.87147 17.4135 2.14132C19.5611 3.41116 21.2317 5.35173 22.1682 7.66423C23.1046 9.97673 23.255 12.5329 22.5961 14.9393C21.9372 17.3456 20.5056 19.4686 18.5216 20.9815C16.5377 22.4943 14.1115 23.3131 11.6166 23.3117C9.72472 23.3082 7.86334 22.8345 6.19986 21.9333L0 23.59ZM6.51049 19.6229L6.89877 19.8559C8.84094 21.0142 11.1398 21.4218 13.3619 21.002C15.5839 20.5821 17.5755 19.3637 18.9611 17.5766C20.3468 15.7895 21.0306 13.5572 20.8838 11.3007C20.7369 9.0441 19.7695 6.91923 18.1639 5.32678C16.5584 3.73434 14.4257 2.78438 12.168 2.65604C9.91028 2.52769 7.68363 3.22984 5.90796 4.63007C4.13228 6.03029 2.9303 8.03183 2.52866 10.2572C2.12703 12.4826 2.55351 14.7781 3.72768 16.7107L3.96713 17.1054L3.04817 20.5484L6.51049 19.6229Z" fill="white"></path><path fill-rule="evenodd" clip-rule="evenodd" d="M15.8491 13.5072C15.6219 13.3281 15.3576 13.202 15.0754 13.1382C14.7932 13.0744 14.5004 13.0744 14.2182 13.1383C13.7975 13.313 13.5257 13.9796 13.2475 14.3162C13.1899 14.397 13.104 14.4533 13.0069 14.4737C12.9098 14.4941 12.8085 14.4771 12.7233 14.4262C11.1745 13.8225 9.87637 12.7114 9.04088 11.2745C9.00139 11.2285 8.97152 11.1751 8.95303 11.1174C8.93454 11.0597 8.92781 10.9989 8.93324 10.9386C8.93867 10.8782 8.95617 10.8196 8.98467 10.7661C9.01316 10.7127 9.05208 10.6655 9.09914 10.6273C9.40552 10.3272 9.62855 9.95249 9.7463 9.54007C9.77217 9.0891 9.66889 8.6401 9.44859 8.24574C9.27318 7.68859 8.94332 7.19265 8.49728 6.81551C8.26707 6.70893 8.01061 6.67235 7.75978 6.71032C7.50895 6.74829 7.27482 6.85912 7.08646 7.02906C6.75975 7.30799 6.50038 7.65725 6.32779 8.05063C6.15519 8.44401 6.07382 8.87134 6.0898 9.30062C6.0904 9.54289 6.12084 9.78416 6.18041 10.019C6.3298 10.5835 6.56324 11.1224 6.87289 11.6175C7.09292 11.9928 7.33236 12.3617 7.59123 12.7177C8.44044 13.8772 9.50366 14.8635 10.7235 15.6234C11.3339 16.0054 11.9852 16.318 12.665 16.5553C13.3781 16.8783 14.1655 17.0014 14.9431 16.9113C15.3863 16.8438 15.8062 16.6686 16.1661 16.4013C16.526 16.1339 16.8149 15.7824 17.0075 15.3775C17.1137 15.131 17.1474 14.8594 17.1046 14.5944C17.014 14.0896 16.2891 13.7661 15.8491 13.5072Z" fill="white"></path></svg> 