<?xml version="1.0" encoding="UTF-8"?> <svg xmlns="http://www.w3.org/2000/svg" width="25" height="24" viewBox="0 0 25 24" fill="none"><path fill-rule="evenodd" clip-rule="evenodd" d="M22.2816 4.11407C23.3523 4.39093 24.1967 5.20135 24.4849 6.22948C25.0205 8.1074 24.9999 12.0218 24.9999 12.0218C24.9999 12.0218 24.9999 15.9163 24.4851 17.7944C24.1967 18.8223 23.3525 19.6329 22.2816 19.9096C20.3252 20.404 12.4999 20.404 12.4999 20.404C12.4999 20.404 4.69511 20.404 2.71834 19.89C1.64737 19.6131 0.803181 18.8025 0.514791 17.7746C0 15.9163 0 12.002 0 12.002C0 12.002 0 8.1074 0.514791 6.22948C0.80299 5.20153 1.66797 4.37115 2.71815 4.09448C4.67451 3.6001 12.4998 3.6001 12.4998 3.6001C12.4998 3.6001 20.3252 3.6001 22.2816 4.11407ZM16.5155 12.0021L10.0082 15.6001V8.40404L16.5155 12.0021Z" fill="white"></path></svg> 