<svg width="130" height="130" viewBox="0 0 130 130" fill="none" xmlns="http://www.w3.org/2000/svg">
<path d="M130 65C130 78.2102 125.975 91.1068 118.461 101.972C110.947 112.837 100.301 121.155 87.941 125.817C75.5809 130.479 62.0936 131.265 49.2758 128.069C36.458 124.874 24.9181 117.848 16.1935 107.929C7.4688 98.0101 1.97352 85.6681 0.439653 72.5473C-1.09421 59.4265 1.40616 46.1497 7.6077 34.4857C13.8092 22.8216 23.4175 13.324 35.1526 7.25805C46.8877 1.19205 60.1925 -1.15434 73.2947 0.531419L72.5517 6.30659C60.6232 4.77184 48.5102 6.90805 37.8264 12.4306C27.1425 17.9532 18.395 26.6 12.749 37.2192C7.10297 47.8384 4.82659 59.9257 6.22305 71.8712C7.6195 83.8167 12.6225 95.0531 20.5656 104.084C28.5087 113.114 39.0148 119.51 50.6844 122.42C62.354 125.329 74.633 124.614 85.8859 120.369C97.1387 116.124 106.831 108.552 113.672 98.6599C120.513 88.7681 124.177 77.0268 124.177 65H130Z" fill="#FE6A3C"/>
</svg>
