<svg width="130" height="130" viewBox="0 0 130 130" fill="none" xmlns="http://www.w3.org/2000/svg">
<path d="M130 65C130 80.0381 124.786 94.611 115.246 106.236C105.706 117.86 92.43 125.817 77.6809 128.751C62.9317 131.685 47.6216 129.414 34.3592 122.325C21.0968 115.236 10.7027 103.768 4.94783 89.8744C-0.806998 75.981 -1.56645 60.5221 2.79888 46.1315C7.1642 31.7409 16.3842 19.3092 28.8879 10.9545C41.3916 2.59976 56.4054 -1.161 71.3711 0.312992C86.3368 1.78698 100.328 8.40452 110.962 19.0381L106.942 23.0579C97.2385 13.3544 84.4707 7.31564 70.8139 5.97057C57.1571 4.6255 43.4565 8.05734 32.0463 15.6813C20.6362 23.3054 12.2226 34.6498 8.23904 47.7818C4.2555 60.9137 4.94853 75.0206 10.2 87.6989C15.4516 100.377 24.9366 110.842 37.0391 117.311C49.1416 123.78 63.1126 125.853 76.5718 123.175C90.031 120.498 102.145 113.237 110.851 102.629C119.557 92.0212 124.315 78.7228 124.315 65H130Z" fill="#FE6A3C"/>
</svg>
