<svg width="130" height="116" viewBox="0 0 130 116" fill="none" xmlns="http://www.w3.org/2000/svg">
<path d="M130 51C130 61.9452 127.236 72.7132 121.965 82.3053C116.693 91.8975 109.085 100.003 99.8454 105.871C90.6058 111.738 80.0342 115.178 69.1109 115.87C58.1876 116.562 47.2664 114.485 37.36 109.831C27.4537 105.176 18.883 98.0959 12.4429 89.2459C6.00275 80.396 1.90167 70.063 0.519988 59.2054C-0.861696 48.3477 0.52076 37.317 4.53915 27.1361C8.55754 16.9552 15.0817 7.95394 23.5067 0.966968L27.2636 5.49706C19.6014 11.8514 13.668 20.0377 10.0134 29.2968C6.35884 38.5559 5.10156 48.5879 6.35814 58.4624C7.61472 68.337 11.3445 77.7344 17.2015 85.7831C23.0586 93.8317 30.8532 100.271 39.8626 104.504C48.872 108.737 58.8044 110.626 68.7387 109.996C78.673 109.367 88.2874 106.239 96.6904 100.903C105.093 95.5664 112.013 88.1946 116.807 79.4709C121.601 70.7472 124.115 60.9542 124.115 51H130Z" fill="#FE6A3C"/>
</svg>
